<?xml version="1.0" encoding="utf-8"?>
<!-- Generator: Adobe Illustrator 18.0.0, SVG Export Plug-In . SVG Version: 6.00 Build 0)  -->
<!DOCTYPE svg PUBLIC "-//W3C//DTD SVG 1.1//EN" "http://www.w3.org/Graphics/SVG/1.1/DTD/svg11.dtd">
<svg version="1.1" id="Layer_1" xmlns="http://www.w3.org/2000/svg" xmlns:xlink="http://www.w3.org/1999/xlink" x="0px" y="0px"
	 viewBox="39.7 45 121.3 119.8" enable-background="new 39.7 45 121.3 119.8" xml:space="preserve">
<rect id="backgroundrect" x="0" fill="none" width="201" height="209"/>
<g>
	<title>background</title>
	<rect id="canvas_background" x="-1" y="-1" fill="none" width="203" height="211"/>
</g>
<g>
	<title>Layer 1</title>
	<g id="svg_1">
		<path id="svg_3" fill="#FFFFFF" d="M117.3,115.8c-2-2-5.2-2-7.2,0.1c-2,2-1.9,5.3,0.1,7.3l40.2,39.6c1,1,2.3,1.5,3.6,1.5
			c1.3,0,2.6-0.5,3.6-1.5c2-2,1.9-5.3-0.1-7.3L117.3,115.8L117.3,115.8z"/>
		<path id="svg_4" fill="#FFFFFF" d="M81.2,93.2c1,1,2.3,1.5,3.6,1.5s2.6-0.5,3.6-1.5c2-2,2-5.3,0-7.3L50,47.1c-2-2-5.2-2-7.2,0
			c-2,2-2,5.3,0,7.3C42.7,54.4,81.2,93.2,81.2,93.2z"/>
		<path id="svg_5" fill="#FFFFFF" d="M158.6,47.1c-2-2-5.2-2-7.2,0L43.7,155.5c-2,2-2,5.3,0,7.3c1,1,2.3,1.5,3.6,1.5
			s2.6-0.5,3.6-1.5L158.6,54.4C160.5,52.4,160.5,49.2,158.6,47.1L158.6,47.1z"/>
	</g>
	<g id="svg_6">
	</g>
	<g id="svg_7">
	</g>
	<g id="svg_8">
	</g>
	<g id="svg_9">
	</g>
	<g id="svg_10">
	</g>
	<g id="svg_11">
	</g>
	<g id="svg_12">
	</g>
	<g id="svg_13">
	</g>
	<g id="svg_14">
	</g>
	<g id="svg_15">
	</g>
	<g id="svg_16">
	</g>
	<g id="svg_17">
	</g>
	<g id="svg_18">
	</g>
	<g id="svg_19">
	</g>
	<g id="svg_20">
	</g>
</g>
</svg>
