<?xml version="1.0" encoding="utf-8"?>
<!-- Generator: Adobe Illustrator 21.0.0, SVG Export Plug-In . SVG Version: 6.00 Build 0)  -->
<svg version="1.1" id="head_hunters" xmlns="http://www.w3.org/2000/svg" xmlns:xlink="http://www.w3.org/1999/xlink" x="0px"
	 y="0px" width="26.2px" height="22.6px" viewBox="0 0 26.2 22.6" style="enable-background:new 0 0 26.2 22.6;"
	 xml:space="preserve">
<style type="text/css">
	.st0{fill:#FFFFFF;}
</style>
<path class="st0" d="M13.1,0.2c-4.6,0-8.3,3.7-8.3,8.3c0,5.4,6,12,6.9,13.1c0.4,0.4,0.7,0.8,1.4,0.8c0.7,0,1-0.4,1.4-0.8
	c0.9-1,6.9-7.7,6.9-13.1C21.4,3.9,17.7,0.2,13.1,0.2z M13.1,14.1c-3.1,0-5.6-2.5-5.6-5.6S10,3,13.1,3s5.6,2.5,5.6,5.6
	S16.2,14.1,13.1,14.1z M13.1,5.8c-1.5,0-2.8,1.2-2.8,2.8s1.2,2.8,2.8,2.8s2.8-1.2,2.8-2.8S14.6,5.8,13.1,5.8z"/>
</svg>
