<?xml version="1.0" encoding="utf-8"?>
<!-- Generator: Adobe Illustrator 21.0.0, SVG Export Plug-In . SVG Version: 6.00 Build 0)  -->
<svg version="1.1" id="head_hunters" xmlns="http://www.w3.org/2000/svg" xmlns:xlink="http://www.w3.org/1999/xlink" x="0px"
	 y="0px" width="26.2px" height="22.6px" viewBox="0 0 26.2 22.6" style="enable-background:new 0 0 26.2 22.6;"
	 xml:space="preserve">
<style type="text/css">
	.st0{fill:#FFFFFF;}
</style>
<g>
	<g>
		<path class="st0" d="M25.6,19.9l-0.8-0.6l-1.9,2.4l0.8,0.6c0.7,0.5,1.6,0.4,2.1-0.3C26.4,21.4,26.2,20.4,25.6,19.9z"/>
		<g>
			<path class="st0" d="M18,14.1c0.7-1.3,1.1-2.9,1.1-4.5c0-5.3-4.3-9.6-9.6-9.6C4.3,0,0,4.3,0,9.6c0,5.3,4.3,9.6,9.6,9.6
				c2.6,0,4.9-1,6.6-2.6l6.3,4.8l1.9-2.4L18,14.1z M9.6,17c-4.1,0-7.4-3.3-7.4-7.4c0-4.1,3.3-7.4,7.4-7.4S17,5.5,17,9.6
				C17,13.7,13.7,17,9.6,17z"/>
		</g>
	</g>
	<g>
		<path class="st0" d="M14.5,13.5V13c0-1.9-1.5-3.4-3.4-3.4l-3,0c-1.9,0-3.4,1.5-3.4,3.4v0.7c0.5,0.6,1.2,1.1,1.9,1.5v-2.5h0.6v2.7
			c0.7,0.3,1.5,0.4,2.2,0.4c0.9,0,1.7-0.2,2.5-0.5v-2.6h0.6v2.3C13.4,14.7,14,14.1,14.5,13.5z"/>
		<circle class="st0" cx="9.7" cy="6.3" r="2.9"/>
	</g>
</g>
</svg>
