<?xml version="1.0" encoding="utf-8"?>
<!-- Generator: Adobe Illustrator 21.0.0, SVG Export Plug-In . SVG Version: 6.00 Build 0)  -->
<svg version="1.1" id="レイヤー_1" xmlns="http://www.w3.org/2000/svg" xmlns:xlink="http://www.w3.org/1999/xlink" x="0px"
	 y="0px" width="200px" height="144.1px" viewBox="0 0 200 144.1" style="enable-background:new 0 0 200 144.1;"
	 xml:space="preserve">
<style type="text/css">
	.st0{fill:#BEBEBE;}
	.st1{fill:#BEBEBE;stroke:#BEBEBE;stroke-width:0.2877;stroke-miterlimit:10;}
</style>
<polygon class="st0" points="0,41.5 0,144 1.1,144 1.1,42 53,4.3 53,2.9 "/>
<polygon class="st0" points="147.2,3.1 147.2,4.5 198.9,42 198.9,144 200,144 200,41.5 "/>
<g>
	<g>
		<path class="st0" d="M99.3,9c-0.9,0.8-1.7,1.4-2.5,1.9c-0.7,0.4-1.6,0.8-2.5,1.1c-0.2,0-0.3,0-0.1-0.2c1.2-0.7,2.2-1.5,3-2.4
			c0.6-0.7,1.1-1.3,1.4-2h-1.5V8c0,0.2-0.2,0.4-0.5,0.5c-0.6,0.1-0.9,0-0.9-0.3V3.1l1.5,0.7h2.1V2.4h-5.2L94,2.1h5.3V0l1.6,0.2
			c0.5,0.1,0.5,0.3,0.1,0.6L100.7,1v1.1h3.2l0.8-1.1l1.3,1c0.3,0.2,0.2,0.4-0.1,0.5h-5.2v1.3h2.2l0.4-0.8l1.3,1.1
			c0.2,0.2,0.1,0.4-0.1,0.6l-0.2,0.1v3c0,0.2-0.1,0.3-0.2,0.4c-0.2,0.1-0.4,0.2-0.6,0.2c-0.4,0.1-0.7,0-0.7-0.3V7.4h-2
			c0.4,0.5,0.9,0.9,1.5,1.4c0.5,0.4,1.1,0.7,1.8,1c0.9,0.3,1.6,0.6,2.2,0.8c-0.7,0.3-1.1,0.8-1.4,1.3c-1-0.5-1.9-1.2-2.7-2
			c-0.5-0.5-1-1.2-1.5-2.1v3.6c0,0.3-0.3,0.6-0.9,0.6c-0.1,0-0.2,0-0.3,0c-0.1-0.1-0.2-0.2-0.2-0.4L99.3,9L99.3,9z M97.2,4.1v1.3
			h2.2V4.1H97.2z M97.2,5.7V7h2.2V5.7H97.2z M100.7,4.1v1.3h2.2V4.1H100.7z M100.7,5.7V7h2.2V5.7H100.7z"/>
		<path class="st0" d="M86.1,32.1c-0.9,0.8-1.7,1.4-2.5,1.9c-0.7,0.4-1.6,0.8-2.5,1.1c-0.2,0-0.3,0-0.1-0.2c1.2-0.7,2.2-1.5,3-2.4
			c0.6-0.7,1.1-1.3,1.5-2H84v0.6c0,0.2-0.2,0.4-0.5,0.5c-0.6,0.1-0.9,0.1-0.9-0.3v-5.1l1.5,0.7h2.1v-1.3H81l-0.2-0.4h5.3v-2.1
			l1.6,0.2c0.4,0.1,0.5,0.3,0.1,0.6l-0.4,0.2v1.1h3.2l0.8-1.1l1.3,1c0.3,0.2,0.2,0.4-0.1,0.5h-5.2v1.3h2.2l0.4-0.8l1.3,1.1
			c0.2,0.2,0.1,0.4-0.1,0.6L91,27.9v3c0,0.2-0.1,0.3-0.2,0.4c-0.2,0.1-0.4,0.2-0.6,0.2c-0.4,0.1-0.7,0-0.7-0.3v-0.6h-2
			c0.4,0.5,0.9,0.9,1.4,1.4c0.5,0.4,1.1,0.7,1.8,1c0.9,0.3,1.6,0.6,2.2,0.8c-0.7,0.3-1.1,0.8-1.4,1.3c-1-0.5-1.9-1.2-2.7-2
			c-0.5-0.5-1-1.2-1.5-2.1v3.6c0,0.3-0.3,0.6-0.9,0.6c-0.1,0-0.2,0-0.3,0c-0.1-0.1-0.2-0.2-0.2-0.4v-2.7
			C85.9,32.1,86.1,32.1,86.1,32.1z M83.9,27.3v1.3h2.2v-1.3H83.9z M83.9,28.9v1.3h2.2v-1.3H83.9z M87.4,27.3v1.3h2.2v-1.3H87.4z
			 M87.4,28.9v1.3h2.2v-1.3H87.4z"/>
		<path class="st0" d="M110.7,29.9v0.5c0,0.1-0.1,0.2-0.4,0.2l1.3,0.9c0.3,0.2,0.3,0.4-0.2,0.5l-0.5,0.1c-0.9,0.8-1.6,1.4-2.1,1.7
			c-0.7,0.4-1.2,0.7-1.6,0.8c-0.2,0.1-0.2-0.1,0.2-0.5c1.2-1.1,2.1-2.2,2.7-3.4c-0.3,0.1-0.6,0.1-0.7,0.1s-0.2-0.1-0.2-0.3v-4
			l1.7,0.7h4.8l0.5-0.9l1.4,1.2c0.2,0.2,0.1,0.3-0.1,0.5l-0.3,0.2v2.1c0,0.3-0.4,0.4-1.2,0.5c-0.2,0-0.3-0.1-0.3-0.3V30h-1.9v4.3
			c0,0.3-0.3,0.6-1,0.9c-0.6,0.3-0.9,0.2-0.9-0.2c0-0.2-0.1-0.4-0.1-0.4c0-0.1-0.2-0.2-0.6-0.3l-1-0.4c-0.2-0.1-0.3-0.1-0.2-0.2
			c0.1-0.1,0.4-0.1,0.9-0.1c0.6,0,1,0,1.2,0c0.1,0,0.1-0.1,0.1-0.3v-3.4C112.2,29.9,110.7,29.9,110.7,29.9z M117.1,25.3l0.8-1.2
			l1.4,1.1c0.2,0.2,0.2,0.4-0.2,0.5h-11.8l-0.2-0.4h5.2v-2.1l1.7,0.2c0.3,0.1,0.4,0.3,0.1,0.6l-0.4,0.2v1.1
			C113.7,25.3,117.1,25.3,117.1,25.3z M110.7,27.5v2.1h5.1v-2.1H110.7z M118.3,33.9c-0.4,0.6-0.8,0.7-1.2,0.2
			c-0.1-0.2-0.3-0.5-0.6-0.9c-0.4-0.8-1-1.4-1.7-1.8c-0.5-0.3-0.6-0.5-0.4-0.5c0.5,0,1.2,0.2,2.2,0.6c0.7,0.3,1.3,0.8,1.6,1.3
			C118.4,33.2,118.4,33.5,118.3,33.9z"/>
		<path class="st0" d="M58,51.1c0.3,0.1,0.6,0.3,0.8,0.5c0.6,0.4,0.8,0.7,0.7,1s-0.4,0.4-1,0.3c-0.5-0.1-1-0.1-1.7-0.1
			c-1.6,0-2.7,0.1-3.5,0.3c0,0.5,0,1.2,0,2.2c0,0.4,0.1,0.6,0.3,0.7c0.1,0.1,0.6,0.1,1.3,0.1c0.8,0,1.3-0.1,1.6-0.2
			c0.4-0.3,0.9-0.3,1.2,0.1c0.2,0.2,0.4,0.3,0.5,0.5c0.1,0.3,0.1,0.5-0.2,0.7s-1.5,0.3-3.5,0.2c-0.8,0-1.3-0.1-1.7-0.3
			s-0.7-0.5-0.8-1c-0.1-0.3-0.1-0.6-0.1-1s0-1,0-1.7c-0.5,0.1-0.8,0.1-1.1,0.2c-1,0.2-1.6,0.4-1.7,0.4c-0.1,0-0.2,0-0.4,0
			c-0.2-0.1-0.5-0.3-0.8-0.7c-0.2-0.3-0.3-0.6-0.3-0.8c0.1-0.3,0.2-0.5,0.3-0.6c0.3,0.5,0.5,0.7,0.8,0.8c0.1,0,1.2-0.1,3.2-0.4
			c0-0.6,0-1.1,0-1.5c0-0.3,0-0.6,0-0.6c-0.1-0.1-0.2-0.3-0.4-0.4C51,49.9,50.6,50,50.3,50c-0.2,0.1-0.4,0.1-0.5,0
			c-0.6-0.3-0.9-0.6-1-1s0-0.7,0.3-0.7c0.1,0.2,0.3,0.4,0.5,0.5s0.4,0.1,0.6,0.1c0.7-0.1,1.3-0.2,1.9-0.3l3-0.4l0.6-0.4
			c0.3,0.1,0.7,0.3,1.1,0.6c0.3,0.2,0.5,0.5,0.4,0.7s-0.2,0.2-0.5,0.2c-0.8-0.1-1.5-0.1-2,0c-0.7,0.1-1.3,0.2-1.8,0.3
			c0.5,0.2,0.8,0.4,0.8,0.5c0,0.2-0.1,0.4-0.2,0.6L53.4,52l1.9-0.2l2.1-0.2L58,51.1z"/>
		<path class="st0" d="M80.9,49.5l-0.8,1.6c-0.4,0.9-0.9,1.6-1.2,2.2c-0.8,1.1-1.6,2.1-2.4,2.7c-0.5,0.4-1.2,0.9-2.1,1.4
			c-0.3,0.1-0.6,0.3-0.8,0.4c-0.2,0-0.2-0.1,0.1-0.3c0.3-0.2,0.7-0.5,1-0.8c1-0.9,2-2.2,2.9-3.9c0.2-0.4,0.5-1.1,0.8-1.9
			c0.1-0.4,0.3-0.8,0.5-1.2c0.2-0.5,0.3-0.9,0.4-1.2c0-0.3-0.2-0.6-0.8-0.8c0.1-0.2,0.3-0.3,0.6-0.4c0.3-0.1,0.7,0,1.1,0.3
			c0.8,0.5,1.2,0.9,1.3,1.3c0.1,0.2,0,0.4-0.1,0.5C81.3,49.4,81.1,49.5,80.9,49.5z"/>
		<path class="st0" d="M98,52.3c-0.5,0.1-0.8-0.2-1-0.9c-0.1-0.4-0.3-0.8-0.4-1.1c-0.2-0.5-0.5-1-1-1.3c-0.2-0.2-0.1-0.2,0.5-0.1
			c1.6,0.4,2.4,1.2,2.5,2.3C98.7,51.9,98.5,52.2,98,52.3z M105.3,50.6c-0.8,1.5-1.6,2.8-2.5,3.7c-0.9,1-1.7,1.7-2.5,2.2
			c-0.7,0.4-1.7,0.9-3.1,1.3c-0.3,0.1-0.4,0-0.2-0.2c1.5-0.8,2.6-1.6,3.4-2.5c0.8-0.8,1.3-1.6,1.7-2.2c0.6-1,1-1.6,1.1-2
			c0.3-0.6,0.5-1,0.6-1.4c0.1-0.2,0-0.4-0.2-0.5l-0.4-0.3c0.2-0.3,0.5-0.4,0.8-0.4c0.2,0,0.5,0.2,0.8,0.5c0.5,0.4,0.8,0.8,0.9,1
			s0.1,0.3-0.1,0.4C105.6,50.5,105.5,50.5,105.3,50.6z M99.8,50.1c-0.4-0.9-0.9-1.5-1.4-2c-0.2-0.2,0-0.2,0.6-0.1
			c1.1,0.2,1.9,0.7,2.3,1.4c0.2,0.3,0.2,0.6,0.2,1s-0.2,0.6-0.5,0.7c-0.3,0.1-0.5,0-0.7-0.1C100.1,50.8,99.9,50.5,99.8,50.1z
			 M103.8,47.3c-0.3-0.2-0.2-0.2,0.2-0.2c1.2,0.2,1.8,0.6,1.9,1.3c0,0.3-0.1,0.5-0.4,0.6c-0.2,0.1-0.4,0-0.6-0.3l-0.2-0.4
			C104.5,48,104.2,47.6,103.8,47.3z M105.3,46.7l-0.3-0.2c-0.2-0.1-0.1-0.1,0.3-0.1s0.8,0.1,1.1,0.3c0.5,0.2,0.8,0.5,0.8,0.8
			s-0.1,0.5-0.3,0.6c-0.2,0.1-0.5,0-0.6-0.3C105.9,47.2,105.5,46.8,105.3,46.7z"/>
		<path class="st0" d="M125.2,50l-0.5,0.7c-0.6,0.7-1.2,1.3-1.8,1.9c-0.6,0.5-1.2,0.9-1.7,1.1c-0.2,0.1-0.3,0.1-0.3-0.1
			c0.2-0.3,0.5-0.5,0.7-0.7c0.3-0.3,0.6-0.6,0.9-1.1c0.8-1.1,1.5-2.5,2.1-4.1c0.1-0.3,0.1-0.5-0.1-0.7l-0.4-0.2
			c0.1-0.1,0.2-0.1,0.4-0.2c0.4-0.1,0.8,0,1.1,0.3c0.2,0.1,0.5,0.3,0.7,0.5c0.3,0.3,0.5,0.5,0.4,0.7c0,0.1-0.2,0.2-0.6,0.4l-0.5,0.8
			l2.9-0.4l0.6-0.6c0.7,0.5,1.2,0.9,1.4,1.3c0.2,0.2,0.1,0.4-0.1,0.5l-0.5,0.2l-0.9,1.4c-0.5,0.8-1.1,1.6-1.9,2.5s-1.5,1.6-2.3,2.1
			c-0.9,0.6-1.9,1.2-3.2,1.6c-0.4,0.1-0.3,0,0.2-0.4c1-0.5,2-1.4,3.2-2.7c1.2-1.4,2.2-3,3.2-5c-0.9,0.1-1.4,0.2-1.8,0.3l-1.1,0.3
			L125.2,50z"/>
		<path class="st0" d="M147,49.2l0.1,1.9c0,0.8,0.1,1.3,0.1,1.7c0,0.6,0,0.9-0.2,1.1c-0.2,0.2-0.5,0.2-0.8,0.1
			c-0.3-0.1-0.4-0.4-0.5-0.7c0-0.4,0-0.8,0.1-1.3c0-0.4,0-1,0-1.8c0-0.7-0.1-1.3-0.1-1.8c0-0.1-0.1-0.2-0.3-0.3s-0.4-0.2-0.5-0.3
			c0.1-0.1,0.3-0.3,0.6-0.4c0.2-0.1,0.5,0,0.9,0.3l0.5,0.3c0.4,0.2,0.6,0.4,0.7,0.6c0,0.1,0,0.2-0.1,0.3
			C147.2,49,147.1,49.1,147,49.2z M151.9,48.5v1.7c0,0.9,0,1.6-0.1,2.3c-0.1,0.9-0.3,1.6-0.5,2.1c-0.5,1-1.4,1.9-2.6,2.6
			c-0.5,0.3-1.1,0.6-1.9,0.8c-0.3,0.1-0.4,0.1-0.2-0.2c0.7-0.3,1.2-0.7,1.5-0.9c1.3-1,2-2.3,2.2-4c0.1-1.3,0.2-2.9,0.1-4.6
			c0-0.5-0.1-0.8-0.2-0.9c-0.1-0.1-0.3-0.2-0.7-0.3c0-0.1,0-0.2,0.1-0.2c0.2-0.2,0.4-0.3,0.5-0.3c0.3-0.1,0.8,0.1,1.6,0.6
			c0.3,0.2,0.4,0.3,0.5,0.4c0.2,0.2,0.2,0.4,0.1,0.6L151.9,48.5z"/>
		<path class="st0" d="M67.3,71.6h5.5v-2.1l1.7,0.1c0.3,0.1,0.3,0.3,0.1,0.6l-0.3,0.2v1.2h3.1l0.9-1.1l1.2,1
			c0.2,0.2,0.2,0.4-0.1,0.5h-3.2l0.5,0.4c0.1,0.1,0.1,0.2-0.1,0.3l-0.3,0.2L75,74.3h2.3l0.5-0.9l1.4,1.3c0.2,0.2,0.2,0.3-0.1,0.5
			l-0.3,0.2v5.3c0,0.2-0.2,0.5-0.5,0.7c-0.1,0.1-0.4,0.2-0.7,0.3c-0.4,0.2-0.6,0.1-0.7-0.4c0-0.1,0-0.2-0.1-0.3c0,0-0.1-0.1-0.3-0.2
			c-0.3-0.1-0.6-0.2-0.8-0.3c-0.1-0.1-0.2-0.1-0.3-0.2c-0.3,0.1-0.7,0.2-0.9,0.2c-0.2,0-0.3-0.1-0.3-0.2v-0.4h-1.8v0.6
			c0,0.1,0,0.2-0.1,0.2c-0.2,0.1-0.6,0.2-0.9,0.2c-0.2,0-0.3,0-0.3-0.2v-3.6c-0.5,0.3-1.1,0.6-1.8,0.8v3.3c0,0.1-0.1,0.2-0.3,0.3
			c-0.2,0.1-0.5,0.2-0.8,0.2c-0.2,0-0.3-0.1-0.3-0.3v-7.9l1.7,0.7h1.3c-0.1-0.1-0.1-0.1-0.2-0.2c0-0.1-0.1-0.3-0.2-0.7
			c-0.1-0.5-0.3-1-0.6-1.3h-2.8L67.3,71.6z M69.6,74.6v3c0.7-0.4,1.2-0.9,1.4-1.3c0.3-0.5,0.5-1,0.6-1.7H69.6z M74.3,74.3
			c0.3-0.9,0.5-1.6,0.6-2.3h-4c0.5,0.2,0.8,0.4,0.9,0.5c0.3,0.2,0.4,0.5,0.5,0.8c0.1,0.4,0,0.8-0.3,1H74.3z M71.5,77l1.2,0.6h1.6
			l0.4-0.8l1.4,1.1c0.2,0.2,0.1,0.3-0.1,0.4l-0.3,0.1V80c0.2,0,0.7,0.1,1.4,0.1c0.2,0,0.3-0.1,0.3-0.3v-5.3H75v1
			c0,0.3,0.3,0.3,0.8,0.2c0.1-0.1,0.3-0.2,0.4-0.4c0.2-0.5,0.4-0.7,0.5-0.6v0.4c0,0.3,0,0.4,0.1,0.5c0.4,0.3,0.5,0.6,0.2,0.8
			c-0.1,0.1-0.3,0.1-0.5,0.2c-0.2,0-0.6,0.1-1.3,0.1c-0.4,0-0.7,0-0.8-0.1c-0.3-0.1-0.5-0.3-0.5-0.6v-1.5H73
			c-0.2,0.7-0.4,1.2-0.6,1.5C72.1,76.5,71.8,76.8,71.5,77z M72.7,77.9v1.6h1.8v-1.6H72.7z"/>
		<path class="st0" d="M96.4,72c0,1.4,0,2.5-0.1,3.3c0,1.1-0.1,2-0.3,2.7c-0.2,0.8-0.6,1.6-1.1,2.4c-0.2,0.3-0.6,0.7-0.9,1.1
			c-0.1,0.2-0.2,0.2-0.2,0c0.2-0.5,0.5-1,0.6-1.5c0.2-0.8,0.4-1.8,0.5-3c0.1-0.9,0.1-2.3,0-4v-2l1.7,0.8h2.8v-2l1.7,0.1
			c0.2,0.1,0.3,0.2,0,0.5l-0.4,0.3v1.1h3.2l0.9-1.1l1.3,1c0.2,0.2,0.2,0.4-0.1,0.5h-9.6V72z M98.4,80.7v0.5c0,0.2-0.1,0.3-0.4,0.4
			c-0.7,0.2-1,0.2-0.9,0.1c-0.1,0-0.1-0.2-0.1-0.4v-5.1l1.6,0.8h1.1v-4.8l1.7,0.2c0.3,0.1,0.3,0.3,0.1,0.6l-0.2,0.2v1.4h2.1l0.8-1.1
			l1.4,1c0.3,0.2,0.2,0.3-0.1,0.4h-4.2V77h1.7l0.6-0.9l1.4,1.1c0.2,0.2,0.1,0.3-0.1,0.5l-0.3,0.2v2.9c0,0.2-0.1,0.3-0.3,0.4
			c-0.3,0.1-0.6,0.2-0.8,0.2c-0.2,0-0.4-0.1-0.4-0.4v-0.5h-4.7C98.4,80.5,98.4,80.7,98.4,80.7z M98.4,80.4h4.7v-2.9h-4.7V80.4z"/>
		<path class="st0" d="M121.9,76.2c-0.7,0.6-1.2,1-1.4,1.1c-0.2,0.1-0.3,0-0.1-0.3c0.2-0.2,0.4-0.5,0.6-0.8c0.8-1,1.5-2.3,2.1-4
			l1.3,0.7c0.3,0.2,0.3,0.3-0.1,0.4l-0.2,0.1c-0.3,0.4-0.6,0.8-0.9,1.2l0.3,0.2c0.2,0.2,0.2,0.3-0.1,0.4l-0.2,0.1v5.8
			c0,0.1,0,0.2-0.1,0.3c-0.1,0.1-0.3,0.2-0.5,0.2c-0.4,0.1-0.6,0-0.6-0.3v-5.1L121.9,76.2L121.9,76.2z M123.7,70.9
			c-0.6,0.6-1,1-1.3,1.3c-0.6,0.5-1.1,0.9-1.6,1.1c-0.3,0.2-0.4,0.1-0.3-0.2l0.1-0.1c0.7-0.7,1.4-1.9,2.1-3.5l1.6,0.9
			c0.3,0.2,0.3,0.3-0.1,0.4L123.7,70.9L123.7,70.9z M125.1,80.3c-0.3,0.6-0.5,0.7-0.7,0.4l-0.9-1.5c0.9-0.1,1.7-0.2,2.2-0.3V77H124
			l-0.2-0.4h1.9v-1.8L127,75c0.2,0.1,0.2,0.2,0.1,0.4l-0.2,0.2v1h0.6l0.7-1l0.9,0.9c0.2,0.2,0.2,0.3-0.1,0.4h-2.1v1.8
			c0.4-0.1,1-0.2,1.8-0.4l0.4-0.1c0.6-0.2,0.5,0-0.1,0.4c-0.2,0.1-0.4,0.2-0.7,0.3C127.2,79.4,126.2,79.8,125.1,80.3z M129.3,74.3
			c0.2,0.2,0.2,0.3-0.2,0.3h-5.3l-0.2-0.4h1.9v-2h-1.4l-0.2-0.4h1.6v-2.3l1.4,0.2c0.3,0.1,0.3,0.3,0.1,0.5l-0.3,0.2v1.4h0.5l0.7-1
			l0.9,0.9c0.2,0.2,0.2,0.3-0.1,0.4h-2.1v2h0.6l0.8-1l0.7,0.7h1.8l0.8-1.2l1.1,1.1c0.2,0.2,0.2,0.4-0.1,0.5H131v5.9
			c0,0.3-0.1,0.6-0.3,0.8c-0.3,0.3-0.7,0.5-1.1,0.6c-0.2,0-0.4-0.1-0.4-0.3c0-0.2-0.1-0.3-0.1-0.3c0-0.1-0.1-0.2-0.2-0.2
			c-0.4-0.2-0.9-0.3-1.2-0.5c0-0.1,0.1-0.2,0.3-0.2c0.8,0.1,1.3,0.1,1.4,0c0.1,0,0.2-0.2,0.2-0.4v-5.4h-0.3L129.3,74.3L129.3,74.3z
			 M131.4,69.9l1,1c0.2,0.2,0.1,0.3-0.1,0.4h-3.4l-0.2-0.4h1.9L131.4,69.9z"/>
	</g>
</g>
<g>
	<g>
		<path class="st0" d="M33.3,95.5H34v2h2.5v-2h0.7v4.8h-0.7V98H34v2.3h-0.7V95.5z"/>
		<path class="st0" d="M45.1,95.5h0.7v4.8h-0.7V95.5z"/>
		<path class="st0" d="M56.7,95.7c0.5,0.3,0.8,0.7,0.9,1.3H57c-0.1-0.4-0.2-0.6-0.5-0.8C56.3,96,55.9,96,55.6,96
			c-0.4,0-0.8,0.2-1.1,0.5S54,97.3,54,98c0,0.6,0.1,1,0.4,1.4c0.2,0.4,0.7,0.5,1.2,0.5c0.4,0,0.8-0.1,1.1-0.4s0.4-0.7,0.4-1.2h-1.5
			v-0.5h2.1v2.6h-0.4l-0.2-0.6c-0.2,0.2-0.4,0.4-0.6,0.5c-0.3,0.2-0.6,0.2-1.1,0.2c-0.6,0-1-0.2-1.5-0.6c-0.4-0.5-0.7-1.1-0.7-1.9
			s0.2-1.5,0.6-1.9c0.4-0.5,0.9-0.7,1.6-0.7C56,95.4,56.4,95.5,56.7,95.7z"/>
		<path class="st0" d="M66.9,95.5h0.7l1.7,4.8h-0.7l-0.5-1.4h-1.9l-0.5,1.4H65L66.9,95.5z M68,98.4l-0.7-2.1l-0.8,2.1H68z"/>
		<path class="st0" d="M77.2,98.8c0,0.3,0.1,0.5,0.2,0.7c0.2,0.3,0.6,0.5,1.1,0.5c0.2,0,0.5,0,0.6-0.1c0.4-0.1,0.6-0.4,0.6-0.7
			c0-0.3-0.1-0.5-0.2-0.6c-0.2-0.1-0.4-0.2-0.8-0.3L78,98.1c-0.4-0.1-0.7-0.2-0.9-0.3c-0.3-0.2-0.4-0.5-0.4-0.9s0.1-0.8,0.4-1.1
			c0.3-0.3,0.7-0.4,1.2-0.4s0.9,0.1,1.3,0.4c0.3,0.2,0.5,0.6,0.5,1.2h-0.6c0-0.3-0.1-0.5-0.2-0.6c-0.2-0.3-0.5-0.4-1-0.4
			c-0.4,0-0.6,0.1-0.8,0.2c-0.2,0.2-0.2,0.3-0.2,0.6c0,0.2,0.1,0.4,0.3,0.5c0.1,0.1,0.4,0.2,0.8,0.3l0.7,0.2
			c0.3,0.1,0.6,0.2,0.7,0.3c0.3,0.2,0.4,0.6,0.4,1c0,0.5-0.2,0.9-0.6,1.1s-0.8,0.3-1.3,0.3c-0.6,0-1-0.2-1.4-0.5
			c-0.3-0.3-0.5-0.7-0.5-1.2C76.4,98.8,77.2,98.8,77.2,98.8z"/>
		<path class="st0" d="M88,95.5h0.7v2h2.5v-2h0.7v4.8h-0.7V98h-2.5v2.3H88V95.5z"/>
		<path class="st0" d="M99.7,95.5h0.7v4.8h-0.7V95.5z"/>
		<path class="st0" d="M108,98.2h1.7v0.6H108V98.2z"/>
		<path class="st0" d="M120.7,95.5v0.6h-1.6v4.3h-0.7v-4.3h-1.6v-0.6H120.7z"/>
		<path class="st0" d="M132,96.2c0.3,0.4,0.5,1,0.5,1.6c0,0.7-0.2,1.3-0.6,1.8c-0.4,0.6-1,0.8-1.8,0.8c-0.7,0-1.3-0.2-1.8-0.7
			c-0.4-0.5-0.6-1.1-0.6-1.8c0-0.7,0.2-1.2,0.5-1.7c0.4-0.6,1-0.9,1.8-0.9C131,95.4,131.6,95.7,132,96.2z M131.4,99.3
			c0.3-0.4,0.4-0.9,0.4-1.4c0-0.6-0.1-1-0.4-1.4c-0.3-0.3-0.7-0.5-1.2-0.5s-0.9,0.2-1.2,0.5s-0.5,0.8-0.5,1.5c0,0.5,0.1,1,0.4,1.4
			c0.3,0.4,0.7,0.5,1.3,0.5S131.2,99.7,131.4,99.3z"/>
		<path class="st0" d="M140,95.5h0.6v2.4l2.4-2.4h0.9l-2.1,1.9l2.1,2.9H143l-1.7-2.4l-0.8,0.7v1.7H140V95.5z"/>
		<path class="st0" d="M150.9,95.5h0.8l1.4,2.3l1.4-2.3h0.8l-1.8,2.9v1.9h-0.7v-1.9L150.9,95.5z"/>
		<path class="st0" d="M166.5,96.2c0.3,0.4,0.5,1,0.5,1.6c0,0.7-0.2,1.3-0.5,1.8c-0.4,0.6-1,0.8-1.8,0.8c-0.7,0-1.3-0.2-1.8-0.7
			c-0.4-0.5-0.6-1.1-0.6-1.8c0-0.7,0.2-1.2,0.5-1.7c0.4-0.6,1-0.9,1.9-0.9C165.4,95.4,166.1,95.7,166.5,96.2z M165.9,99.3
			c0.3-0.4,0.4-0.9,0.4-1.4c0-0.6-0.2-1-0.4-1.4c-0.3-0.3-0.7-0.5-1.2-0.5s-0.9,0.2-1.2,0.5S163,97.3,163,98c0,0.5,0.1,1,0.4,1.4
			c0.3,0.4,0.7,0.5,1.3,0.5C165.2,99.9,165.6,99.7,165.9,99.3z"/>
		<path class="st0" d="M46.8,107.3h0.9l1.4,4.1l1.4-4.1h0.9v4.8h-0.6v-2.8c0-0.1,0-0.3,0-0.5s0-0.5,0-0.7l-1.4,4.1h-0.7l-1.4-4.1
			v0.1c0,0.1,0,0.3,0,0.5s0,0.4,0,0.5v2.8h-0.6L46.8,107.3L46.8,107.3z"/>
		<path class="st0" d="M60.5,107.3h0.7l1.8,4.8h-0.7l-0.5-1.4h-1.9l-0.5,1.4h-0.7L60.5,107.3z M61.6,110.2l-0.7-2.1l-0.8,2.1H61.6z"
			/>
		<path class="st0" d="M70.4,107.3H71v2.4l2.4-2.4h0.9l-2.1,1.9l2.1,2.9h-0.9l-1.7-2.4l-0.8,0.7v1.7h-0.6L70.4,107.3L70.4,107.3z"/>
		<path class="st0" d="M81.7,107.3h3.5v0.6h-2.9v1.5H85v0.6h-2.7v1.6h2.9v0.6h-3.6L81.7,107.3L81.7,107.3z"/>
		<path class="st0" d="M92.9,107.3h2.2c0.4,0,0.7,0.1,0.9,0.2c0.4,0.2,0.7,0.6,0.7,1.1c0,0.3-0.1,0.5-0.2,0.7s-0.3,0.3-0.5,0.4
			c0.2,0.1,0.3,0.2,0.4,0.3c0.1,0.1,0.2,0.3,0.2,0.6v0.6c0,0.2,0,0.3,0,0.4c0,0.2,0.1,0.3,0.2,0.3v0.1H96c0,0,0-0.1-0.1-0.2
			c0-0.1,0-0.2,0-0.4v-0.8c0-0.3-0.1-0.5-0.3-0.6c-0.1-0.1-0.3-0.1-0.6-0.1h-1.5v2.1h-0.7L92.9,107.3L92.9,107.3z M95,109.5
			c0.3,0,0.5-0.1,0.7-0.2s0.3-0.3,0.3-0.7c0-0.3-0.1-0.6-0.4-0.7c-0.1-0.1-0.3-0.1-0.5-0.1h-1.6v1.7C93.5,109.5,95,109.5,95,109.5z"
			/>
		<path class="st0" d="M104.9,110.6c0,0.3,0.1,0.5,0.2,0.7c0.2,0.3,0.6,0.5,1.1,0.5c0.2,0,0.5,0,0.6-0.1c0.4-0.1,0.6-0.4,0.6-0.7
			c0-0.3-0.1-0.5-0.2-0.6c-0.2-0.1-0.4-0.2-0.8-0.3l-0.6-0.1c-0.4-0.1-0.7-0.2-0.9-0.3c-0.3-0.2-0.4-0.5-0.4-0.9s0.1-0.8,0.4-1.1
			c0.3-0.3,0.7-0.4,1.2-0.4s0.9,0.1,1.3,0.4c0.3,0.2,0.5,0.6,0.5,1.2h-0.6c0-0.3-0.1-0.5-0.2-0.6c-0.2-0.3-0.5-0.4-1-0.4
			c-0.4,0-0.6,0.1-0.8,0.2c-0.2,0.2-0.2,0.4-0.2,0.6s0.1,0.4,0.3,0.5c0.1,0.1,0.4,0.2,0.8,0.3l0.7,0.2c0.3,0.1,0.6,0.2,0.7,0.3
			c0.3,0.2,0.4,0.6,0.4,1c0,0.5-0.2,0.9-0.6,1.1s-0.8,0.3-1.3,0.3c-0.6,0-1-0.2-1.4-0.5c-0.3-0.3-0.5-0.7-0.5-1.2L104.9,110.6
			L104.9,110.6z"/>
		<path class="st0" d="M124.4,107.3h2.2c0.4,0,0.7,0.1,0.9,0.2c0.4,0.2,0.7,0.6,0.7,1.1c0,0.3-0.1,0.5-0.2,0.7
			c-0.1,0.2-0.3,0.3-0.5,0.4c0.2,0.1,0.3,0.2,0.4,0.3c0.1,0.1,0.1,0.3,0.2,0.6v0.6c0,0.2,0,0.3,0,0.4c0,0.2,0.1,0.3,0.2,0.3v0.1
			h-0.8c0,0,0-0.1-0.1-0.2c0-0.1,0-0.2,0-0.4v-0.8c0-0.3-0.1-0.5-0.3-0.6c-0.1-0.1-0.3-0.1-0.6-0.1H125v2.1h-0.7L124.4,107.3
			L124.4,107.3z M126.5,109.5c0.3,0,0.5-0.1,0.7-0.2s0.3-0.3,0.3-0.7c0-0.3-0.1-0.6-0.4-0.7c-0.1-0.1-0.3-0.1-0.5-0.1H125v1.7
			C125,109.5,126.5,109.5,126.5,109.5z"/>
		<path class="st0" d="M139.9,108c0.3,0.4,0.5,1,0.5,1.6c0,0.7-0.2,1.3-0.5,1.8c-0.4,0.6-1,0.8-1.8,0.8c-0.7,0-1.3-0.2-1.8-0.7
			c-0.4-0.5-0.6-1.1-0.6-1.8c0-0.7,0.2-1.2,0.5-1.7c0.4-0.6,1-0.9,1.8-0.9C138.8,107.2,139.5,107.5,139.9,108z M139.3,111.1
			c0.3-0.4,0.4-0.9,0.4-1.4c0-0.6-0.1-1-0.4-1.4c-0.3-0.3-0.7-0.5-1.2-0.5s-0.9,0.2-1.2,0.5s-0.5,0.8-0.5,1.5c0,0.5,0.1,1,0.4,1.4
			c0.3,0.4,0.7,0.6,1.3,0.6C138.6,111.7,139,111.5,139.3,111.1z"/>
		<path class="st0" d="M148.2,107.3l0.9,3.9l1.1-3.9h0.7l1.1,3.9l0.9-3.9h0.7l-1.3,4.8h-0.7l-1.1-4l-1.1,4h-0.7l-1.3-4.8H148.2z"/>
	</g>
</g>
<rect x="32.8" y="124.5" class="st1" width="13.3" height="19.5"/>
<rect x="155" y="124.5" class="st1" width="13.3" height="19.5"/>
<rect x="7.9" y="114.8" class="st1" width="20.2" height="29.2"/>
<rect x="172.1" y="114.8" class="st1" width="20.2" height="29.2"/>
</svg>
