<svg id="图层_1" data-name="图层 1" xmlns="http://www.w3.org/2000/svg" viewBox="0 0 141.67 69.06"><defs><style>.cls-1{fill:#fff;}.cls-2{fill:none;stroke:#fff;stroke-miterlimit:10;stroke-width:0.25px;}</style></defs><title>logoW</title><path class="cls-1" d="M45.67,37.72l0-.12c.13,0,.25,0,.38,0a3.66,3.66,0,0,1,3.35,2.32l0,.59a4,4,0,0,1-.09.94l-.5.38,2.47-.06a8.64,8.64,0,0,0,1.63-5.39l-.06,0a11.79,11.79,0,0,0-3,.28,19.15,19.15,0,0,0-3.1.88c-.06,0-.09.06-.16.06a3.13,3.13,0,0,1-1.25-.47c-.19-.12-1-.6-1.22-.72a1.21,1.21,0,0,1-.34-.47l-.19-.09.06-.13a.25.25,0,0,0,.16-.22c-.09-.22-.31-.69-.41-.91a1.47,1.47,0,0,1-.09-.53,8.3,8.3,0,0,0-.09-1.63c-.25.5-1.6.72-2.57.88a1.42,1.42,0,0,0-.25.06l-.13.69.09.09.25-.06.19-.12a3,3,0,0,1,1.5.22c.88.28.94.28.94.81,0,.19-.44.63-.63.72a7.18,7.18,0,0,1-1.72.5,3.21,3.21,0,0,0-.85.25v.09a4.15,4.15,0,0,0-.16.47c0,.06,0,.09.13.22.75-.12.81-.12,1.63-.22.06,0,.31-.13.34-.13a2,2,0,0,1,1.69,1.1.44.44,0,0,0,0,.28c.13.22.13.25.13.31a1.07,1.07,0,0,1-.16.44,5.42,5.42,0,0,1-1.35.31,5,5,0,0,0,.41.69,2.37,2.37,0,0,1,.28.28,14.66,14.66,0,0,1,.19,1.47,11.1,11.1,0,0,1-.6,2.6,1.78,1.78,0,0,1-1.25.72.92.92,0,0,1-.88-.66c0-.12-.5-1.72-.53-2.1.16,0,.19-.06.25-.22A7.38,7.38,0,0,0,41,39.44c-.59.09-3.2.44-3.73.5-.06,0-1.38.34-1.38.34a1.33,1.33,0,0,1-.34-.06c-.16,0-.31.06-.31.38s0,1,0,1.13L35,43a4.34,4.34,0,0,1-.85.85l-.81,0a6.52,6.52,0,0,1-1.5-2.91v-.22l0-.13.25-.25c0-.12.13-.78.16-.94s.16-.53.16-.63l.09-3.29L32.7,33a6.63,6.63,0,0,0-1.32,1.1,6.43,6.43,0,0,1-3.32,1.66,1,1,0,0,1-.63-.25l.09-.28.22-.16,1.63-1.91c.22-.28,1-1.22,1-1.25l.81-1.32,1.38-2.07a37.39,37.39,0,0,0,1.75-4c0-.06.22-.25.25-.41a3.29,3.29,0,0,1-.91-.13,7.92,7.92,0,0,0-.5,1.6,4.19,4.19,0,0,1-1.57,2.22,1.34,1.34,0,0,1-.66.25c-.69,0-1-1.22-1.13-2a4.91,4.91,0,0,1-.16-.53c0-.12.06-.56.06-.66.09-.28.19-.31.53-.47.5-.19,1.19-2.16,1.19-2.63a6.76,6.76,0,0,1-.53-1.07,4.25,4.25,0,0,1,2.29,1.13A5,5,0,0,0,35,21.74a16.43,16.43,0,0,0,.38-3,4.64,4.64,0,0,1,0-.69l0-.09a4.48,4.48,0,0,1-1-1.72l.22,0,.06-.12a11.7,11.7,0,0,1,3.38,1.16c.91.78,1,.88,1.1,1.13a4.51,4.51,0,0,1,.09.72c0,.19-.47,1.79-.56,2.13a3.28,3.28,0,0,0,1.38-.13l0-.22a4.63,4.63,0,0,1,1.1-.19c.66,0,.94.28,1.79,1.1.13.09.44.25.63.38a7.91,7.91,0,0,0,1.13-1.44L46.23,18a1.55,1.55,0,0,0,.09-.41s-.69-1.06-.88-1.35l0-.12c.09,0,.94.16,1.07.16s1-.22,1.16-.22a9.33,9.33,0,0,1,1.47.75c.72.34.75.41,1,.88a5.08,5.08,0,0,1,.31.56c0,.31-1.72,2-1.82,2.19.38,0,.56-.13.88-.13a1.74,1.74,0,0,0,.81-.19V20l.31,0a.47.47,0,0,1,.19,0,.74.74,0,0,0,.38-.31h.5l2.66.88c.13,0,1.47.59,1.47,1.41,0,.38-.09.47-.44.66a2.28,2.28,0,0,1-.5.66,21.87,21.87,0,0,0-.34,2.6,12.26,12.26,0,0,1-.72,2.57,2.1,2.1,0,0,0-.28.6,1.18,1.18,0,0,0-.69.44,1.12,1.12,0,0,1-.72.25,1.54,1.54,0,0,1-1.22-.31,1.92,1.92,0,0,0-.44-.44s-.12,0-.19,0a12.16,12.16,0,0,0-3.1.63,1.2,1.2,0,0,0-.63-.06c0,.16-.09.88-.09,1a.9.9,0,0,0,.19.44l3.51-.38,3.23-.47c.09,0,.47-.13.56-.13a.57.57,0,0,0,.47-.12l.13,0,0-.06a1,1,0,0,0,.91-.22c.13,0,.25,0,.34,0a8.3,8.3,0,0,1,.91.47c.91.34,1.57.56,1.57,1.28,0,1.1-1.28,1.22-2,1.22-.22,0-1.13-.06-1.32-.06a7.44,7.44,0,0,0-1,.06l-2.63.31c-.47.06-2.76.25-3,.34s-.63.19-.85.25a3.22,3.22,0,0,1-.94-.25l-.09.85a.88.88,0,0,0-.25.81l3.29-.47a28.86,28.86,0,0,1,2.91-.31c.28,0,.34-.06.88-.44a1.22,1.22,0,0,1,.44-.19c.13,0,1.91.94,2,1,.53.28,1.63.78,1.63,1.41a3.25,3.25,0,0,1-.66,1.47,3,3,0,0,1-.28,1.25,6.16,6.16,0,0,1-.22.59l-.63,2.1a16.14,16.14,0,0,1-.88,1.91,13.7,13.7,0,0,1-1.79,2c-.09,0-.53.25-.63.28a4.47,4.47,0,0,1-.72.09c-1,0-1.35-1-1.5-1.54a2.08,2.08,0,0,0-1.16-1.38c-.69-.31-.75-.31-.72-.5-1-.13-1.35-1.13-1.69-2.38a7.86,7.86,0,0,0-1-1.94ZM35.45,38a7.79,7.79,0,0,1,.85-.09l.78-.19a3.58,3.58,0,0,0,0-1,2.57,2.57,0,0,1-.56.09,6.41,6.41,0,0,1-.88-.09c-.28.13-.31.13-.31.31,0,0,0,.88,0,.94Zm.28-2.88.16-.06a3,3,0,0,0,1.29-.25c0-.12.06-.66.06-.75s0-.09-.09-.19-.85.16-.94.16a2,2,0,0,1-.34-.09l-.47.16,0,.09s.06.09.06.16v.78Zm-.31-3.79v.13c.13.19.13.22.13.25s-.13.5-.13.53.19.28.38.28,1.35-.22,1.41-.47c0,0,.09-.91.09-1s-.06-.19-.16-.19-.72.19-.85.19a5.24,5.24,0,0,0-.69-.09.26.26,0,0,0-.09.25Zm.41-2.51c1.1-.09,1.22-.12,1.25-.41s.06-1.53.09-1.79a5.15,5.15,0,0,0,.19-.66.2.2,0,0,0-.16-.16c-.13,0-.28.31-.34.38l-1.32,2.29Zm1.88-3.48,1,.22a2.87,2.87,0,0,1,.44-.78,2.35,2.35,0,0,0,.44-1.63c-1.16-.06-2,.28-2.38,2.22Zm2.16,2.69-.19.31A2.75,2.75,0,0,0,41,27.6c.41-.09.6,0,1.35.38a4.58,4.58,0,0,1,.78.31,2.28,2.28,0,0,1,.31.44l.13-1.28V24.81c0-.28,0-.31-.06-.44l-.09,0a9.9,9.9,0,0,1-.94.66L41.31,25a1.54,1.54,0,0,1-.47.09,1.43,1.43,0,0,0-.94.25,4,4,0,0,1-.53.25v.09c.38.13,1.44.47,1.44,1.1a5,5,0,0,1-.56.88Zm.81,3.07a1.92,1.92,0,0,1,.53-.09,4.27,4.27,0,0,1,1.82.5,2.65,2.65,0,0,0,.19.53,22.78,22.78,0,0,0,.22-2.88c-.19.13-.19.13-.44.53a4.2,4.2,0,0,1-1.19.44,4.68,4.68,0,0,0-1.47.19A1,1,0,0,1,40.68,31.14ZM46.54,42.7a7.78,7.78,0,0,1-.31.75c-.19.28-.5.81-1.06.81-1,0-1.47-2.32-1.47-2.44s.34-.91.34-1.07.06-.91.06-1.07-.28-.81-.28-1,.16-.28.41-.28,1,.6,1,.81C46.14,39.82,46.54,40.63,46.54,42.7Zm-1.1-20.39a.67.67,0,0,0-.19.22,2.94,2.94,0,0,0,.28.22c.13.16.63.94.72,1.13,1.29-.22,1.44-.25,1.69-.66a4.68,4.68,0,0,1,.66-.06c.34,0,1.72.5,2,.56a9.36,9.36,0,0,0,.06-1.79,8.11,8.11,0,0,0-1.25.25c-.19,0-1,.06-1.19.13a2.58,2.58,0,0,1-.78.22,5.43,5.43,0,0,0-1.1.13Zm1.16,4.89c.34,0,2.82-.5,2.91-.5a6.82,6.82,0,0,0,.81,0c.28-.19.28-.81.28-1.32-.19,0-1.1.13-1.28.13l-2.51.41-.25.16,0,.56Zm4.54,10.24A5.63,5.63,0,0,1,52,39.19a2,2,0,0,1-.28,1l-.75.47c-.78,0-.91-.31-1.28-1.44-.09-.22-.56-1.16-.81-1.75,0,0-.19-.12-.19-.16A2.82,2.82,0,0,1,50,36.81,4.16,4.16,0,0,1,51.15,37.44Z"/><path class="cls-1" d="M81.05,39.13c.16-.44.41-1.6.6-2.38l.5-2.07.13-.53L83,30.42a7.8,7.8,0,0,0,.22-.81c0-.28.25-1.5.28-1.75l.34-2.57c0-.28.09-1.63.09-1.94s-.06-.25-.69-.81a6.84,6.84,0,0,1-1.35-1.82l.16-.09,1.5.06c.16,0,.88-.12,1-.12L88,20.21c.16,0,.91-.06,1.06-.06s.85-.16,1-.16l2.76-.12c.06-.09,0-.12,0-.28A12.94,12.94,0,0,1,92.64,18,2.89,2.89,0,0,1,91,16.51c0-.06-.19-.25-.22-.28.38-.06,1.1-.22,1.44-.31.09,0,.53-.34.6-.34l.31.06a2.47,2.47,0,0,1,1.47.38,25.86,25.86,0,0,1,2.63,1.19c.66.6.72.66.72,1.13,0,.09-.38,1.07-.38,1.25l3.48-.12c.19,0,1.22,0,1.6-.47.25,0,.31-.06.91-.41.09,0,.38-.06.56-.09a10.87,10.87,0,0,1,2.76,1.41,6.14,6.14,0,0,1,.38.6,1.49,1.49,0,0,1,.13.63c0,.22-.44.69-.47.72a5.58,5.58,0,0,1-1.44.25c-.16,0-.72-.09-.85-.09a7.94,7.94,0,0,1-.88,0c-.19,0-1-.19-1.16-.19-.34,0-1.82.06-2.07,0a5.6,5.6,0,0,1-.81.13c-.13,0-.72,0-.85.06.25.75.28.81.72.81a2.7,2.7,0,0,0,2-.53l0-.09a.23.23,0,0,1,.19-.09,17,17,0,0,1,2.32,1c.59.28,1.72.78,1.72,1.69,0,.6-.19.66-1,1a5,5,0,0,0-.81.81c0,.06.06.31.06.38,0,.41-.78.72-1.16.72a2.94,2.94,0,0,0-1.07.16c-1.28-.06-2.94-.09-3.29-.09s-1.94.09-2.69.19l-3.13.38-1.5.22a12.18,12.18,0,0,1-1.5.5c-.06,0-.41-.09-.47-.09a7.33,7.33,0,0,1-1.25-.75c-.69-.56-.75-.63-1-.72a14,14,0,0,0-.28,2.26l.53-.13c.31,0,4-.47,4.64-.47l.19-.06,2.63-.28.22.06,2.85-.38c.22,0,1.6,0,1.91,0a18,18,0,0,0,2.91-.12.42.42,0,0,1,.16-.09c.09,0,.5-.28.53-.28a1.4,1.4,0,0,0,.85-.19,7.15,7.15,0,0,1,.85-.06c.38,0,.47.09.66.44.28.13,1.41.91,1.66,1.06.66.38,1.35.78,1.35,1.6a6,6,0,0,1-.09.69c0,.69-.41,1.41-1,1.41-.06,0-.53-.06-.88-.12a2.54,2.54,0,0,0-1.22-.09,3.71,3.71,0,0,1,1,1.5,1.79,1.79,0,0,1-.06.41c-.09.09-.09.09-.12.25a2.05,2.05,0,0,1-.41.85c-.16,0-.69.25-.81.25-.88,0-1.47-.69-2.13-1.44S101.6,33,101,32.14A4,4,0,0,0,99.76,31c.13,0,.91-.16,1-.16a6.76,6.76,0,0,1,.85.28c.25,0,1.19.28,1.38.31a2.08,2.08,0,0,0,.47-1.1,1.41,1.41,0,0,0-.75-.16c-.31,0-1.66.13-1.91.13-.41,0-2.19.09-2.54.09-1.38,0-1.53,0-1.94.22.31.09.34.16.75.56a1,1,0,0,0,.81.38,2.79,2.79,0,0,0,.47-.06l.44.22a.34.34,0,0,1,.09.19,1.25,1.25,0,0,1-.56,1.25c-.47.41-.72.6-1,.6-.91,0-1-.13-1.44-.53-.09-.09-.66-.5-.66-.63s-.38-1.72-.41-1.85a10.88,10.88,0,0,0-2.32.28,2.77,2.77,0,0,0,.85.53,2.86,2.86,0,0,1,.53,1.16,4.08,4.08,0,0,0,3,1.5c.34,0,1.88-.09,2.19-.06a3,3,0,0,0-.34-1.41l.09-.06,0-.25a8.58,8.58,0,0,1,.85.63s.85.34,1,.44c.47.25,1.79,1.1,1.79,1.72a1.68,1.68,0,0,1-.12.56l.09.25a1.66,1.66,0,0,0-.63.25c-.06,0-.31.22-.44.22l-1.63,0a3.84,3.84,0,0,0-.69,0v.06l.16.09c.81.28,2.63,1.19,2.63,2.13a.59.59,0,0,1-.16.41c-.19,0-1,.06-1.16.09a.86.86,0,0,0-.47.66,1.06,1.06,0,0,0-.47.63s1.66.44,1.85.5l2.41.53c.34.06,2,.34,2.29.44.78.22,3.76,1,3.76,1.57,0,.13-.44.6-1.5.88-.66.19-5.23.72-5.64.72A8.47,8.47,0,0,1,99.66,44l-2.07-.78S97,43,97,43a11,11,0,0,0-1.41.94c-.38.13-2,.75-2.32.78s-1.69.22-2,.22A11.29,11.29,0,0,1,88,44.67v-.06l.06,0,0-.06L88,44.42c1.66-.25,2.94-1,5.33-2.88l0-.06c-.06,0-1.75-.81-1.82-.81a6.69,6.69,0,0,1-.94.72l-2.29,1.69a18.5,18.5,0,0,1-2.79,1.5c-.09,0-1.13.16-1.32.22s-.22,0-.34,0a6,6,0,0,1-1.5-.53l0-.09-.16-.09V44a3.11,3.11,0,0,0,1.88-.88c.25-.22,1.41-1.13,1.63-1.35l1.54-1.41a21.71,21.71,0,0,0,3.48-3.85,4.57,4.57,0,0,1-.41-.63c-.06-.09-.19-.12-.31-.22v-.06c.28-.22.31-.22.88-.25.09-.13.34-.16.75-.22a9.81,9.81,0,0,1,1,.72h.13l.13.06-.06.19c.22.09,1,.81,1.19.94a1.34,1.34,0,0,0,.38.06,6.42,6.42,0,0,0,2.94-.44l.13-.12a.8.8,0,0,0-.34-.09A8.57,8.57,0,0,1,94,35.84a6.89,6.89,0,0,1-2.38-2.22c-.25-.85-.6-2.1-1.16-2.1a2.64,2.64,0,0,0-1.38.56,16.17,16.17,0,0,1,1,2.1c0,.13-.12.78-.12.91-.19.19-.85,1.1-1,1.25l-.19,0c-.25.34-.66.91-1.19.91-.81,0-1-.25-1.19-.78a4.5,4.5,0,0,1-.31-2c0-.06,0-.09.09-.22l.22,0a9.89,9.89,0,0,0,1.19-2c0-.19-1.19-.63-1.41-.75-.09.44-.47,2.44-.59,2.85a10.78,10.78,0,0,0-.75,2.76,1.94,1.94,0,0,1-.28.78A13.38,13.38,0,0,1,83.22,41c-.13,0-.34.56-.38.66a14.44,14.44,0,0,1-1.38,1.63c-.34.19-.88.56-1.22.72-.12,0-1.35.34-1.53.41l0-.06a14.24,14.24,0,0,0,1.44-2.6Zm8.36-15.38.72-.06s.06-.09.06-.16c0-.5,0-.53-.25-.78a.8.8,0,0,0-.41-.19c-.16,0-2.63.5-2.76.5a1,1,0,0,0-.66.13c0,.06-.06.09,0,.16s.59.56.69.66Zm.25,3c.09,0,.53-.16.63-.16a1.18,1.18,0,0,1,.34,0,.67.67,0,0,0-.16-.6,1.42,1.42,0,0,1-.34.09,7.56,7.56,0,0,1-2.85-1.38l-.16-.06a1.59,1.59,0,0,1,.06.28S87,25.81,87,26a6.34,6.34,0,0,0-.09,1.1ZM96,23a1,1,0,0,0,.09-.88,1.1,1.1,0,0,0-.34-.13c-.06,0-.6.13-.63.13a14.62,14.62,0,0,0-2.91.34s0,0,0,.09,0,.06.09.16.91.44,1,.56C94.27,23.18,94.46,23.15,96,23Zm-.85,16.7c.09,0,.25,0,.31-.09a8.2,8.2,0,0,1,.6-.85c-.22,0-1.07,0-1.22,0s-1-.34-1.13-.38c-.41.22-.38.38-.31.63A16.09,16.09,0,0,0,95.12,39.66Zm.47-13.56c.19-.47.25-.63.19-.88a3,3,0,0,0-.38-.06,7,7,0,0,0-1.44.41,2.37,2.37,0,0,0-.19.47s0,0,.06.09A10.78,10.78,0,0,0,95.21,26Zm3.23-.22a12.7,12.7,0,0,0,1.57,0,.25.25,0,0,0,.13-.25,4.68,4.68,0,0,0,.06-.66l-1.5,0c-.25.06-.31.41-.38.94Z"/><path class="cls-1" d="M60,26.09h.14a.44.44,0,0,0,.18,0,3.65,3.65,0,0,0,.82-.47,1.9,1.9,0,0,1,.79-.39.89.89,0,0,1,.38.13l.59.32.66.4.39.24.2,0a.59.59,0,0,1,.24.09,1.75,1.75,0,0,1,.26.25,2.67,2.67,0,0,1,.25.37.3.3,0,0,1,0,.16.18.18,0,0,1,0,.13.15.15,0,0,1-.13,0,.47.47,0,0,1-.2-.09L63,26.18c-.59-.42-.93-.62-1-.6a1.7,1.7,0,0,0-.68.48l-.54.52a.23.23,0,0,1-.23,0,.88.88,0,0,1-.26-.17,1.19,1.19,0,0,1-.2-.23Q60,26.09,60,26.09Z"/><path class="cls-1" d="M62.25,35.06a1.42,1.42,0,0,1,.25.18.27.27,0,0,1,.1.18q0,.09,0,1t0,1a1.12,1.12,0,0,1-.07.24c0,.08-.08.11-.14.08a.7.7,0,0,1-.29-.27.6.6,0,0,1-.12-.42q0-.33,0-.74c0-.27,0-.55,0-.84a.73.73,0,0,0,0-.12l0-.1A6.5,6.5,0,0,1,61,36a2.41,2.41,0,0,1-1.06.33,5.43,5.43,0,0,0,1.49-1.19,6.17,6.17,0,0,0,1.08-1.32,1,1,0,0,0,.07-.23.23.23,0,0,0-.06-.15s0-.06.06-.06a1.28,1.28,0,0,1,.3.08,1.88,1.88,0,0,1,.33.16c.1.06.14.11.14.16a.79.79,0,0,1-.3.51l-.57.54-.1.1Z"/><path class="cls-1" d="M72.18,27.17l.2,0a.94.94,0,0,0,.35,0l.55-.17a5,5,0,0,1,.65-.17l.21,0,.41-.1v-.21a.86.86,0,0,0,0-.29.81.81,0,0,0-.16-.18s0,0,.09,0l.31.06a1.7,1.7,0,0,1,.32.11c.09,0,.13.08.13.13v.28l.29,0h.26a1.67,1.67,0,0,0,.36-.06.62.62,0,0,1,.21,0,1.65,1.65,0,0,1,.36.12,1.26,1.26,0,0,1,.29.17.12.12,0,0,1,0,.07.13.13,0,0,1,0,.09.12.12,0,0,1-.08.06h-.15l-.54-.09a2.47,2.47,0,0,0-.41,0h-.38a1.31,1.31,0,0,0-.28,0,7.32,7.32,0,0,1-.2.9,4.46,4.46,0,0,1-.23.66,2.83,2.83,0,0,1-.33.51.93.93,0,0,1-.43.26,2.71,2.71,0,0,0,.39-1A9.15,9.15,0,0,0,74.55,27l-.21,0-.2.06a5.49,5.49,0,0,0-.6.26,5.53,5.53,0,0,1-.7.29.38.38,0,0,1-.23,0,1.29,1.29,0,0,1-.26-.16,1.2,1.2,0,0,1-.18-.17S72.14,27.17,72.18,27.17Zm2.49-2.26a1.13,1.13,0,0,1,.51.16q.3.16.27.25t-.78.51a2.36,2.36,0,0,1-1.25.25,1.93,1.93,0,0,0,.5-.23,3.6,3.6,0,0,0,.39-.29l.26-.25c.1-.1.15-.17.15-.2a.26.26,0,0,0,0-.14S74.63,24.91,74.67,24.91Z"/><path class="cls-1" d="M72.26,37.23l.18.15a.25.25,0,0,0,.2,0,6.76,6.76,0,0,0,1.46-.87A4.61,4.61,0,0,0,75.49,35a1.43,1.43,0,0,1-.19.75,3.47,3.47,0,0,1-.53.74,6,6,0,0,1-.65.61q-.33.26-.55.41a1.79,1.79,0,0,0-.49.37.77.77,0,0,1-.32.25.31.31,0,0,1-.28-.14,1.36,1.36,0,0,1-.22-.38,1.15,1.15,0,0,1-.09-.35C72.16,37.2,72.19,37.18,72.26,37.23Zm0-2.12c0-.07.07-.11.3-.13a1.25,1.25,0,0,1,.57.07.49.49,0,0,1,.22.17.2.2,0,0,1,0,.21.32.32,0,0,1-.24.09l-.23,0a.62.62,0,0,0-.2,0l-.22.12a.59.59,0,0,0,.14-.21c0-.07,0-.12,0-.15s-.09-.08-.2-.12S72.23,35.14,72.23,35.11Z"/><path class="cls-1" d="M27.15,50.45h.58v2.19h2.49V50.45h.58v5.16h-.58V53.14H27.74v2.47h-.58Z"/><path class="cls-1" d="M44.08,50.45H47v.49H44.67v1.7h2v.49h-2v2H47.1v.49h-3Z"/><path class="cls-1" d="M64.19,56.78a2.18,2.18,0,0,1-.71.11,1.91,1.91,0,0,1-1.85-1.21c-1.12-.15-1.89-1.15-1.89-2.67s.9-2.65,2.18-2.65,2.19,1,2.19,2.65-.75,2.5-1.85,2.67a1.35,1.35,0,0,0,1.29.72,2,2,0,0,0,.54-.07Zm-2.28-1.56c1,0,1.59-.86,1.59-2.21s-.63-2.14-1.59-2.14-1.58.82-1.58,2.14S61,55.22,61.91,55.22Z"/><path class="cls-1" d="M77.07,50.45h.58v5.16h-.58Z"/><path class="cls-1" d="M90.93,50.45h.6l2,3.34L94,54.85h0c0-.51-.08-1.08-.08-1.61V50.45h.56v5.16H94L92,52.27l-.56-1.06h0c0,.51.07,1,.07,1.57v2.83h-.55Z"/><path class="cls-1" d="M107.53,53a2.38,2.38,0,0,1,2.34-2.67,2,2,0,0,1,1.47.63l-.32.38a1.47,1.47,0,0,0-1.13-.49c-1.07,0-1.75.82-1.75,2.14s.63,2.17,1.75,2.17a1.46,1.46,0,0,0,1-.32V53.45h-1.12V53h1.66v2.14a2.17,2.17,0,0,1-1.58.59C108.47,55.7,107.53,54.7,107.53,53Z"/><path class="cls-1" d="M42.64,60.61h.43c.56,0,.84.35.84.91s-.28.92-.84.92h-.44Zm.42,1.71c.48,0,.7-.32.7-.8s-.21-.79-.7-.79h-.27v1.58Z"/><path class="cls-1" d="M47.09,61.82h-.71l-.21.62H46l.64-1.83h.16l.64,1.83H47.3Zm0-.12-.11-.33c-.08-.21-.14-.41-.2-.63h0c-.06.22-.13.42-.2.63l-.11.33Z"/><path class="cls-1" d="M49.7,60.61h.15v1.7h.84v.13h-1Z"/><path class="cls-1" d="M53,60.61h.15v1.83H53Z"/><path class="cls-1" d="M55.46,61.68h.62v.12h-.62Z"/><path class="cls-1" d="M58.53,61.7,58,60.61h.16l.27.56.19.4h0c.07-.14.14-.26.2-.4l.27-.56h.16l-.55,1.1v.74h-.15Z"/><path class="cls-1" d="M61.43,61.72V60.61h.15v1.11c0,.48.22.62.48.62s.49-.14.49-.62V60.61h.14v1.12c0,.58-.3.75-.63.75S61.43,62.3,61.43,61.72Z"/><path class="cls-1" d="M65.17,60.61h.16l.75,1.26.2.37h0c0-.18,0-.37,0-.54V60.61h.14v1.83h-.16l-.75-1.26-.21-.37h0c0,.18,0,.35,0,.53v1.1h-.14Z"/><path class="cls-1" d="M68.9,60.61h.16l.75,1.26.2.37h0c0-.18,0-.37,0-.54V60.61h.14v1.83H70l-.75-1.26L69,60.81h0c0,.18,0,.35,0,.53v1.1H68.9Z"/><path class="cls-1" d="M73.47,61.82h-.71l-.21.62h-.15L73,60.61h.16l.64,1.83h-.16Zm0-.12-.11-.33c-.08-.21-.14-.41-.2-.63h0c-.06.22-.13.42-.2.63l-.11.33Z"/><path class="cls-1" d="M76.07,60.61h.16L77,61.87l.2.37h0c0-.18,0-.37,0-.54V60.61h.14v1.83h-.16l-.75-1.26-.21-.37h0c0,.18,0,.35,0,.53v1.1h-.14Z"/><path class="cls-1" d="M79.66,61.68h.62v.12h-.62Z"/><path class="cls-1" d="M82.49,61.52c0-.59.32-.95.79-.95a.63.63,0,0,1,.48.22l-.08.1a.52.52,0,0,0-.4-.18c-.39,0-.63.31-.63.81s.24.82.62.82a.59.59,0,0,0,.46-.22l.09.1a.69.69,0,0,1-.55.26C82.81,62.47,82.49,62.11,82.49,61.52Z"/><path class="cls-1" d="M86.14,60.61h.15v.79h1v-.79h.15v1.83h-.15v-.91h-1v.91h-.15Z"/><path class="cls-1" d="M89.89,60.61H90v1.83h-.15Z"/><path class="cls-1" d="M92.53,60.61h.16l.75,1.26.2.37h0c0-.18,0-.37,0-.54V60.61h.14v1.83h-.16l-.75-1.26-.21-.37h0c0,.18,0,.35,0,.53v1.1h-.14Z"/><path class="cls-1" d="M97.1,61.82h-.71l-.21.62H96l.64-1.83h.16l.64,1.83H97.3Zm0-.12-.11-.33c-.08-.21-.14-.41-.2-.63h0c-.06.22-.13.42-.2.63l-.11.33Z"/><polygon class="cls-2" points="10.46 11.62 2.46 14.12 12.1 16.1 24.21 43.37 23.84 21.51 10.46 11.62"/><polygon class="cls-2" points="111.11 23.25 111.11 45.3 139.12 11.62 111.11 23.25"/><polyline class="cls-2" points="47.19 20.49 68.25 4.11 89.32 20.49"/><line class="cls-2" x1="68.25" y1="4.11" x2="68.25" y2="45.3"/><line class="cls-2" x1="14.89" y1="14.76" x2="18.45" y2="30.29"/><line class="cls-2" x1="18.45" y1="30.29" x2="23.82" y2="21.37"/><line class="cls-2" x1="139.11" y1="11.48" x2="118.44" y2="24.56"/><line class="cls-2" x1="111.1" y1="45.15" x2="118.44" y2="24.56"/><line class="cls-2" x1="111.1" y1="23.1" x2="118.44" y2="24.56"/></svg>