<svg id="图层_1" data-name="图层 1" xmlns="http://www.w3.org/2000/svg" viewBox="0 0 141.67 73.67"><defs><style>.cls-1{font-size:7.72px;font-family:CRPCandGRyuurei-M, CRPCandGRyuurei-M;}.cls-2{font-size:7.05px;font-family:NotoSansHans-DemiLight-GBpc-EUC-H, Noto Sans S Chinese;letter-spacing:1.68em;}.cls-3{font-size:2.51px;font-family:NotoSansHans-Light-GBpc-EUC-H, Noto Sans S Chinese;letter-spacing:0.77em;}.cls-4{letter-spacing:0.78em;}.cls-5{letter-spacing:0.71em;}.cls-6{letter-spacing:0.77em;}.cls-7{fill:none;stroke:#000;stroke-miterlimit:10;stroke-width:0.25px;}</style></defs><title>logoB</title><path d="M45.67,44.27l0-.12c.13,0,.25,0,.38,0a3.66,3.66,0,0,1,3.35,2.32l0,.59a4,4,0,0,1-.09.94l-.5.38,2.47-.06a8.64,8.64,0,0,0,1.63-5.39l-.06,0a11.79,11.79,0,0,0-3,.28,19.15,19.15,0,0,0-3.1.88c-.06,0-.09.06-.16.06a3.13,3.13,0,0,1-1.25-.47c-.19-.12-1-.6-1.22-.72a1.21,1.21,0,0,1-.34-.47l-.19-.09.06-.13a.25.25,0,0,0,.16-.22c-.09-.22-.31-.69-.41-.91a1.47,1.47,0,0,1-.09-.53,8.3,8.3,0,0,0-.09-1.63c-.25.5-1.6.72-2.57.88a1.42,1.42,0,0,0-.25.06l-.13.69.09.09.25-.06.19-.12a3,3,0,0,1,1.5.22c.88.28.94.28.94.81,0,.19-.44.63-.63.72a7.18,7.18,0,0,1-1.72.5A3.21,3.21,0,0,0,40,43V43a4.15,4.15,0,0,0-.16.47c0,.06,0,.09.13.22.75-.12.81-.12,1.63-.22.06,0,.31-.13.34-.13a2,2,0,0,1,1.69,1.1.44.44,0,0,0,0,.28c.13.22.13.25.13.31a1.07,1.07,0,0,1-.16.44,5.42,5.42,0,0,1-1.35.31,5,5,0,0,0,.41.69,2.37,2.37,0,0,1,.28.28,14.66,14.66,0,0,1,.19,1.47,11.1,11.1,0,0,1-.6,2.6,1.78,1.78,0,0,1-1.25.72.92.92,0,0,1-.88-.66c0-.12-.5-1.72-.53-2.1.16,0,.19-.06.25-.22A7.38,7.38,0,0,0,41,46c-.59.09-3.2.44-3.73.5-.06,0-1.38.34-1.38.34a1.33,1.33,0,0,1-.34-.06c-.16,0-.31.06-.31.38s0,1,0,1.13L35,49.5a4.34,4.34,0,0,1-.85.85l-.81,0a6.52,6.52,0,0,1-1.5-2.91v-.22l0-.13.25-.25c0-.12.13-.78.16-.94s.16-.53.16-.63L32.54,42l.16-2.41a6.63,6.63,0,0,0-1.32,1.1,6.43,6.43,0,0,1-3.32,1.66,1,1,0,0,1-.63-.25l.09-.28.22-.16,1.63-1.91c.22-.28,1-1.22,1-1.25l.81-1.32,1.38-2.07a37.39,37.39,0,0,0,1.75-4c0-.06.22-.25.25-.41a3.29,3.29,0,0,1-.91-.13,7.92,7.92,0,0,0-.5,1.6,4.19,4.19,0,0,1-1.57,2.22,1.34,1.34,0,0,1-.66.25c-.69,0-1-1.22-1.13-2a4.91,4.91,0,0,1-.16-.53c0-.12.06-.56.06-.66.09-.28.19-.31.53-.47.5-.19,1.19-2.16,1.19-2.63a6.76,6.76,0,0,1-.53-1.07,4.25,4.25,0,0,1,2.29,1.13A5,5,0,0,0,35,28.29a16.43,16.43,0,0,0,.38-3,4.64,4.64,0,0,1,0-.69l0-.09a4.48,4.48,0,0,1-1-1.72l.22,0,.06-.12a11.7,11.7,0,0,1,3.38,1.16c.91.78,1,.88,1.1,1.13a4.51,4.51,0,0,1,.09.72c0,.19-.47,1.79-.56,2.13a3.28,3.28,0,0,0,1.38-.13l0-.22a4.63,4.63,0,0,1,1.1-.19c.66,0,.94.28,1.79,1.1.13.09.44.25.63.38a7.91,7.91,0,0,0,1.13-1.44l1.5-2.76a1.55,1.55,0,0,0,.09-.41s-.69-1.06-.88-1.35l0-.12c.09,0,.94.16,1.07.16s1-.22,1.16-.22a9.33,9.33,0,0,1,1.47.75c.72.34.75.41,1,.88a5.08,5.08,0,0,1,.31.56c0,.31-1.72,2-1.82,2.19.38,0,.56-.13.88-.13a1.74,1.74,0,0,0,.81-.19v-.16l.31,0a.47.47,0,0,1,.19,0,.74.74,0,0,0,.38-.31h.5l2.66.88c.13,0,1.47.59,1.47,1.41,0,.38-.09.47-.44.66a2.28,2.28,0,0,1-.5.66,21.87,21.87,0,0,0-.34,2.6A12.26,12.26,0,0,1,53.84,35a2.1,2.1,0,0,0-.28.6,1.18,1.18,0,0,0-.69.44,1.12,1.12,0,0,1-.72.25A1.54,1.54,0,0,1,50.93,36a1.92,1.92,0,0,0-.44-.44s-.12,0-.19,0a12.16,12.16,0,0,0-3.1.63,1.2,1.2,0,0,0-.63-.06c0,.16-.09.88-.09,1a.9.9,0,0,0,.19.44l3.51-.38,3.23-.47c.09,0,.47-.13.56-.13a.57.57,0,0,0,.47-.12l.13,0,0-.06a1,1,0,0,0,.91-.22c.13,0,.25,0,.34,0a8.3,8.3,0,0,1,.91.47c.91.34,1.57.56,1.57,1.28,0,1.1-1.28,1.22-2,1.22-.22,0-1.13-.06-1.32-.06a7.44,7.44,0,0,0-1,.06l-2.63.31c-.47.06-2.76.25-3,.34s-.63.19-.85.25a3.22,3.22,0,0,1-.94-.25l-.09.85a.88.88,0,0,0-.25.81l3.29-.47a28.86,28.86,0,0,1,2.91-.31c.28,0,.34-.06.88-.44a1.22,1.22,0,0,1,.44-.19c.13,0,1.91.94,2,1,.53.28,1.63.78,1.63,1.41a3.25,3.25,0,0,1-.66,1.47,3,3,0,0,1-.28,1.25,6.16,6.16,0,0,1-.22.59l-.63,2.1a16.14,16.14,0,0,1-.88,1.91,13.7,13.7,0,0,1-1.79,2c-.09,0-.53.25-.63.28a4.47,4.47,0,0,1-.72.09c-1,0-1.35-1-1.5-1.54a2.08,2.08,0,0,0-1.16-1.38c-.69-.31-.75-.31-.72-.5-1-.13-1.35-1.13-1.69-2.38a7.86,7.86,0,0,0-1-1.94Zm-10.21.31a7.79,7.79,0,0,1,.85-.09l.78-.19a3.58,3.58,0,0,0,0-1,2.57,2.57,0,0,1-.56.09,6.41,6.41,0,0,1-.88-.09c-.28.13-.31.13-.31.31,0,0,0,.88,0,.94Zm.28-2.88.16-.06a3,3,0,0,0,1.29-.25c0-.12.06-.66.06-.75s0-.09-.09-.19-.85.16-.94.16a2,2,0,0,1-.34-.09l-.47.16,0,.09s.06.09.06.16v.78Zm-.31-3.79V38c.13.19.13.22.13.25s-.13.5-.13.53.19.28.38.28,1.35-.22,1.41-.47c0,0,.09-.91.09-1s-.06-.19-.16-.19-.72.19-.85.19a5.24,5.24,0,0,0-.69-.09.26.26,0,0,0-.09.25Zm.41-2.51c1.1-.09,1.22-.12,1.25-.41s.06-1.53.09-1.79a5.15,5.15,0,0,0,.19-.66.2.2,0,0,0-.16-.16c-.13,0-.28.31-.34.38l-1.32,2.29Zm1.88-3.48,1,.22a2.87,2.87,0,0,1,.44-.78,2.35,2.35,0,0,0,.44-1.63c-1.16-.06-2,.28-2.38,2.22Zm2.16,2.69-.19.31A2.75,2.75,0,0,0,41,34.15c.41-.09.6,0,1.35.38a4.58,4.58,0,0,1,.78.31,2.28,2.28,0,0,1,.31.44L43.6,34V31.36c0-.28,0-.31-.06-.44l-.09,0a9.9,9.9,0,0,1-.94.66l-1.19-.06a1.54,1.54,0,0,1-.47.09,1.43,1.43,0,0,0-.94.25,4,4,0,0,1-.53.25v.09c.38.13,1.44.47,1.44,1.1a5,5,0,0,1-.56.88Zm.81,3.07a1.92,1.92,0,0,1,.53-.09,4.27,4.27,0,0,1,1.82.5,2.65,2.65,0,0,0,.19.53,22.78,22.78,0,0,0,.22-2.88c-.19.13-.19.13-.44.53a4.2,4.2,0,0,1-1.19.44,4.68,4.68,0,0,0-1.47.19A1,1,0,0,1,40.68,37.69Zm5.86,11.56a7.78,7.78,0,0,1-.31.75c-.19.28-.5.81-1.06.81-1,0-1.47-2.32-1.47-2.44s.34-.91.34-1.07.06-.91.06-1.07-.28-.81-.28-1S44,45,44.22,45s1,.6,1,.81C46.14,46.37,46.54,47.18,46.54,49.25Zm-1.1-20.39a.67.67,0,0,0-.19.22,2.94,2.94,0,0,0,.28.22c.13.16.63.94.72,1.13,1.29-.22,1.44-.25,1.69-.66a4.68,4.68,0,0,1,.66-.06c.34,0,1.72.5,2,.56a9.36,9.36,0,0,0,.06-1.79,8.11,8.11,0,0,0-1.25.25c-.19,0-1,.06-1.19.13a2.58,2.58,0,0,1-.78.22,5.43,5.43,0,0,0-1.1.13Zm1.16,4.89c.34,0,2.82-.5,2.91-.5a6.82,6.82,0,0,0,.81,0c.28-.19.28-.81.28-1.32-.19,0-1.1.12-1.28.12l-2.51.41-.25.16,0,.56ZM51.15,44A5.63,5.63,0,0,1,52,45.74a2,2,0,0,1-.28,1l-.75.47c-.78,0-.91-.31-1.28-1.44-.09-.22-.56-1.16-.81-1.75,0,0-.19-.12-.19-.16A2.82,2.82,0,0,1,50,43.36,4.16,4.16,0,0,1,51.15,44Z"/><path d="M81.05,45.68c.16-.44.41-1.6.6-2.38l.5-2.07.13-.53L83,37a7.8,7.8,0,0,0,.22-.81c0-.28.25-1.5.28-1.75l.34-2.57c0-.28.09-1.63.09-1.94s-.06-.25-.69-.81a6.84,6.84,0,0,1-1.35-1.82l.16-.09,1.5.06c.16,0,.88-.12,1-.12L88,26.76c.16,0,.91-.06,1.06-.06s.85-.16,1-.16l2.76-.12c.06-.09,0-.12,0-.28a12.94,12.94,0,0,1-.22-1.54A2.89,2.89,0,0,1,91,23.06c0-.06-.19-.25-.22-.28.38-.06,1.1-.22,1.44-.31.09,0,.53-.34.6-.34l.31.06a2.47,2.47,0,0,1,1.47.38,25.86,25.86,0,0,1,2.63,1.19c.66.6.72.66.72,1.13,0,.09-.38,1.07-.38,1.25L101,26c.19,0,1.22,0,1.6-.47.25,0,.31-.06.91-.41.09,0,.38-.06.56-.09a10.87,10.87,0,0,1,2.76,1.41,6.14,6.14,0,0,1,.38.6,1.49,1.49,0,0,1,.13.63c0,.22-.44.69-.47.72a5.58,5.58,0,0,1-1.44.25c-.16,0-.72-.09-.85-.09a7.94,7.94,0,0,1-.88,0c-.19,0-1-.19-1.16-.19-.34,0-1.82.06-2.07,0a5.6,5.6,0,0,1-.81.13c-.13,0-.72,0-.85.06.25.75.28.81.72.81a2.7,2.7,0,0,0,2-.53l0-.09a.23.23,0,0,1,.19-.09,17,17,0,0,1,2.32,1c.59.28,1.72.78,1.72,1.69,0,.6-.19.66-1,1a5,5,0,0,0-.81.81c0,.06.06.31.06.38,0,.41-.78.72-1.16.72a2.94,2.94,0,0,0-1.07.16c-1.28-.06-2.94-.09-3.29-.09s-1.94.09-2.69.19l-3.13.38-1.5.22a12.18,12.18,0,0,1-1.5.5c-.06,0-.41-.09-.47-.09a7.33,7.33,0,0,1-1.25-.75c-.69-.56-.75-.63-1-.72a14,14,0,0,0-.28,2.26l.53-.13c.31,0,4-.47,4.64-.47l.19-.06,2.63-.28.22.06L97.66,35c.22,0,1.6,0,1.91,0a18,18,0,0,0,2.91-.12.42.42,0,0,1,.16-.09c.09,0,.5-.28.53-.28a1.4,1.4,0,0,0,.85-.19,7.15,7.15,0,0,1,.85-.06c.38,0,.47.09.66.44.28.13,1.41.91,1.66,1.06.66.38,1.35.78,1.35,1.6a6,6,0,0,1-.09.69c0,.69-.41,1.41-1,1.41-.06,0-.53-.06-.88-.12a2.54,2.54,0,0,0-1.22-.09,3.71,3.71,0,0,1,1,1.5,1.79,1.79,0,0,1-.06.41c-.09.09-.09.09-.12.25a2.05,2.05,0,0,1-.41.85c-.16,0-.69.25-.81.25-.88,0-1.47-.69-2.13-1.44s-1.25-1.53-1.85-2.35a4,4,0,0,0-1.25-1.13c.13,0,.91-.16,1-.16a6.76,6.76,0,0,1,.85.28c.25,0,1.19.28,1.38.31a2.08,2.08,0,0,0,.47-1.1,1.41,1.41,0,0,0-.75-.16c-.31,0-1.66.13-1.91.13-.41,0-2.19.09-2.54.09-1.38,0-1.53,0-1.94.22.31.09.34.16.75.56a1,1,0,0,0,.81.38,2.79,2.79,0,0,0,.47-.06l.44.22a.34.34,0,0,1,.09.19,1.25,1.25,0,0,1-.56,1.25c-.47.41-.72.6-1,.6-.91,0-1-.13-1.44-.53-.09-.09-.66-.5-.66-.63s-.38-1.72-.41-1.85a10.88,10.88,0,0,0-2.32.28,2.77,2.77,0,0,0,.85.53,2.86,2.86,0,0,1,.53,1.16,4.08,4.08,0,0,0,3,1.5c.34,0,1.88-.09,2.19-.06a3,3,0,0,0-.34-1.41l.09-.06,0-.25a8.58,8.58,0,0,1,.85.63s.85.34,1,.44c.47.25,1.79,1.1,1.79,1.72a1.68,1.68,0,0,1-.12.56l.09.25a1.66,1.66,0,0,0-.63.25c-.06,0-.31.22-.44.22l-1.63,0a3.84,3.84,0,0,0-.69,0v.06l.16.09c.81.28,2.63,1.19,2.63,2.13a.59.59,0,0,1-.16.41c-.19,0-1,.06-1.16.09a.86.86,0,0,0-.47.66,1.06,1.06,0,0,0-.47.63s1.66.44,1.85.5l2.41.53c.34.06,2,.34,2.29.44.78.22,3.76,1,3.76,1.57,0,.13-.44.6-1.5.88-.66.19-5.23.72-5.64.72a8.47,8.47,0,0,1-3.16-1.25l-2.07-.78S97,49.6,97,49.6a11,11,0,0,0-1.41.94c-.38.13-2,.75-2.32.78s-1.69.22-2,.22A11.29,11.29,0,0,1,88,51.23v-.06l.06,0,0-.06L88,51c1.66-.25,2.94-1,5.33-2.88l0-.06c-.06,0-1.75-.81-1.82-.81a6.69,6.69,0,0,1-.94.72l-2.29,1.69a18.5,18.5,0,0,1-2.79,1.5c-.09,0-1.13.16-1.32.22s-.22,0-.34,0a6,6,0,0,1-1.5-.53l0-.09-.16-.09v-.12a3.11,3.11,0,0,0,1.88-.88c.25-.22,1.41-1.13,1.63-1.35l1.54-1.41A21.71,21.71,0,0,0,90.73,43a4.57,4.57,0,0,1-.41-.63c-.06-.09-.19-.12-.31-.22v-.06c.28-.22.31-.22.88-.25.09-.13.34-.16.75-.22a9.81,9.81,0,0,1,1,.72h.13l.13.06-.06.19c.22.09,1,.81,1.19.94a1.34,1.34,0,0,0,.38.06,6.42,6.42,0,0,0,2.94-.44l.13-.12a.8.8,0,0,0-.34-.09A8.57,8.57,0,0,1,94,42.39a6.89,6.89,0,0,1-2.38-2.22c-.25-.85-.6-2.1-1.16-2.1a2.64,2.64,0,0,0-1.38.56,16.17,16.17,0,0,1,1,2.1c0,.13-.12.78-.12.91-.19.19-.85,1.1-1,1.25l-.19,0c-.25.34-.66.91-1.19.91-.81,0-1-.25-1.19-.78A4.5,4.5,0,0,1,86,41c0-.06,0-.09.09-.22l.22,0a9.89,9.89,0,0,0,1.19-2c0-.19-1.19-.63-1.41-.75-.09.44-.47,2.44-.59,2.85a10.78,10.78,0,0,0-.75,2.76,1.94,1.94,0,0,1-.28.78,13.38,13.38,0,0,1-1.28,3.07c-.13,0-.34.56-.38.66a14.44,14.44,0,0,1-1.38,1.63c-.34.19-.88.56-1.22.72-.12,0-1.35.34-1.53.41l0-.06a14.24,14.24,0,0,0,1.44-2.6ZM89.42,30.3l.72-.06s.06-.09.06-.16c0-.5,0-.53-.25-.78a.8.8,0,0,0-.41-.19c-.16,0-2.63.5-2.76.5a1,1,0,0,0-.66.13c0,.06-.06.09,0,.16s.59.56.69.66Zm.25,3c.09,0,.53-.16.63-.16a1.18,1.18,0,0,1,.34,0,.67.67,0,0,0-.16-.6,1.42,1.42,0,0,1-.34.09,7.56,7.56,0,0,1-2.85-1.38l-.16-.06a1.59,1.59,0,0,1,.06.28s-.16.88-.19,1.06a6.34,6.34,0,0,0-.09,1.1ZM96,29.52a1,1,0,0,0,.09-.88,1.1,1.1,0,0,0-.34-.13c-.06,0-.6.13-.63.13a14.62,14.62,0,0,0-2.91.34s0,0,0,.09,0,.06.09.16.91.44,1,.56C94.27,29.74,94.46,29.7,96,29.52Zm-.85,16.7c.09,0,.25,0,.31-.09a8.2,8.2,0,0,1,.6-.85c-.22,0-1.07,0-1.22,0s-1-.34-1.13-.38c-.41.22-.38.38-.31.63A16.09,16.09,0,0,0,95.12,46.21Zm.47-13.56c.19-.47.25-.63.19-.88a3,3,0,0,0-.38-.06,7,7,0,0,0-1.44.41,2.37,2.37,0,0,0-.19.47s0,0,.06.09a10.78,10.78,0,0,0,1.38-.13Zm3.23-.22a12.7,12.7,0,0,0,1.57,0,.25.25,0,0,0,.13-.25,4.68,4.68,0,0,0,.06-.66l-1.5,0c-.25.06-.31.41-.38.94Z"/><text class="cls-1" transform="translate(59.44 36.14)">ヘ<tspan x="0" y="9.27">イ</tspan></text><text class="cls-1" transform="translate(71.53 36.99)">チ<tspan x="0" y="9.27">ン</tspan></text><text class="cls-2" transform="translate(26.43 62.16)">HEQING</text><text class="cls-3" transform="translate(42.38 68.99)">D<tspan class="cls-4" x="3.62" y="0">ALI</tspan><tspan class="cls-5" x="12.97" y="0">-</tspan><tspan class="cls-6" x="15.6" y="0">Y</tspan><tspan class="cls-4" x="18.79" y="0">UNNAN-CHINA</tspan></text><polygon class="cls-7" points="10.46 18.17 2.46 20.67 12.1 22.66 24.21 49.92 23.84 28.07 10.46 18.17"/><polygon class="cls-7" points="111.11 29.8 111.11 51.85 139.12 18.17 111.11 29.8"/><polyline class="cls-7" points="47.19 27.04 68.25 10.67 89.32 27.04"/><line class="cls-7" x1="68.25" y1="10.67" x2="68.25" y2="51.85"/><line class="cls-7" x1="14.9" y1="21.46" x2="18.47" y2="36.99"/><line class="cls-7" x1="18.47" y1="36.99" x2="23.84" y2="28.07"/><line class="cls-7" x1="139.12" y1="18.17" x2="118.45" y2="31.26"/><line class="cls-7" x1="111.11" y1="51.85" x2="118.45" y2="31.26"/><line class="cls-7" x1="111.11" y1="29.8" x2="118.45" y2="31.26"/></svg>