<svg id="图层_1" data-name="图层 1" xmlns="http://www.w3.org/2000/svg" viewBox="0 0 819 1239.13"><defs><style>.cls-1,.cls-12,.cls-17,.cls-20,.cls-24,.cls-25,.cls-4,.cls-5{fill:none;stroke-miterlimit:10;}.cls-1{stroke:#000;}.cls-1,.cls-12,.cls-4,.cls-5{stroke-width:2px;}.cls-2{fill:#ccc;}.cls-3{fill:#4d4d4d;}.cls-20,.cls-4{stroke:#333;}.cls-5{stroke:#4d4d4d;}.cls-6{font-size:7.78px;font-family:YuGo-Medium-83pv-RKSJ-H, YuGothic;}.cls-11,.cls-14,.cls-15,.cls-16,.cls-18,.cls-6{fill:#fff;}.cls-7{fill:#333;}.cls-10,.cls-8,.cls-9{fill:#e6e6e6;}.cls-9{font-size:6.31px;}.cls-10,.cls-15,.cls-16,.cls-21,.cls-23,.cls-9{font-family:FZLTZHK--GBK1-0, Lantinghei SC;font-weight:700;}.cls-10{font-size:7.87px;}.cls-11{font-size:14.98px;}.cls-11,.cls-22{font-family:FZLTTHK--GBK1-0, Lantinghei SC;}.cls-12{stroke:#e6e6e6;}.cls-13{fill:#f2f2f2;}.cls-15{font-size:8.19px;}.cls-16{font-size:9.19px;}.cls-17{stroke:#f2f2f2;}.cls-18,.cls-19,.cls-26{fill-rule:evenodd;}.cls-21{font-size:7.16px;}.cls-21,.cls-22,.cls-23,.cls-27{fill:#1a1a1a;}.cls-22{font-size:14px;letter-spacing:0.05em;}.cls-23{font-size:8.93px;}.cls-24{stroke:#1a1a1a;stroke-width:1.5px;}.cls-25{stroke:#8c6239;}.cls-26{fill:#754c24;}</style></defs><title>アクセス</title><line class="cls-1" x1="137" y1="896.44" x2="697" y2="896.44"/><line class="cls-1" x1="148.36" y1="1042.63" x2="697" y2="1042.63"/><line class="cls-1" x1="148.36" y1="1133.16" x2="697" y2="1133.16"/><path class="cls-2" d="M569.19,235.84l-1.76-.06-.59,1.19,1,1v.22l.39,1.44.11.11v.33l-.22.1-2.45,1.13-.11.11h-.22c-1.86-.28-2.83-.86-3.13-1.64l-.61-1.34-3.27-.77-.74-4.2a2.4,2.4,0,0,1-1.51-.93l-.1-.22c-.52-.79-.95-1.24-1.6-1.37a4.89,4.89,0,0,1-2.24-2.05l-1.29-.81h-.11l-1.7-1.81h0l-.39-1.55v-.11l3.67-4.71c.12-.33.24-.54.13-.65l-.61-1.56-1.89.71h-.11v.11h-.11l-4.84.17-1.88.38-.68.64-.35.65a1.93,1.93,0,0,1-2.11.59h0l-.11-.11-1.61-1.26,0-2.75a4.85,4.85,0,0,1-1.58-1.92l-.36-2.43-1.05-1.35-1.17-1-.54-.35,2.06-2.46.49-1.41-2.1-2.82h-.11v-.11l-.92-2.23v-.11h0l-.18-1.1-1.39-1.14v-.11h0l-1.48-1.7-2-.4-2.22.59-.34.43-.43,3.06-.11,3.4-.33.1-2.11.7h0v.11h0l-2,0A22.94,22.94,0,0,1,516.9,206l-.22.1h-.11l-3.7-1-1.59,1.6a3.71,3.71,0,0,1-2.12,1l-2.37,1.79-1.27,1.83v.11l-.11.11a9.66,9.66,0,0,1-1.72,2l-1.37,1.6v.11l-.11.11-.79.52a4.32,4.32,0,0,1-1.55.28l-2.74-.31-.69,1-1,1.72.38,1.77-.36,4.27.72,1.34v.11l.3,1,1.54.05,2.61.64,3.4.33,1.54-.17h.33l2.93,1.2h.11l1.5,1.26,3.25,1.32h.11l2.15,1.39,5.21,5.12,2.38,1.18,1-.41,1-1.83-.45-3c0-.88.71-1.4,2-1.91l.22-.1,6.56,4.17.78-.19,1.57-.83h.22l.88.14,1.35-1.05.22-.1.32.23,3.86,2.87.11.11,2.45,2.17a9.05,9.05,0,0,1,2.23,2.38l1.16,1.36,1-.08,1.17-2,2.25,1.72h.22l1.79,2.37,4.81,3.9h0l1.37,1.69L566,249.9l.11,3.19,1.8,1.93h0v.11l1.46,2.36v.33l1.39,7.63,1.54,3.13-2.38,5.52v.33l-1.88.38-.05,1.65-.11.11-2,3h-.22l-2.64.13-2.71,2.11a4.74,4.74,0,0,0,1.51.93c1.09.37,1.17,1.25.57,2.77v.11l-1.93,1.8h-.11l-.12.22H560l-5.24-.94-.17,1.86.42,4,4.33,2v.22h0l1.66-.49.11-.11.22-.1.1.22h.11l1.19.7,1.87.06.66-.09-.59-2.11h0l-.37-2.21v-.33l.11-.11v-.11l.68-.75.23-.21h0l.11-.11,1.26-1.61.11-.11,2-1.47H569v-.11h.11l2.43-.25,0,.66a5.38,5.38,0,0,0,.16,1.65l.41,1,.61,1.45,2.15,1.28,6,.75h.55v.55l-.28,2,1.69,1.92,1.3.59.22.12v.11l.1.22,0,.77,0,1.1-.62,2.18.75.57a3.14,3.14,0,0,1,2.4.52l2.48,1.29,1.58-1.16,1.7-1.7.13-.76.12-.22.22-.1.23-.21v-.22l-.47-2.32-.07-1.21-.11-.11v-.11l.11-.11v-.11l.93-1.4.11-.11h0l1.8-1.15h.11l3.62.12.56-.2,0-1.87-.49-1.66-1.14-2-.11-.11v-.11l.09-2.74v-.11h0l.71-1.62h0l.11-.11h0l3.11-4.18.11-.11h.11l.22-.1.66,0,1.09.15,2.48,1.51,1.63.49.25-.76-.32-.23v-.33a2.26,2.26,0,0,1,1-1.72l2-1.36.11-.11h0v-.11a10.12,10.12,0,0,1,2.21-.48l1.76-.16h.22l1.09.26.86-2.72.06-1.87c0-1.21.07-2,.4-2.18l.82-1.4-.94-1.35-1.29-.92-2.72-.86c-.55,0-1.52-.6-3.12-2.08l-1.62-.82h-.11l-.11-.11-1.89-2.48-1.87-.06-.11-.11h-.11l-1.62-.93-1,1.28-.39,5.15.26,2,.77,0,.11.11,1.52.49v.22l.71,1.89h.11v.11h0V269L605,272.4v.33l-.11.11c-.56.31-1,.52-1.56.83l-.22.1-.11-.11h-.11l-.76-.25-1.78.6h-.11l.1.33.11.11.23,3c0,.44-.24.65-.68.75l-1.32,0a2.15,2.15,0,0,1-1.3-.7l-1.28-1-.11-.11h-.11v-.11l-.71-1.89a4.75,4.75,0,0,0-1.84-.94h-.22l-1.5-1.15h-.22V272h0l-.38-1.88.27-1.42h.11v-.11h0l.68-.75,0-.55-.59-2L590,263.78v-.22l-.29-4.51-1.06-1.13h-.11l-.11-.11h0l-.81-2.11-3.94-.57a3.51,3.51,0,0,1-2-1.93l-1.76-.06a5.45,5.45,0,0,1-2-1.5l-.21-.23a7.63,7.63,0,0,1-1.25-2h0l-.11-.11-.27-1.77h0v-.22h0l.77-3.38v-.11l.71-1.41v-.22h.11l4.23-1.62,1.71-1.92L584,237l-.18-1.21a9.79,9.79,0,0,1-1-2.89l-.88.08-1.53-.16a13.16,13.16,0,0,0-2.5,2.44L576,236.94h-.11l-.11.11a6.34,6.34,0,0,1-3,.23Z"/><path class="cls-2" d="M598.35,237.8l-2.16,5.42-.12,3.62v.11l-1.16,1.83-.26,1.31a1.56,1.56,0,0,1-.94,1.84l-.22.1h-.11l-.11-.11-2.73-.42-1.47,1.27-4.19.52h0l-1.76-.06,1.07.8,3.94.57h.44l.11.11v.11l.91,2.45,1.07.8a3.7,3.7,0,0,1,.47,2.32v3l1.28,1.25h.11v.11h.11l.59,2.22,0,1.21-.8,1.07-.25,1,.29,1.11,1.29.92c1.41.6,2.17,1,2.48,1.51l.71,1.67a3.16,3.16,0,0,1,1.49,1.37l1,.36h.11l-.36-2.43a1.67,1.67,0,0,1,.15-1.31,1.37,1.37,0,0,1,.9-.63l1.66-.49h0l.11-.11H602l.11.11.76.25,1-.52v-.22l.42-2.73-.61-1.34-.86-.47-1.09-.15h-.22l-.21-.12-.34-2.87.3-5.59.23-.21,1.72-2.25,2.37,1.4,1.43,0,1.33-7.1a2.89,2.89,0,0,0-1.26-1.69l-.65-.13v.11h-.33l-1.77.27-.1-.22-.11-.11L603,247.07V247l-.11-.11.09-2.74.49-1.52.46-.64a2.14,2.14,0,0,1,.6-1.41L605,240l.17-1.86-1.6-1.59-2.16-1.17Z"/><path class="cls-2" d="M524.71,195.8l.11-.11h.11v-.11l-3.18-10.1-2.14-1.83v-.22l-.41-4.08-4.59-.81h-.33v-.11l-.1-.22v-.11c-.5-1.55-1.87-3.25-4-5.08a8.84,8.84,0,0,0-3.34-2,17.62,17.62,0,0,1-2-1.28c-1.39-1-6.31-2-15-2.47h-.33l-.94-1.57a9.47,9.47,0,0,1-.78-2.88c0-1.21,1.6-5.11,4.89-11.48l-1.38-4.88h0l-1.39-7.74c-.18-1.1-2-2.15-5.27-3.25a7.78,7.78,0,0,1-1.95-.94,4.77,4.77,0,0,1-2.43-2.83,6.43,6.43,0,0,0-3.18-3.4l-.11-.11-.11-.11-1.09-6.85-5.29.37-.6,1.41c-.73,2.28-1.43,3.36-2.2,3.33l-3.44,1a8.09,8.09,0,0,0-4.15,2.5,9.64,9.64,0,0,0-1,3.48,16.71,16.71,0,0,1-1.24,4.24,5.49,5.49,0,0,1-3.28,3c-2.89,1-7.66-1-14.19-6L431,145.78l.94,4.76h.11l.1.22-.22.1V151a2.7,2.7,0,0,1-1.91,1.15,3.45,3.45,0,0,1-2.72-.86c-.86-.69-3.36-1.32-7.41-1.67l-1.86-.17h0l-2.74-.31-3,.45,1.26,1.91c1.05,1.46,1.46,2.36,1.33,2.9l-1.44,7.09.42,3.86H414v.11l-.11.11h0l-2.43,7.06c-.13.65-.36,1-.58.86h-.22v-.11l-.31-.67c-.41-.89-.62-1.23-1-1.13s-.57.53-.71,1.51a10.66,10.66,0,0,1-3.69,5.26l-2,1.47-1,.52h-.11l-7.14-.13-2.83,2.54h-.44l-7.54-1.35a3.87,3.87,0,0,1-3.67,1.42c-1.09-.37-3,0-5.63.91l-3.19,3.52-.12.22-4.83-.05.13-4.06-3.07-.1-.61,1.74-2.32.47h-.22l-.11-.11h-.11a12.68,12.68,0,0,0-4.88-1.92c-1-.14-2.21.48-4,2a14.58,14.58,0,0,0-4,4.15,1.5,1.5,0,0,1,.5,1.33,7.8,7.8,0,0,1,.25,2.32,3,3,0,0,1-.94,1.84c-.56.31-.92,1.29-1.31,3l1.72,1.27,2.5-2.44,3,3.5v.22l.46,6.06v.11h-.11l-2,8.28h-.44c-2.52-.08-4.17,0-4.85.39.09.55,1.16,1.47,3,2.74l1.54-.17h.33l.11.11,3.5,3.63c1.39,1.25,1.21,3.34-.76,6.35l.44,3.42,1.42.38,5.6.19-2.94,2.54,1.62.93h0l2.15,1.28,5.84,2.72.11.11h.22l.25,9c.05,1.76,1.32,3.12,3.93,4.09l.45-.21H373l6.12,1.08h.44v-.11l.12-.22a11.33,11.33,0,0,0,1.17-2.27v-.22a2.72,2.72,0,0,1,1.29-2.48,5.12,5.12,0,0,0,1.82-2l.11-.11c.36-.87,1.46-1.05,3.31-.44h.11l2,1.28,6.87,1.55,4.29-.19,3.12-1.22a4.77,4.77,0,0,1,1.36-1.27,2.72,2.72,0,0,1,2.17,1l.43.23a4.78,4.78,0,0,1,1.13,2.23L411,251l1.65.05h.44l2.27,1.06,4.29-.19,2.44-.69,6.24.76,2.77-.68,3.23-1.21a9.14,9.14,0,0,1,2.56-1l6,.2,2.22-.69a4.68,4.68,0,0,1,2.33-.8L451,248l1.61,1.26,4.69,1.14c.66,0,1.3.59,2.36,1.62l1.93,1.38.21.23,4.5.26h.11l2,1.17,2.73.64h.11l2.29.41.7-1.3-.92-2.23-.37-2.21v-.11h-.11l.34-.32,1.61-2v-.11H475v-.11l1.57-1h0l-.31-.67-.59-2.22c0-.33-.31-.56-1-1h0l-1.59-1.81-2-1.83-.1-.22-.21-.12.11-.11v-.22l.4-2.07.05-1.54-.9-2.67,2.54-.46,1.25-1.17,3.07.1,3.09-.34h.11l2.08.29,2.44-.8,2.75-.24,1.78-.71h.11l4.75-.72.79-.74-.19-.89-.83-1.57v-.11l-.11-.11v-.11l.28-1.64.11-.11.08-2.3-.37-2h0v-.11l1.17-2.16c.47-1,1-1.5,1.7-1.48l2.85.31a2.61,2.61,0,0,0,1.56-.61l4.47-5.67v-.11l.11-.11,2.37-1.79.23-.21a5.42,5.42,0,0,0,1.78-.71l.57-.53c.8-1,1.47-1.38,1.91-1.37l3.71.89,3.23-1.43h.22l1.87-.16,1.56-.61.08-2.52.54-3.17v-.11h0v-.11l.58-.86Z"/><path class="cls-2" d="M527.2,233.46l-1,.74a19.35,19.35,0,0,0,.45,2.87v.11l.11.11h-.11l-1.3,2.7-1.67.6-.33.1h-.11l-2.81-1.41h-.11v-.11L515.09,234l-2-1.28-3.25-1.32v-.11h-.11l-1.5-1.15-2.71-1-1.54.06h-.11l-3.5-.34h-.11l-2.51-.63-1.54-.05-1.24.84a11.41,11.41,0,0,1-2.66.57L490,230l-2,.59-.11.11v0l-2.42.14-2.56.9h-.33l-2.08-.29-3.2.33-2.63-.09-1.13,1.06h-.11l-1.33.29.5,1.33-.07,2.09-.39,1.85,1.81,1.6H474l1.48,1.81c1,.8,1.38,1.36,1.36,2l.49,1.66.71,1.67c-.11,0-.11.11-.22.1l-2.14,1.47-1.49,1.82.27,1.66.91,2.34.1.22h0v.11l-.25.87a2.56,2.56,0,0,1-.81,1.18c-.68.53-1.77.49-3.51-.12l-2.73-.64H468L466.05,255l-3.18-.22.11.11-.51,5.48c-.13.76-.69,1.08-1.47,1.16-.33.1-.57.53-.49,1.41v.11h-.11l-.27,1.42a6.61,6.61,0,0,1,1.48,1.7l.46,2.65,0,1a5.5,5.5,0,0,1-.49,1.41l-.84,2.17-1.52,2.7,0,.55.17,1.32,1.37,1.91a4.12,4.12,0,0,1,.73,1.23l1.26,1.91,1.9,2.26c.74.79,1.28,1.14,1.5,1.15l2.13-1.25a2,2,0,0,1,1.33-.51,4.69,4.69,0,0,1,2.05,1.06h.11v.11l1.05,1.35.5,1.33.42.56.32.23,1.39,1,.77.13a2.31,2.31,0,0,1,1.18.92c.21.34,1.4.82,3.47,1.43h.11l3.25,1.32h.22l2.27,1.17,3.92,1.12.11.11,5.15.39,2.33-.8,2.09.07v.11l.11.11,1.68,2.25h0v.11l1,1.79.85,1,1.19.59.11.11h0l.11.11.91,2.23v.11h.11v.11l.47,2.43,1.52.6h.22l1.18.81,1.66-.28.49-1.63v-.11l.11-.11,1.93-1.8,2.07.62v.22l.92,2.23,2.11-.7.29-2.08v-.22l.11-.11,1.45-.72-.23-3.08v-.33h0l1.76-3.35,1.67-.6-.56-3.09,1.65.05-.06-1.43-.78-3h0v-.22l.29-2.08v-.33l.22-.1,1.14-1.39.23-.21h.33l2.94.65h.11l2.39.74,2.11-.59,1.13,2.45.11.11-.06,1.76.28,1.66a1.75,1.75,0,0,0,1.06,1.24h.22q1.47.38,1.6,1.37a5.43,5.43,0,0,0,1.25,2.24l.94,1.46h0v.11l.62,1.23,1-.08,1.92-1.58,1.12,2.56,2.39.85h.11l.11.11L549,303.5l.54.35.18-2.08v-.44l4.83.05.12-.43a1.09,1.09,0,0,0-.08-1,5.85,5.85,0,0,1-.48-2,2.48,2.48,0,0,1,.28-1.75c.34-.43.56-.42,1.11-.29l2,.72.27-1.42-3.57-1.77H554l-.1-.22V293l-.4-4.41.2-2.74v-.55l6,1,1.58-1.38c.35-.54.25-1,0-1.1-1.52-.6-2.26-1.28-2.24-1.94a1,1,0,0,1,.69-1l2.61-2.44,2.75,0,1.51-2.37.08-2.3,2.1-.37a16.92,16.92,0,0,1,1.19-2.82l.94-1.84L569.51,266v-.11h0v-.11l-.86-3.76v-.11l-.53-3.86-1.24-2.24-1.91-2v-.22l-.11-.11,0-2.09-3.66,1-.11-.11-1.58-1.92-4.81-3.9h-.11l-1.79-2.48-1.18-.81-.81,1.18v.22l-.11.11h-.33l-1.54.06-.22.1h-.11L545,240.64a10.13,10.13,0,0,1-2.56-2.28l-1.61-1.26-.11-.11-1.83-1.16-1.13.84-.12.22-.11-.11h-.11l-1-.25-1.12.51-.11.11-.11.11H535l-1.54.17C531.39,236.12,529.35,234.85,527.2,233.46Z"/><path class="cls-2" d="M531.88,287.55l-2.5-.85-2.62-.42-.91,1-.28,1.86.11.11.67,2.88,0,2.2,0,.66-1.32,0,.46,2.65-2.11.7-.93,1.62,1.07.91.22.12h0l3.74,3.2.11.11h.11v.22l.46,2.76,1.67,2.58a11,11,0,0,0,1.9,2.26h.11l.11.11v.11l-.12.22-.08,2.41a11.63,11.63,0,0,1,.3,4.18,6.41,6.41,0,0,1,1.33,3.12,8.43,8.43,0,0,0,.79,2.55h0v.11h0a9.17,9.17,0,0,1-.35,3.94c-.36.76,0,2.2,1.18,4.21l.11.11.1.22-.12.22-1.88,3.78a5.85,5.85,0,0,1,.37,2L533,343c-.26,1.2-.28,1.86.26,2.1l.64.46c1,.47,1.28,1,1.27,1.58L535,349l.54.24.11.11L536,349a2.63,2.63,0,0,0,.81-1.29l.23-.32.12-.22a2.84,2.84,0,0,0,1-1,4.57,4.57,0,0,0,0-2.09l-.2-.56.55-.09c1.77-.38,2.75-.24,3.06.54l.8,2.22v.22l.32,3.64,1.4.82h.22l.85.8.91-1,1-.74h.33a2,2,0,0,1,1.38,1.58l.34,2.87.1.44,2.75,6.46,1.17,1.25.11.11v.11l.46,2.65h0l.14,2.53.1.22c.8-1.07,1.48-1.6,1.91-1.36s.54.35.52.79l0,.66-.07,2,0,.55c.55.13,1,0,1.11-.29l1.15-1.5,1.25-1.17a4.23,4.23,0,0,1,2.45-.91h.11l2.29.63.67-.31,1.26-1.5-.14-2.42a4.52,4.52,0,0,1-.77-3.21l.39-2V358l.12-.22h0l2.12-1.14h.11l1.57-.94,1.84-2.47.28-1.86-1.82-4.67,4.32,2.12.06-1.87h0v-.11l1.69-1.37,3.21-.77h.22l1.73,4.12v.22l-.27,1.53.17,1.43c.2.67.63,1,1,1a1.88,1.88,0,0,0,1.35-.83l.12-.22h.11l2.66-.79h.11c1.43,0,2.07.4,2.38,1.07l.12,3v.11l.55.13,1.09.37,1.65-.05,2.77-.68,1.69-1.37.15-1.2-.74-.9-2.82-1.08h0l-.22-.12h0v-.11l-3.18-3.4.34-.21,1.69-1.37.11-.11h0l1.67-.6h.33l2.18.51h.11l.11.11,0-.88-.93-1.68-1.51-.82-2-3.14h0l-.11-.11v-.11l-.87-3.65.09-2.74,1.81-1.59,2.63.09,6.13.75,3-4v-.22h.22l2.35-1.13,1.29-2.37.11-.11,2.82-2.21,1.4-2.37v-.11h.11v-.11h0l1.13-1.06,1.39-2.15.55-3.39v-.33l.11-.11,1.8-1.15.45-.42-2.62-.53-4.4.07-.11-.11-1.6-1.37h-.22v-.11h0l-.83-1.35-.22.1-.12.22c-.23.32-.78.41-1.44.39l-.67.31a.67.67,0,0,1-.66.09c-.22,0-.32-.34-.52-.9a2.66,2.66,0,0,0-.93-1.68l-.11-.11v-.11h-.11l-.5-1.44h-.44l-1.68,1-.11.11h-.11l-3.87.64h-.22l-.22-.12-2.47-1.84h0l-.11-.11v-.11h-.11l-.61-1.34-1.93,1.91c-1.37,1.49-2.37,1.9-3,1.44l-2.48-1.4-1.75-.28-.22.1-1.61-1.26-.11-.11-.33-.12.87-2.94,0-1-1-.47h-.11l-2.22-2.6.17-1.86-5.69-.74-2.15-1.28a3.43,3.43,0,0,1-1.25-2.13l-.3-.78-.38-1.66-.77.08-1.8,1.37-2.17,2.45.38,1.88.58,2.44v.11h.11l-.11.11v.11c-.24.65-.91,1-1.9.93l-2.19-.07-1.3-.7-1.67.6-.33.1-.22-.12-.27,1.53-.12.22v.33h-.33l-2.71-1a4.23,4.23,0,0,0,.47,2.32,2.12,2.12,0,0,1,0,2l-.36.87c-.34.32-1.33.4-2.75.24l-1.87-.06-.21,3.07-2.38-1h-.11l-.11-.11L547,302.12l-2.6-1-.61-1.45-1,.74h-.11l-1.66.27h-.44l-.81-2-.84-1.24-.11-.11a10.3,10.3,0,0,1-1.45-2.68c0-.11-.21-.34-.75-.46l-.44-.12a3,3,0,0,1-1.58-2l-.38-1.88.05-1.54-.72-1.45-1.33.4h-.33Z"/><path class="cls-2" d="M385.14,246.76v.11a7.23,7.23,0,0,1-2.17,2.35,1.56,1.56,0,0,0-.93,1.51V251a5.75,5.75,0,0,1-1.3,2.7l-.13.55a1.59,1.59,0,0,1-1.44.5l-6.23-1v.11l-.49,1.41v.11l-.11.11h0c-1.72,2.25-2.87,3.86-3,5q-.19.82,1.78,6l.91,2.34c.4,1.11,0,2.42-1,3.81l-2,1.91-3.29-.11-.54-3.64-1,4.47,1.35,2.24q.15.5,0,.66l-.23.21a8.14,8.14,0,0,0-1.86,3.23c-.71,1.62-.44,3.28.82,5.08l2.63.09c.87.25,2.14,1.72,3.92,4.3l.1.22h0a2.13,2.13,0,0,0,.82,1.78l5.64,5.57v.11l2.52,3.38,1.54.05,1.74-2.91.23-.21.11-.11,4,1.12v.33l.46,2.76,4.64,5.76,1.62.71.11.11.75.46.11.11,3.44,5.5,3-.34h.33l.21.23.1.22,2.35,5.35,3,2,2.5.74,1.09,3.44,1.87.06.11.11h0L417,330v.11h0l.11.11,2.74,3.61,4.2-.63h.22l1.51.71h.11l2.56,2.39,4.71.49,2.87-.34h0c3.86-.53,6.27-.12,7.11.9.52.9.16,1.76-1.19,2.82l-1.13,1.06c-.35.54.06,1.43,1.45,2.79l.1.22h-.11l.86.69.34-.32c2.91-5.07,5.2-7.85,6.76-8.34s5,1,10.29,4.52L467,342.2l-.12.22v.22l-.43,3.06,3.28.55-.25,4.17a12.09,12.09,0,0,0,2.09,3.37c.64.46,3.94.57,9.77.32l3.46-1.64,3.45-4.5,3.84,0,1.88-.49,7.38-3.93h.11l.11-.11h0c4.19-.3,6.6-.33,7.24.24l4.59,4.11,1.41.6.21.23,1.84.83.11.11v-.66l.88-3.27a3,3,0,0,1,.08-2.41c.24-.54.8-.85,1.68-1,1.66-.27,3.15,1.2,4.58,4.33l.22.12h.11l2.78-1.12a1.11,1.11,0,0,0,.81-1.18l-.48-2v-.11a1.5,1.5,0,0,1,.94-1.95l1-.74,2.5-2.55,1.77-3.57c-1.35-2.35-1.73-4-1.26-5.09l.43-3.06a7.08,7.08,0,0,1-.89-3,7.6,7.6,0,0,0-1.23-2.68h-.11v-.33l-.2-4a7,7,0,0,1,.09-2.63,7.93,7.93,0,0,1-2-2.37L527.14,308l-.11-.11v-.33l-.46-2.76-1.6-1.37v.11l-3.1-2.63v.22l.33,3.42V305l-1.67.71-.29,2.08v.33l-3.89,1.41-1.22-3.12-.76-.24-1.25,1.17-.84,2.17-2.77.68-1.5-1.15-2.17-.73-.56-3.09-.82-1.89-1.3-.59-.1-.22-.95-1.24h0l-.93-1.79-1.47-2-1.32,0-2.22.69-.11.11-5.59-.51-4.25-1c-.32-.23-1.08-.59-2.26-1.39l-3.26-1.21c-2.5-.74-3.91-1.34-4.22-2l-.54-.35-.76-.25-1.94-1.16-.21-.12a8.37,8.37,0,0,1-.84-1.24l-.41-1-.83-1.35-1.41-.71-.56.31-.56.42-.34.21a4,4,0,0,1-1.56.72c-.89.19-1.75-.28-2.7-1.41l-2-2.26a11.78,11.78,0,0,1-1.46-2.36l-.52-.9a8.81,8.81,0,0,1-1.57-2.25,4,4,0,0,1,0-2.75v-.11h0l1.51-2.37.85-2.5L461,269l-.46-2.54-1.6-1.48.4-2.07c.05-1.54.63-2.29,1.73-2.47a.58.58,0,0,0,.46-.75v-.11l.18-2.19v-.11h0l.08-2.52h-.22l-.11-.11h0l-.43-.23v-.11h-.11L459,252.94h-.11l-1.49-1.37-5.12-1.16h0l-1.61-1.26-3.07-.1a4.42,4.42,0,0,0-1.78.71h-.11l-2.44.8-6-.2a4.6,4.6,0,0,0-2.11.81,12.08,12.08,0,0,1-3.56,1.42l-2.87.56v.11h-.22l-4-.57-.33-.12.11.11-.11-.11-1.42-.16-2.44.69-4.84.28h-.11l-.11-.11-2.39-1-2-.07a6,6,0,0,1-2.89-2.29l-.1-.22a5.15,5.15,0,0,0-.6-1.67l-.54-.35-1-.58-.91.85-.12.22-3.56,1.31h-.33l-4.29.3a18.89,18.89,0,0,1-3.49-.88l-3.71-.78h-.11L387,246.82Z"/><path class="cls-3" d="M517.12,387.92l-.49,1.41a4.64,4.64,0,0,0,2.45-1l.11-.11h.22l4.41-.4,2.9-1.33,1,1.57.22.12-1.39,2,1.48,1.59v.44l-1.25,4.57,2.78,2.18,5.15.39-.8,1c-3.43,4-5,6.31-5,7.09l2,.5c2.63.31,4.14,1.13,4.65,2.13a36.83,36.83,0,0,1,1.73,4.23l2.91,1.74,1.85.39,4-3.16,1.88,3v.11h0l.11.11.57,2.77,1.64.38h0l2.5,1,.67-.2v-.11l-.34-2.87-.11-.11-1.21-6.52v-.22l1-4.47.22.12h.33l3,.32,3.82-2.62.32.23a22.8,22.8,0,0,1,3.83,3.75c.67-.2,1.91-1.36,3.62-3.18l.11-.11.23-.21,5.44,1.61,2.48-1.89.11-.11.11-.11h.11l.11.11,2.29.52,7.68-6.34,2.28.73h0l.11.11.11.11.11.11.52,1,.57-.64h.11v-.11h.11l2.23-1.13,1.7-1.48-.33-3.42-.31-.45-2.11.81h0a5.8,5.8,0,0,1-2,.37l-2.41-.08a2.07,2.07,0,0,1-1.51-.82l-.1-3.52c-.75-.46-1.08-.7-1.4-.71l-.56.2-.78.41-1.55.28h-.44l-.1-.22-.83-1.57-.06-1.43h0l1-4.14H581v-.11l1.06-2.05-3-2.85-.11-.11-.11-.11.11-3.18.11-.11,1.92-5-1-2.78-1-.25-1.21.07L576.56,368l-1.5-1.15-1.51-.93-1.11-3.11h0l-.37-2.21v-.22l-.11-.11.34-.21,1.49-1.93.34-.21h.11l1.1-.18,1.22-.29,5.71,0h.11l.76.35.22.12.87.36,1.56-.61,1.35-.94.7-1.08.13-.55,0-2.42-1.2-.26-2.33.69a3.17,3.17,0,0,1-2.24,1.24c-.77,0-1.4-.71-2-1.94H580v-.11l-.06-1.54v-.22l.16-1.42-1.11-3-2.33.58-1,.84.22,3.3-3.57-1.77.81,2,.11.11v.22l-.4,2.18v.22h-.11l-2.18,2.89h0l-3.47,2-.39,2a5.49,5.49,0,0,0,.8,2.33l.11.11v.11l.12,2.86v.33l-.11.11-1.38,1.71h0l-.11.11H566l-1,.63h-.44l-2.5-.63a2.62,2.62,0,0,0-1.56.61l-1.14,1.17-.92,1.07a2,2,0,0,1-2.56.9c-.77-.13-1-.91-.71-1.89l0-.77-.08-.77-.46.53a1.21,1.21,0,0,1-1.12.51q-.65-.19-.94-1.35v-.11l-.14-2.53-.47-2.43-1.06-1.13h0l-.11-.11-2.13-5.34-.11-.11L548,355v-.11h-.11v-.11l-.34-2.87-.31-.45-.45.32c-.8.85-1.36,1.38-1.58,1.38s-.86-.47-1.72-1.16l-1.62-.82-.22-.12-.11-.11v-.11l-.1-.22,0-2.2h0l-.28-1.66-.8-2.22-.88,0a4.54,4.54,0,0,1-.29,2.19,3.68,3.68,0,0,1-1.37,1.6,3.88,3.88,0,0,1-1,1.72,1.28,1.28,0,0,1-1.87.16l-.33-.12c-.65-.24-.74-1-.58-2.44l0-.55-1.4-.93c-.54-.24-.85-.91-.93-1.9l.71-4.92-.19-.78-1.82,1.92-1.24.84-.35.76a6.25,6.25,0,0,1,.58,2.33,2.28,2.28,0,0,1-1.61,2.25l-2,.7-.56.31-.13.76-.1,3.07c.08,1,.17,1.54.5,1.56a1.84,1.84,0,0,0,2.09-.15l.67-.31,1.93,4.9v.11h0v.22c-1.06,8.64-2,13.56-3,14.84a2.29,2.29,0,0,1-1.45.72,3.73,3.73,0,0,1-2.07-.62c-3,5.61-5,8.51-5.9,8.92h.11c-.44.09-.71,1.51-.68,4l.64.57.21.23.21.23Z"/><path class="cls-2" d="M615.47,341l-.76-.35-.9.52-.58,1c-.47,1-.93,1.51-1.7,1.48a2.17,2.17,0,0,1-1.3-.7l-.11-.11-.11-.11h0l-.29-1.11v-.11l-.06-1.43-.65-.13-.11.11-.37,1.09-.05,1.54-.11.11-.11.11-1.38,1.71-.23.21h-.22l-2.63-.31h-.22v.11h0v.11l-.92,1.18.3.78h.11l-.81,1.18-2.41-.08v-.44l-.21-.23-.32-.23-.46.75-.12.33-1.65-.05-.11-.11-1-.8-.1-.22v-.11h-.11v-.22L594.1,346l-1.33.51L592,347l2.11,2.6,2.82,1,.11.11h0l.11.11,1.38,1.36-.62,2.18h0v.33h-.11l-1.92,1.47v.11h-.11l-3.1.78h-.11l-1.76.16h-.22l-1.19-.48-.65-.13-.69,1.08h-.11v.11l-1.46.94h-.11l-2,.81h-.11l-2.28-.84-5.06.05-1.11.29-.11.11-1,0-1.26,1.61.16,1.87,1,2.56,1.19.7h.11v.11l.43.34.8-1.07.11-.11.11-.11h.11l1.65-.17h.22v.11l1.63.49,1.52,3.79h-.11v.11l-.73,2.06h0l-.59,1.3v.11l-.83,1.84-.08,2.3,1.27,1.36h.11l1.71,1.6.22.12.11.11-1.42,3-.38,1.42.45-.21h.11l1.11-.4,2-1h.11l2.18.4h.11l3.25,1.43,3.62.12,1-1.28.11-.11.11-.11,1.89-.82,1.81-1.48.22-.1h0l1.33-.4,1.46-1.05,1.72-2.14,2.27,1,.33.12v.11l.11.11c.3.89.61,1.34.94,1.46l1.43-.17h.33l.76.25h.11v.11l1.84.72.55,0,.12-.43.24-.65v-.11l.11-.11.11-.11v-.11l.67-.42.11-.11,1.24-.95h.11l.11-.11h.22l1.09.15a2.85,2.85,0,0,1,1.05-1.94c.79-.52,1.35-.83,1.67-.71l.67-.42h.11V375l.57-.53v-.11h.11l.11-.11h.11l1.77-.38,1,0,.45-.31.35-.65h0l.59-1.08-.22-.12a5.74,5.74,0,0,1-1.22-2.9l-.11-.11h.11v-.11l.52-2.4a2.41,2.41,0,0,1,.83-1.84l-.15-2a1.11,1.11,0,0,0-.86-.58l-3.56,1.31.34-3.61c.13-.55,1.26-1.5,3.38-2.63L624,353a3.36,3.36,0,0,1,1.09-3.15l-.2-.67-1.1,0-.33.1-.6,1.52a1.88,1.88,0,0,1-1.35.83h-.22l-1.07-.8H620v-.33l-.3-.78-.07-1.1v-.11l-.12.22-.12.33-2-.07-.21-.45-.29-1.22.05-1.65-1.14-2.13.06-1.76Z"/><path class="cls-2" d="M636.8,370.14l.11.11.21.23-1.5,2.15a2.87,2.87,0,0,1-2.23,1h-.22l-1.08-.7L631,373l-2.25,1.57c-.56.2-1.2-.37-2.14-1.72l-.71,1.4h-.11l-.11.11h0l-.79.74-1.43,0-1.44.39-1.8,1.26-.55,0-.67.42c-.57.53-.8,1-.49,1.41l.73,1.12-3.06-.43-1.69,1.26-.24.54v.11l-.36.87-.11.11-.11.11-1.54-.05-1.95-.83-.66-.13-1.54.17c-.66,0-1.4-.82-2-2l-1.3-.59-1.15,1.61h-.11l-1.58,1.27h-.11v.11h-.22l-1.22.29-1.81,1.48h0l-1.89.82L595.19,386l-4.39-.15h0l-3.36-1.43-1.86-.28-1.68.82h-.11l-1.11.4c-.56.2-1,.52-1.34.61l-.24.54,0,1.32.52.9,2.66-.79a5.57,5.57,0,0,1,2.27,1l.22.12.11.11v3.73l.55.13,2.3.08,1.44-.28.23-.21a7.46,7.46,0,0,1,2.66-.79l.44-.1.21.34.61,1.34v.11l.21,3.63v.33l-2,2h-.11v.11l-2.34,1-.8.85.31.67,4.71.6.11.11h0l.11.11,1.83,1.16,4.17,0,0,.55.15,2.09V407h.11l-1.93,1.8c-.3,2.41.09,3.85,1.07,4.21l3.45,2,2.68,2,2.34-1,.22-.1.22-.1.11.11,3.42,2.75.54.24.91-1.07.23-.21.11-.11h.22l2.07.4.56-3.61,2.48,4.81,2.19.18.33.12h.22v.22l0,1.43.88-.19,3.78-4.71,1.46,2.36,0-.77h0v-.22l1.17-2.16,1-1.61,2.74.09.54-3.06H635l.21.12,2.07.4.26-1.09-.71-1.78v-.22l.48-1.19v-.22l.11-.11h.11v-.11l5.81-2.88-.12-3h0v-.11l1.17-2.16.23-.43h0l1.89-4,.11-.11h0l1.47-1.38.93-1.62v-.22h0l.81-1.29-.6-1.67v-.11h-.11l.06-1.76-.88,0-1.67.71c-.79.52-1.88.27-3.27-.66-.53-.46-.5-1.56-.11-3.19l-.87-.14-.46.53a6.56,6.56,0,0,1-2,1.69,1,1,0,0,1-.55-.13,4.9,4.9,0,0,1-.27-1.77c0-1,.05-1.65.39-1.85s.45-.42.67-.2L642.4,377l.6-1.41.38-1.64-1.17-1a2.59,2.59,0,0,1-.15-2.2l0-.66a1.5,1.5,0,0,0-.62-1.12h-.22l-.12.33a1.7,1.7,0,0,1-2.34.91,3,3,0,0,0-2-.07Z"/><path class="cls-2" d="M631.91,319l-.71-1.78-1.15-1.8-1.31-.37h-.11v-.11h-.11l-1.08-.59h-.22l-.44.09-1.43.17h-.11l-.21-.12-1.41-.6v-.11h-.11v-.11h0l-1.06-1.13-1.17-1.25-1.08-.69L619,311.65l-1.57,1-.55,3.28v.11h0l-1.51,2.37v.22h-.11l-1.13,1.06-1.4,2.48h0l-.12.22c-1,.74-1.92,1.47-2.82,2.1l-1.16,1.94c-.24.54-1.14,1.17-2.81,1.77l-1.16,1.83h0l-1.95,2.46h-.11v.11h-.22l-8.76-.84-1,1-.06,1.87.76,3.65L595,341l1.51.93V342h.11a4.78,4.78,0,0,1,1.24,2.46l0,1.43-.57.53.32.23H598l.7-1.3H599l1.74.61.09.55.88,0h0l-.2-.67-.1-.22,1.27-1.83c.24-.54.79-.74,1.55-.5l2,.17,1.14-1.39,0-1.32.49-1.41v-.11l.11-.11.11-.11.78-.41v-.11H609l.11.11,1.64.27v.22l.29,1.33,0,.66.19,1,.44.12.57-.75v-.11l.92-1.18.12-.22,1.22-.51h.11l.11-.11,1.41.49h.11l.22.12.72,1.56-.05,1.54,1,2.12h0v.22L618,347l.31.67h.33l.46-.53.12-.22,1.29.81h.22v.33l.38,1.88.54.35.12-.22.6-1.41v-.11l.12-.22h.22l.78-.41h.11v-.11l1,0-.2-.56v-.22l-.38-5.18-2-3.47-3.8-4.74-.11-.11-.12-3-1.24-2.35v-.11l-.11-.11h0l.12-.22.75-2.83H618l6.93-.21,3.8-1.85h0l.11-.11c1.33-.39,2.23-.91,2.47-1.46A4.62,4.62,0,0,0,631.91,319Z"/><path class="cls-2" d="M610.09,251.48l-.66-.13L608.12,258l1.79,2.26,1.73.83h.11l.11.11,2.24,1.94,3.16.87h.11l1.61,1.15h.11v.22l1.15,1.8.21.23-.12.22-1.16,1.72c-.23.21-.24.76-.27,1.64H619l-.07,2.08-.11.11h0l-1.1,3.26-.13.55h-.22l-.33-.12-1.42-.38-1.87,0-1.66.49-1.92,1.47-.45.42,2.37,1.29-.23.43a2.23,2.23,0,0,1-1.58,1.38l-1.54.06L606.25,281h0L604,279.62l-1,0-2.87,3.86-.59,1.3-.08,2.31,1,1.9v.11h0l.6,1.78v.22l0,2.53v.33l.1.22-1.77.27-3.29-.11-1.57.94-.69,1.08.11.11.55,3.31h.11l0,1.32.72,1.56,2.25,1.61,3.43-.65,1.68-1,.22-.1,1.54.05.81,2.11a4.59,4.59,0,0,1,1.15,1.8l.77-.08h.44l.12-.22L609.3,305l1.34,2.57,1.5,1,2.19.07,1.65-.16h.33l3.93.68h.11v.11l1.61,1h0v.11l1.39,1.14v.11l1,1.13,1.08.48,1.76-.16.08-2.3-.83-1.57h-.11v-.11l-.56-2.88,1.59-1.48.11-.11h.11l1.32-.18,1.43,0,.46-.53-.84-1.24-3.11-2.19-.73-1.23-.11-.11-.11-.11.12-.22.93-1.62.21.23,2.18.62,5.82,0,.11.11h.11l1.63.6,1.13-1-.44-3.42-2-1.39c-1.72-1-2.19-3.48-1.73-7.42l-1.73-.94-.22-.12h-.22v-.33l-.23-2.86,2.79-11.11a30.75,30.75,0,0,1-1.32-6.64l-.11-3.3.34-3.61v-.22l.23-.21h0l2.25-1.57.06-1.76a4.13,4.13,0,0,0-.7-2l-1.38-1.58h-.22v-.33l-.13-2.64v-.11l-.11-.11.22-.1V246l3-3.53.05-1.54-.82-1.68v-.11l-.1-.22,1.49-1.71v-.11h.11l1.58-1.16-.17-1.43-.77,0-1.2-.26-.75,2.61-.33-.12-2.82-1.19-1.74-.39.57,2.77-2.44.69-3.57,1.75-1.14,1.39h0v.11h-.11l-1.92,1.58-.42,2.62v.22L620.8,250h.11l-.5,1.74v.11h0l-.11.11L619,253.53h-.11v.11l-.11.11h-.11l-2.64.24h0v.11l-.11-.11h0L612,252.53l-.11-.11Z"/><path class="cls-2" d="M664.26,340.73l.11-.11h-.22v-.22l-.82-1.68-.11-.11v-.22l.31-2.63c0-.33-.31-.67-1-1.13l-.66,0-1.14,1.28h-.11l-2.79,1.23-.38-1.88V335l.25-.87-.18-1.1-.33-.12-.47.86h-.11v.11l-3.5,2.85-.12.22h-.55l-1-.47-.11-.11-1.06-1-1.73-.72h0l-.11-.11-1.07-.8-3.6-.89h-.11l-2.37-1.29v.11l-1.84-.94-2.41-.3-.88.08.63,4.09h-.33l-2.42.14-1.32,0h-.11l-1.29-.92-2.23.91-2.06,2.57-1.91,4.66.38,5.18.67,3c.1.33.09.44,0,.55l-.33.1c-.56.31-.8,1.07-.73,2.17l.95,4.54-.34.21c-2,1-3,1.88-3.15,2.31l-.27,1.53,1.89-.71.11-.11h.11c1.32,0,2.07.51,2.14,1.61l.25,2.43-.12.33-.23.21a1.52,1.52,0,0,0-.59,1.08l-.41,2.51a2.73,2.73,0,0,0,.82,1.89l2.21,2.82,2.14-1.58,1.65-.17h.11l.1.22,1.09.37a1.34,1.34,0,0,0,1-.41l1-1.39-.19-.88a2.4,2.4,0,0,1,1-.74l2.63.09c.43.23.76.14.77-.08a2.7,2.7,0,0,1,1-1.28,1.82,1.82,0,0,1,1.19.48c.75.68,1.28,1.25,1.25,2l-.29,2,.43.34c.64.57,1.06,1.13,1,1.57l-.5,2c-.37,1.09-.72,1.84-1.17,2v-.11l-1.76,3.46.54.24,2.63.2.54.24-.23.43a5.38,5.38,0,0,0-.41,2.4c.86.58,1.4.93,1.74.61l1.56-.61.78-.3,1.43,0,1.48-1.49.06-1.87a1.88,1.88,0,0,1,.27-1.42c.45-.31,1.33-.29,2.62.53l2.58,1.73a3.57,3.57,0,0,0,1.95.94v-.11c.23-.43,0-1.32-.47-2.43l-1.35-2.24v-.22H657l.12-.22c1.49-1.93,3-2.53,4.78-1.82l4,2,1.68-1h.11v-.22l-.21-.23.11-.11.12-.22c1.39-2.15,1.88-3.78,1.47-4.67a1.57,1.57,0,0,0-1.28-1.14h-.33l-.18-1.1h.22c.78-.3,1.23-.62,1.35-1.05l-.31-.56-1.7-1.7h0v-.11l-.8-2.44a16.28,16.28,0,0,1-.16-5.06l0-1.1-1.13,1-1,1.06-.18-4.62h0v-.22h.11a60.89,60.89,0,0,1,4.81-6l-1-3.33a26.54,26.54,0,0,1-.45-3.09l-1.95-.94Z"/><path class="cls-2" d="M627.42,298.75l-.12.43.53.68,2.79,2.07h0V302h.11l1.69,2-.23.21L631,305.57l-.11.11-.12.22-1.87-.06-1.1.07-.79.74.3,1v.11l.07,1.1.94,1.46v.11l-.1,3.07.87.36,1.52.49h.11l.11.11.11.11,1.36,2v.11h0l.7,2v.11h0l0,1.32a6.34,6.34,0,0,1-.61,1.85,7.08,7.08,0,0,1-3.14,2l-3.8,2.07h-.11l-6.82.21-.49,1.63,1.13,2.23v.22l.23,2.86,3.58,4.51H623v.11l1.45,2.57.12-.33V340l1.32-3.36h0l.11-.11h0l2.29-2.78.11-.11,2.79-1.23h.22l1.72,1.16,2.31-.14-.64-3.87.44-.09,2.09-.15,2.19.18h.22v.11l4.32,2.12,3.7.89H648l1.18.92,1.73.72v.11h0l1.06,1,.65.24,1.24-1.06v-.11l1.91-1.37,1.05-1.83,1.72,1v.22L659,334v.33l-.25.87.1.22,1.12-.51,1.59-1.48,1.43,0v.11h.11l1,.69c.64.68.84,1.24.6,1.78l-.19,2.41.62,1.23.22.12c2.73-2.77,4.53-4.13,5.63-4.1l3,.1.71-1.4,2.34-1H677l2.86-.12,3-1.44v-.11l1.87.06-.3-.89.12-.22.45-.42-3.77-8.8v-.22l-.11-.11,1.84-2.36-.53-.57-2.94-.65h-.33v-.22l-1.8-2,.12-.44-.11.11-.11.11-1.61-1.15a4.68,4.68,0,0,1-2.48,1.79c-.78.3-2-.61-3.54-2.64l-.84-1.13c-.1-.22-.88,0-2.1.37-1.89.6-3.1.67-3.64.32a3.64,3.64,0,0,1-.45-3.09,3.68,3.68,0,0,0-.15-2.2L648.27,306a10.12,10.12,0,0,1-2.91-1.74l-2.18-.62c-.87-.36-2.47-1.84-4.57-4.66l-1.47,1.16-2.17-.73-5.93-.09h0Z"/><path class="cls-2" d="M695.9,396.93a1.94,1.94,0,0,0,1.79-1v-.11l.12-.33h.44l2,0,0-1.43a2.64,2.64,0,0,1-1.62-.71l-3.19-3.07v-.11l-1.29-4.22-1.91-2a46.33,46.33,0,0,0-5.6-.19l-.44.09.07,1.32v.55h-.33l-1.78.71-.32-.23c-1.38-1.47-2.24-2.05-2.8-1.74-3.9,1.74-6.13,2.54-6.77,2.08a4.69,4.69,0,0,0-1.8,1.26l-.34.43-.42-.45a4.05,4.05,0,0,1-1.56-2.58c0-.44.81-1.29,2.18-2.67a14.21,14.21,0,0,0,2.4-2.89l-.31-.56c-.43-.23-1.32.18-2.45,1s-1.79,1-2.23.92c-.22,0-.43-.34-.52-.9l-.1-.22-.93-1.79-2.13,1.25-.23.21-.1-.22h-.11a30.29,30.29,0,0,0-4.32-2.12q-1.46-.54-3,1.22l.93,1.68c.6,1.67.9,2.78.54,3.53a1,1,0,0,1-.9.63c-.67.2-1.65-.05-2.82-1.08a26.67,26.67,0,0,0-2.36-1.62l-1.3-.59V381h0l.1.22-.08,2.41-1.82,1.92-.06,1.87.7,2,.11.11-1.27,1.83-.83,1.73v.11l-1.7,1.59-3,6.16v3.41l-.11.11-6,3.2-.35.65.71,1.78v.22l-.63,2.29-2.4-.41-.65,2.94L632,415l-.7,1.08h0l-.94,1.84-.78,6.9.61,1.45.1.22,0,1.43,1.26,1.69.1.22,0,1.32,3.52-.1.23-.32v-.11h.11v-.11l1-1.28-2.13-2-.21-.23-1.17-1-.11-.11-.11-.11.07-2.19,1.87.06.24-.76-.69-2.22,4.28.14,7.69-3.37,1-1.61.24-.54,1.51.71h.11l.1.33.63.79.77-.08-.17-1.65,2.52.08,2.4.52,1-1.61.11-.11v-.11l.22-.1,2.66-.68.57-3.83,2.66,2.51,1.09.26.57-.64-.05-8.35v-.66l1.85.39h.11l.22.12.11.11,2.78,5.48,3.75-.32.67-.2.59-1.3L673.3,406l-.31-.45,2.55-.79.22-.1.11-.11,1,1.13.89-.41.05-1.65.55-.09,1.87.06a4.23,4.23,0,0,1,3,1.86l.21.45.85-2.61c.46-.64,1.34-.72,2.64-.13l.21.12v.11l.11.11a.84.84,0,0,0,.43.23,40.23,40.23,0,0,0,5.84-3.87A2.87,2.87,0,0,1,695.9,396.93Z"/><path class="cls-2" d="M698.47,332.64l-.11-.11L696,330.36l-1.34.61a6.39,6.39,0,0,1-3.75,3.61,1.17,1.17,0,0,1-1.31-.26c-.42-.56-.16-1.76.67-3.6l-3.7,2.18-.12.22h-.11l-3.18-.11-2.9,1.33v.22H677.2l-1.68.82-.82,1.51-.23.21-3.62-.12c-.66,0-2.12,1-4.5,3.26a4.05,4.05,0,0,1,1.83,1.27l.09.66v-.11l1.44,6.2h0l.1.33V349h-.11l-.22.1h-.11L664.77,355l.17,1.54c.68-.53,1.23-.62,1.66-.38s.73,1.12.47,2.43a12.87,12.87,0,0,0,.88,6.62l1.48,1.7a1.81,1.81,0,0,1,.6,1.67l-.8,1.07.94,1.35c.51,1.12,0,3-1.39,5.56l1.35,2.46.2.56.9-.52c1.47-1.27,2.69-1.56,3.66-1.2a1.66,1.66,0,0,1,1.05,1.35c.08.77-.84,2.06-2.88,4l-1.6,1.92.73,1.23c1.13-1,2-1.25,2.56-1,.66,0,2.55-.57,5.78-2.11q1.51-.77,3.9,1.78l.67-.31-.07-1.32-.32-.23c-.21-.34,0-.66.36-1l-.48-2.1a1.86,1.86,0,0,1,0-1.1,4.57,4.57,0,0,1,1.23-.73l1-.84-.5-1.34V376h.11v-.11a1.77,1.77,0,0,0,.38-1.52c-.41-.78-.06-1.32.84-2.06l1.24-1.06-.21-.23-.32-.34,1.45-.61.06-1.76c0-.66.6-1.52,2.17-2.56l.68-.53h0l-1.58-1.92c-.52-.79-.27-1.77.75-2.72v-.22l3.5-2.74.14-.76c-.65-.24-.83-1.46-.44-3.31.54-2.95,1.9-4.33,4.22-4.58h.22l1.4.82,1.54.05,1.49-1.71h0l.11-.11,1.79-1-.17-1.54v-.33l.23-.21.45-.21L707,344l.11-.11-1-1.9a20.19,20.19,0,0,1-2.6-4.37,3.06,3.06,0,0,1,.44-3.28L702,333.08Z"/><path class="cls-2" d="M707,347.64l-.22.1L704.85,349l-1.71,1.81H703V351l-2.41-.08h0l-1.29-.81c-1.66.38-2.57,1.45-3,3.53l-.17,1.86,1.36-1.16-1,3.59v.22l-3.73,3.06c-.57.64-.81,1.18-.6,1.52l.63.79c.75.68,1.17,1.25,1,1.68a1.25,1.25,0,0,1-.36.87l-2.37,1.9a8.68,8.68,0,0,1-.08,2.41v.33l-.11.11-.89.3c0,.55-.25.87-.82,1.4L688,373.7v.11a2.7,2.7,0,0,1-.29,2.19c.51,1.12.49,1.88-.07,2.19l-1.13,1.06-.22.1-.56.2v.22l.68,2.66h.22a27.81,27.81,0,0,1,6,.2h.22v.11l2.34,2.49v.11h.11l1.29,4.11,2.87,2.84,1.19.48.22-3.4,2.65,2.83.45-.42,2.11-4,.4-2.29.33.12H707l2.08.18-.06-1.65v-.55h.33l2.74.2c1.47-1.38,2.17-2.56,2.2-3.55l-.31-4,2.39.85.7-1.08L716.07,375l-.31-.45L718,372.4l.1.22h.22l1.29.81v-.33l-.81-2,.34-.32.56-.31-.19-.78-1-2.12.22-.1.23-.21,3-1.55.15-1.2c-2.48-1.4-3.76-2.54-3.52-3.08s.35-.54.9-.52l3.27.66.18-2v-.22l1.7-1.59.48-1.19a3.93,3.93,0,0,1-1.5-1.15l-.1-.22V355l.13-.55-.1-.22-.22-.12-.11.11a1.64,1.64,0,0,1-1.56.72,4.14,4.14,0,0,1-2.92-1.42v-.11h-.11l-.83-1.57-.23.21a3,3,0,0,1-1.38,1.82,4.85,4.85,0,0,1-4.07.19,2.9,2.9,0,0,1-1.69-2l-.26-2.21c-.26-2.1-.66-3.32-1.31-3.67a2.48,2.48,0,0,0-1.85-.5l0,1.87Z"/><path class="cls-2" d="M725.36,316.83a12.71,12.71,0,0,1-3,1,10.91,10.91,0,0,1-3.27-.88l-2.51-.41c-.78.3-1.69,1.37-3,3.2l1.53,3.57-2.79,1.44h-.11l-2.17-.73c.82,1.68,1,2.67.67,3.1l-.25.87a8,8,0,0,1-1.51,2.48l-4,3.28,1,.58-.68.53c-.9.74-1.15,1.61-.74,2.28l2.5,4.15h.11v.11l1.13,2.23v.11l.11.11-.12.22v.33l-.23.21a2.91,2.91,0,0,1,1.52.6c.86.58,1.47,2.14,1.72,4.45l.37,2.21a1.65,1.65,0,0,0,1,1.13,2.94,2.94,0,0,0,3-.23c.56-.31.9-.63.8-1l-.11-.11v-.22l1.91-1.26.21.23,1.35,2.46a2.87,2.87,0,0,0,2,.72l.55-.09h0l-.4-1.33,2.06.95.55,0h.11l.1.22,1.92,1.6.58-.86V350.4l.11-.11h0l1.37-1.6c.12-.22,0-.66-.51-1.22l-.32-.34.23-.21.12-.22.33-.1,2.89-4.41.22.12.55.13.21.12v.22l-.28,1.75h.22l3.16-2.64-.17-1.43-.55,0-1.1.07,2-5-1.64-.27h-.22V335l-.53-.68a1.48,1.48,0,0,1,.17-1.75l2.64,0,1.65.05a7.4,7.4,0,0,0-1.21-3.23l-2.28-.84,2.49-2.22,0-.55-1.21.18h-.44v-.11l-.1-.11-.1-.22a3.26,3.26,0,0,0-1.9-2.37l-4.39,0-1.94,2.13v.11l-.55-.13-6.84-2.42,6.75-1.53c.44,0,1.57-1,3.51-3.18l-2.25-1.72Z"/><path class="cls-2" d="M699.88,296.87h-.11v-.11c-1.07-4.21-2.09-6.55-2.85-6.91l-3.8-1.44a22.64,22.64,0,0,1-4.34-1.68,15.52,15.52,0,0,1-4-4.86l-.66,0,.11.11a13.92,13.92,0,0,0,2.81,4.71l.11.11.1.22-1.86,3.12c-.7,1.19-1.37,1.71-2,1.47a14,14,0,0,1-2.64-3.16l-1.85-.61a10.92,10.92,0,0,0,1,3.44v.44l-.37,1.2-2,.81h0l-.66.2a1.73,1.73,0,0,0-.27,1.53c.17,1.65,0,2.64-.32,3.07a.6.6,0,0,1-.56.2h-.11l-2.18-.51a2,2,0,0,0,.95,1.24,14.77,14.77,0,0,1,2.72,4.15l.1.33h0l1-.19a4.29,4.29,0,0,1,3.37.88l1.16,1.47.11.11v.11h-.11l-.21,2.85a1.43,1.43,0,0,1,.28,1.44,1.61,1.61,0,0,1-1.46.94c-.88,0-1.33.51-1.59,1.6h0v.11l-.94,1.84,1.27,1.36,2.84.64h.22l1.38,1.58-1.84,2.58,3.77,8.91.1.22-.68.75.2.67h.11l7.62-4.47-1.28,2.15a14.47,14.47,0,0,0-1.89,4,5.41,5.41,0,0,0,3.18-3.19l.12-.22h.11l2.12-1,.12-.22,2.88,2.73,3.29.22.11.11,1.5,1,4.18-3.38a6.73,6.73,0,0,0,1.17-2l.47-.86c.12-.43-.39-1.55-1.42-3.45l-.94-1.46,4.77,1.81,1.45-.72-1.33-3.12-.1-.11,2.52-3.1-.94-1.57c-1-1.13-1.59-1.7-2-1.72l-.22.1-1.25,1.17-.21-.12h-.22l-2-.72-.49-1.77a3.62,3.62,0,0,1-2.15-1.39l-1.18-.81c-1-.47-1.5-1-1.48-1.59a2.82,2.82,0,0,1,.74-2.39c1.26-1.72,2-3.12,2-4.22l0-1.43.76.13,2.52.19a11.5,11.5,0,0,0,1.1-3.26l-.76-.14a18.41,18.41,0,0,1-4.14,2.17c-1.22.29-2.73-.42-4.88-2V297Z"/><path class="cls-2" d="M690.36,222.94l-.32-.23c-.55,0-1.12.51-1.7,1.7l-.32-.23-.11.11.1.11-1,1-.45.2-1.23.62-.14.76a2.49,2.49,0,0,1-.85,2.39l-.48,1.3a7,7,0,0,0-.19,2.41l.55,3.31a3.38,3.38,0,0,0,1.82,1.49l2.5.74a5,5,0,0,0,2.56-.9l-.62-1.23v-.33l.25-1V235l1.28-2.15,2.08.07.55-.09a13.19,13.19,0,0,0-2-3.47l-.73-1.12a8.4,8.4,0,0,1-.88-3.22A8.46,8.46,0,0,0,690.36,222.94Z"/><path class="cls-2" d="M722.37,191.93,721,193.64a2.93,2.93,0,0,0-.18,2.08l0,.66-2.63-.09H718l-1.85-.61-1.5,2.15-.23.21-1.79,1-1.59,1.6h0l-.23.32h0L708,204.08v.11h-.11l-2.12,1-1.61-1.15V204h0l-1.48-1.7-1-.58.62,4.52.58,2.44-1.7,1.48-2.42,3.33,0,1.43-.11.11h-.11l-.58.86.41.78.88,0,3.15,1h.22v.11h.11l.64.68.86.47h.22V219a2.28,2.28,0,0,1,.5,1.34l.3,1,3.37,1.1,1-.19,1-1.28,2.8-5h.11v-.11l1.26-1.61.11-.11,2.12-.92,1.43-.06c.58-.86,1-1.28,1.58-1.27a5,5,0,0,1,1.73.72l.21.12v.11l1.77,2.91v.11h.11v.22l.15,2.09-.19,2.3h0l-.61,2h0v.22h-.11l-1.49,1.71-.71,1.4,0,2.42h.22l.78-.3.9-.74.23-.21.12-.22,1.06,1v.11l-.06,1.76h-.11l-1,.41-.34.43,0,1-.11.11h0l-.7,1.18h-.11l-.22.1-.88.08-.88.19-.7,1.18.1.22,3.64-.32.68-.53,1.31-3.14h0l8.4-8.07h.22l1.79-.82.11-.11v.11l1.43,0,1.44-.28,1.56-.61,1.14-1.17,1.92-4.77h0v-.11l7-6.91v-.11l-.31-3.86a2,2,0,0,1-1-.69l-.21-.23v.11l-1.1.07a2.8,2.8,0,0,1-1.28-1l-.31-.67v-.11l-.11-.11.2-5.93a5.44,5.44,0,0,1-2-1.5l-1.38-1.58-1.25-1.91a4,4,0,0,1,0-2.09l.13-.55-.74-1-.14.87-1,1.83h-.33a5.4,5.4,0,0,1-2.29-.52,1.42,1.42,0,0,1-.94-1.46V187l-.55,0-2.1.48-1.49-1.59-.55-.13-.57.53.62,1.12.21.34L730.12,190H730v.11h-.11l-2,2.13-.11.11h-.22l-3.08.23Z"/><path class="cls-2" d="M725.9,158.43l-.36-2.32-1.12.62h-.11l-2.67.9-.1-.22-.43-.12,0,1.21-.11.11-1.38,1.93h-.11v.11h-.11l-2,1.58h-.22v.22l-.32-.23a4.51,4.51,0,0,1-2.36-1.84,1.45,1.45,0,0,0-.54-.35l-1.43.17-.91.85,2.24,2.05,1.84.83.11.11h.11l.1.22v.11l.26,2.21h.11l-.11,3.4.37,2,1.21,3.12,1.49,1.48,1.24-.84.92-1.07v-.11h.11l1.6-1.81,1.28,1.25v.11h0v.11l1.23,2.57,1.62.71.79,2.66v.22l-.19,2.41v.11h-.11L727,185l1.17,1.14,1.34-.61,1.36-1.27.32.23,1.09.37h0l1.28,1.25,1.44-.28c1.11-.29,1.65.05,2,.83l0,1,.21.12,1.52.49.71-1.4,0-.55c0-.44.14-.87.47-1l.88.14a2.48,2.48,0,0,1,1.68,2.25l-.14.76,0,1.32,1.15,1.8,1.37,1.58a3.37,3.37,0,0,0,1.5,1h.22c.32.23.52.79.48,2l-.16,4.94a1.7,1.7,0,0,0,.85.91h.22a1.23,1.23,0,0,1,1.64.38l.32.23a1.46,1.46,0,0,1,1.05,1.46l.13,2.75,2.7-5.07c.86-2.72,1.79-4.33,3-4.51,1-.3,2.52.3,4.46,1.47l7.11.79.27-1.53-3.19-3.29q-2.26-1.39-1.91-2l2.52.19c2.28.84,4.52-.4,6.73-4.06h.11l2.49-2.22.5-5,0-.55h.55l1.88-.38h.33l.22.12v.11l3.71,4.19,1.11-.4.24-.65-2-2-.32-.23-.21-.34,3.24-1.76-.07-4.62-1.32.18H783l-1.73-.94a9.83,9.83,0,0,1-2.81-1.41c-.65-.35-1.08-.69-1.06-1.13v.11c0,.44-.13.65-.36.76a2.65,2.65,0,0,1-1.55.28h-.11l-.1-.11h-.11l-1.5-1.15-1.35,1.05c-.68.53-1.13,1-1.14,1.39l.61,1.45a.9.9,0,0,1,.19,1,2.24,2.24,0,0,1-1.56.72l-.67.31a1.64,1.64,0,0,1-1.85-.5l-.21-.34-2.76-3.06a3.89,3.89,0,0,1-2.36-1.73,1,1,0,0,1-.19-.89,4.79,4.79,0,0,0-.48-2l-.56.31-.12.22a1.77,1.77,0,0,0,.4,1.11l.1.22.11.11-.12.22-1.62,2.47-2.51-.63-.54-.35h0v-.33a1.88,1.88,0,0,0,.05-1.54l-.3-.89-2-1.61-.11-.11c-.23.32-.45.31-.67.42l-2-.29c-.66-.13-1.09-.26-1.29-.7a1.62,1.62,0,0,1,.15-1.2l.12-.33-.83-1.57-3.85.09a1.79,1.79,0,0,1-.26,1.31c-.12.33-.56.42-.89.41a1.67,1.67,0,0,1-1.74-.61v-.11h-.11a3.8,3.8,0,0,1-1.13-2.45l-.73-1.12-1.12.73c-1,.52-1.66.49-2,0l-.43-.12-1.1.07-3,.89a2.9,2.9,0,0,1-1.66.49h-.33a2.91,2.91,0,0,1-2.17-.84L728,161.9Z"/><path class="cls-2" d="M794.84,140.06l-1.29-10.81.12-.22h.11c.81-1.18,1.28-2.15,1.09-2.93l-.42-.67c-1.18-.81-1.67-2.58-1.25-5.53l-1,0a4,4,0,0,0-2.55.68,3.88,3.88,0,0,0-1.6,1.92c-.48,1.3-1.94,2.13-4.38,2.82l-.66,3.38v.11l-.11.11-1.28,2.15-.12.22h-.22l-10.93,1.61h-.44v-.22l-3.07-3.51,1-1-1.15-1.69-1.5-1.15-.11-.11H765V125l-.45-3-2.86.12-.21-.23-2.37-1.51-8.62-1.82-7.23-.57-.23.21a.67.67,0,0,1-.65-.35l-3.86-9.58a73.14,73.14,0,0,0-5.46-7.54,84,84,0,0,0-5.48-6.88l-5.95-6.24-1-.58L713,86.7h-.11l-.21-.23a8.89,8.89,0,0,0-3.46-1.54q-2.11-.89-10,3L699,88l.17,1.54h.11v.11h-.11v.22l-.94,1.73v.11h-.11L698,92.9a8.88,8.88,0,0,0,.45,3l.75.57,1.65-.06,1.42.38.56-.42a2.24,2.24,0,0,1,.83-2l1.1,0,3.8,1.22.87.14-1.28,2-.08,2.52c0,.55.93,1.9,2.84,3.83a7,7,0,0,0,2.59,1.51l.55-.09.56-.2,1.93-1.8,1.46-.83v-.11h0l3-.34.94-1.84,2.68-1.45,2.26,1.39v.11l.22.12,2.07,3.8.79,2.55v.33l-.54,3.06.81,2.11v.33l-.74,2.39-.07,2.19a20.54,20.54,0,0,1,.87,3.65l-.28,1.86h0v.11l-1.15,1.5v.11h0L727.64,126l-.19,2.41.58,2.55h0l.11.11-.11.11h0l-.79,3.82-.57.53a1.49,1.49,0,0,1-1.65-.05h-.22l-1-1.13-1.11.29-1.48,1.49-1.69,4.45v.11l-.11.11L717.87,142h-.22l-.88.08-1.84,2.47.82,1.68.21.23,2.1,2.82v.11l0,.88,2.4.41.37,2.21V153l.24,2.64.64.57,2.22-.59,2.12-1.14.34-.21L727,158l.94,1.46.21.12.72,1.56,1.6,1.37c.21.34.76.35,1.31.37l.55.13,1-.41a8.85,8.85,0,0,1,2.44-.69l.67-.31,1.54-.06a1.27,1.27,0,0,1,1.08.48l2.24-1.35h.22l.21.12.11-.11.21.23a4.58,4.58,0,0,1,1.24,2.35l.93,1.68.76.25h.22L745,165a1.77,1.77,0,0,1,0-1.1,1.5,1.5,0,0,1,1.34-.5l4.06,0,.11-.11h.22v.22H751l1.13,2.34-.15,1.2h-.11l1.52.38h.11a.65.65,0,0,1,.13-.76l.55-.09,3.54,2.64a2.51,2.51,0,0,1,.62,1.34l.06,1.54,1.2.26.81-1.29a2.94,2.94,0,0,1-.38-1.77,1.26,1.26,0,0,1,.69-1l.34-.32c0-.22.12-.33.34-.43l1,.14c.54.35.94,1.46,1.1,3.33v.22l.22.12c.1.44.74.79,1.72,1.16h.11l.11.11,3.39,3.74h0l1.66-.49-.2-.56A2.34,2.34,0,0,1,770,174q0-1.15,1.72-2.25l1.92-1.58,2.14,1.61h.44l.52-2.4v-.44l.44-.1,1.75.28a1.57,1.57,0,0,1,.51,1.23,2.79,2.79,0,0,1-.71,1.4l.32.23a11.28,11.28,0,0,0,2.6,1.18h.11l1.4.82,1.1-.07-1.38-8.07a11,11,0,0,1-3-3.61c-.72-1.34-.22-3.19,1.6-5.33a34.23,34.23,0,0,1,3.62-3.18h0l.12-.22,1.54.05.1.22,1.3.59,2.74.09c1.12-.51,2.16-2.13,3.34-4.72C795,148.2,795.12,145,794.84,140.06Z"/><path class="cls-2" d="M727.9,247.15l-.22.1a.81.81,0,0,1-.91.85l-4.26-.58a24,24,0,0,1-5.88-1.73l-6.23,5.51.14,2.42v.22L710,254q-7.11.75-7.53-1.57l-.32-6.82-5.48-.51-2.46,4.75-.15-2.09c-.05-1.65-.35-2.65-.67-2.88L690.91,246l-1.14,1.39-.11.11h-.11l-2.22.69a49.18,49.18,0,0,0-6.57,6L674.67,262l1.12,2.78v.44h0l-.11.11c-.46.64-.27,1.64.35,2.76a9.83,9.83,0,0,1,1.16,4.76v.33l-4.81,2.59,0,1.1,2.16,1.06a.59.59,0,0,1,.31.45v.22c-.13.55.72,1.34,2.35,2.17l4,1.23,1.23-.73,1.38-1.82,1.2-3.15,3.14,1.31.43.34v.22h0v.11c-.59,1.3-.29,2.19.68,2.77l3.51.23a6.24,6.24,0,0,0,2.89-1.11c.46-.53,1.12-.62,2.1-.48a4.75,4.75,0,0,1,3,1.75l.83-1.84.23-.32h.11a4.15,4.15,0,0,0,1.37-1.6,4.52,4.52,0,0,1,1.83-2l1.56-.83.11-.11.11.11H707l.87.25h0l.22.12,1.39-5.45v-.11l1.77-.27c1.8-1.15,2.71-2.11,2.63-3l-.28-1.66a2.71,2.71,0,0,1-.15-2.2,1.13,1.13,0,0,1,.89-.41,5.77,5.77,0,0,1,2.5.74l.28-1.75v-.22l.11-.11,1.9-.82.25-1-1.1,0-.21-.12.13-.55v-.33l.12-.22h.55a4.24,4.24,0,0,0,2.68-1.23l7.08-4.71h.22l2.16,1.06.88-.08-.47-2.32v-.22l.11-.11.11-.11,1.27-1.94-.32-.23-.78.19v.11h-.11l-2.21.26-.55,0h-.11v-.11l-.1-.33-.41-.78Z"/><path class="cls-2" d="M720.39,288.1c-1.17-1-2.1-2.82-3-5.59-3.18-.11-5-.72-5.87-1.84-.63-1-1.92-1.71-3.77-2.32l-.55-.13.61-1.85-.32-.23-.55-.13a4.66,4.66,0,0,0-2.6,2.11,6.77,6.77,0,0,1-1.72,2.14q-.91,2.61-1.73,2.58c-.33.1-.55-.13-.75-.46l-.85-.8a4.78,4.78,0,0,0-1.84-.72l-1.1.18a5.82,5.82,0,0,1-3.56,1.42l-4.16-.36a3.07,3.07,0,0,1-1.42-3.67l-1.52-.6-.84,2.17h0v.11l-.11.11-.34.43,1,.25h.22l.11.11v.11c1.78,2.59,3.15,4.28,3.91,4.74a34,34,0,0,0,4,1.45l3.9,1.56c1.19.59,2.32,3,3.49,7.37,1.72,1.27,2.8,1.85,3.57,1.77a32.34,32.34,0,0,0,4-2.17l.11-.11.11-.11.22.12,2,.5h.22v.33l-.12.33q-1.12,3.92-1.8,4.55l-2.64,0v.11c0,1.1-.86,2.72-2.36,4.76a2.87,2.87,0,0,0-.6,1.52l2.47,1.84c.63.79,1.06,1,1.61,1l.55,0,.49,1.88,1.19.48.68-.64a1.21,1.21,0,0,1,1.11-.4c1.1,0,2,.72,3,2.19h0l.94,1.35.11-.11c.67-.42,1.88-.27,3.62.34l2.83.75,2.66-.79,1.12-.51.79-.52-.63-.79c-.2-.45,0-1,.6-1.52a2.41,2.41,0,0,0,1.16-1.72l0-1.32a1.27,1.27,0,0,1,.15-1.31c.23-.43,1-.63,1.89-.82,1.43-.17,3.17.54,5.19,2.37l-.69-2.22-1.15-1.69-.15-2-1.85-.39h-.11v-.11h0l-4.84-3-2.4-.52,0-.55,0-2.53C722.56,292,721.34,289.12,720.39,288.1Z"/><path class="cls-2" d="M728.69,107.32l-.69-2.44-1.86-3.47-1.62-.93-1.68.82-1.05,1.94-.12.22h-.33l-3.09.45a2.63,2.63,0,0,0-.9.63l-.68.75L715,106.54l-.45.2-1.43.17a8.23,8.23,0,0,1-2.91-1.74l-.11-.11q-3.18-3.4-3.14-4.72l.09-2.85v-.22l.35-.54-3.15-1.2-.15,1.09a1.57,1.57,0,0,1-.92,1.07l-1.11.4-.43-.12v-.11L700,97.47l.29,1.22-2.79-2h-.11l-.11-.11h0a10.68,10.68,0,0,1-.54-3.75,2.94,2.94,0,0,1,.62-2.18l.7-1.19-.19-1-2.87.34A3.34,3.34,0,0,0,692,91.38v.11h0L690.25,94l1.65-.06H692l.11-.11.1.22,1.3.59h.22l.21.12v.33l.14,2.31.59,2.22v.33l-3.86,7c-.69,1-1.11,3.59-1.46,7.53v.33l-1.52,2.7,1,1.13v.22c.06,1.65-.09,2.63-.53,2.84l-.33.1c-.78.41-3.39,3-7.62,7.77l-.34.32-.22-.12-.32-.23a20.61,20.61,0,0,1-3.42-2.86c-.64-.46-2.28-.84-5-.94l-.28,5-.11.11-2.29,9.48c-.48,1.19-.66,3.38-.77,6.68l.73,1,.7-1.29H669l.12-.22,2.57-1.23,7,1.33.8-.85,1-1.72.22-.1h0l.11-.11,2.76-.46,3.63-.1c1.09.26,2.36,1.73,3.93,4,4.32,2.34,6.67,4.4,7.16,6.17a2.81,2.81,0,0,1-.08,2.3,2.44,2.44,0,0,1-2.24,1.24H696c-5.37-.4-8.44-.5-9.55-.21l-2.69,1.67c-3.37,2.31-5.61,3.44-6.82,3.4l-2.2.26-1.5,5.44a5.46,5.46,0,0,1-2,3.45,7.36,7.36,0,0,1-4,1.62,15,15,0,0,0-5.56,1.9l-2,3.89-.11.11h-.22l-5.12,1.92h-.33l-2.51-.63a11.88,11.88,0,0,1-4.45-1.69,5.74,5.74,0,0,0-4.27-.47,10.67,10.67,0,0,0-2.09,6.63,3.74,3.74,0,0,0,.69,2.44l.77-.08.9-.52.1,3.52a3.19,3.19,0,0,1-1.41,2.7,9.56,9.56,0,0,1-3,1.22l-.88.19c-1.11.4-3.52,3.29-7.1,8.55v.11h-.11l-3.36,1.87c.55,0,.87.25.75.68s-.46.53-1.34.61l-9.32-.53c-10.41-.68-18.63,1.91-24.64,7.64l-.11.11-.22.1h-.11l-3.86.31-.22.1h-.22l-1-2.67-4,.86a16.29,16.29,0,0,1-7.83-2.24,34.71,34.71,0,0,1-7.74-5.09,13.62,13.62,0,0,0-6.06-2.84l-3.5-.45-4,.42a35.69,35.69,0,0,1-8.35-.06,53.46,53.46,0,0,1-11.55-2.91l-.35.65h.22l.11.11v.11l.07,1.1.92,2.12,2.21,2.93.1.33-.51,2.07v.11h-.11l-1.38,1.71,1.38,1.47c.53.57.84,1,.83,1.46l.26,2.1,1.59,1.7v.22l.17,1.43,0,1.1,1,.8.67-.2.12-.33a2,2,0,0,1,1.69-1.37l.89-.3,5.84-.36,2.33-.8.22-.1.34-.21,1.12,2.67h.11a2.44,2.44,0,0,1-.39,1.74L549.89,225l.19.78,1.38,1.47,1.4.93H553a4.21,4.21,0,0,0,1.81,1.71,4.59,4.59,0,0,1,2.14,1.83l.1.33,1.08.48.33.12h.11l.29,1.22h0l.07,1.21.38,1.77,2.73.53h.22l.11.11v.11l.1.22.72,1.56,2.17.84,1.56-.72-.19-.89-1.38-1.36.23-.21v-.22l1.28-2.26,2.63.09.11.11,3.69,1.44,2.1-.26,1.7-1.48c1.94-2.24,3.18-3.19,3.93-2.62l.88-.08a6,6,0,0,1,1.86.28,1.57,1.57,0,0,1,.2.67,8,8,0,0,0,1,2.56v.22l.28,1.55v.33l-.5,1.74h0v.11l-.11.11-1.94,2.13-.11.11h0l-4,1.62-.59,1.08-.65,3.16.28,1.55.93,1.68.43.34,1.29.92,4.61.15,3.86-.42.57-.53a2.07,2.07,0,0,1,1.45-.83l2.62.53.23-.43a2.32,2.32,0,0,1,.29-2.08l1.16-1.83.12-3.51v-.11l2.16-5.64.11-.11V237h.11v-.11l3.49-2.63.23-.21,2.92,1.41h0c1.5,1.15,2.24,2.05,2.22,2.6l-.3,2.41-1,1.5-.84,2.17-.08,2.41.73,1.12,1-.08.22-.1,1.64.16a4,4,0,0,1,1.79,2.37l1,.36h.22l3.67,1.88,1.63.6,2.32-.25,1-1.28,1.5-5.33.21-3v-.22l.22-.1.11-.11,2.14-1.69,1.26-1.5.11-.11,2.23-.92,1.34-.72,1.67-.6-.77-3.32,3.72.56h0v.11h0l1.95.83h0v-.11l.62-2.07v-.33l.33.12h.22l1.74.5.88,0,1.71-1.81h.11l.11-.11h.11l2.21-.37,1.92-1.69,1-1.39.06-1.76a1.51,1.51,0,0,1,1-1.39h.33l2.08.29.9-.52.38-1.53,2.22-.59h.22L656,223l2.21-.48,1.36-1.27.94-1.73-1.59-1.81v-.11h0l-.29-1.33h0l-.37-2v-.11l1-1.72a3.4,3.4,0,0,1,1.28-2.15l1.29-2.37v-.11H662l1.16-1.72,1.76-3.24,1.46,2.25.11.11v.11l.48,2.21v.11l.26,2.21,1.51.71h.11l.43.23.11-.11,1.39-2.26.84-2.17.33.12.33.12,3.15,1.2,1.58-1.16.11-.11h.22l1.54-.06,1.16-1.83.08-2.3.89-3.49.21.12h.33l2.4.63,1.16-1.94h.33l2.2-.15h.33v.11l.22.12,1,1.57v.11l.11.11v.22l.15,2.2,1.06,1,1.58-1.38.32.45a2.34,2.34,0,0,1,.71,1.78l-.07,2-.83,1.95.52.9,1.06,1.24,4.59.81.11.11h0l.22.12h0l.32.34,1.38-1.82h.11l1.13-1.06-.39-1.66-1-7.06,3.13,1.64h.22l1.37,1.8.85.91,1.35-.83,4.78-4.89h.11l1.69-1.15,2-2.57.12-.22,2.5.74,1.21,0a7.41,7.41,0,0,1,.4-2.07l1.94-2.13.56-.31,2.17.84,2.64-.24L729,189.4l.93-1.62-.52-.9-1.56.72-.11-.11-.11-.11-1.92-1.82-.11-.11.87-2.94.29-2.19-.49-1.88-1.52-.6v-.11l-.11-.11-.1-.11-1.23-2.68-.21-.34-1.94,2.13-1.91,1.14-.45.21-.11-.11-.1-.22-1.91-1.93v-.11l-1.32-3.12v-.11l-.59-2.22V170h0l.11-3.29-.15-2-1.52-.6h-.11V164l-3.42-2.86.23-.32,1.7-1.7v-.22h.22l1.87-.16h.11a2.05,2.05,0,0,1,1.51.93l1.5,1.26,1.69-1.26,1.26-1.61,0-1.43-.32-3.53-.28-1.44-2.4-.52,0-1.43-2.1-2.82-.11-.11-1-2-.21-.23v-.22h0l2.52-3.1v-.11l.11-.11V141h.22l1-.08,1.24-.95,1.57-4.34h.11v-.11l1.82-1.92v-.11h.22l2-.48v.22l1.28,1.14.44.12.88-3.38-.69-2.44-.11-.11v-.22l.42-2.73v-.22l1.36-1.38.93-1.51.15-1.31a11.1,11.1,0,0,0-.87-3.43h0l.09-2.63V115l.63-2.29a7,7,0,0,1-.69-2.33Zm-69.25,116.9v.55l0,2.64.11.11v.22l.11.11,2.16,1.17h.11l1.85.5.4,1.33-.67,3.6-.59,1.19-2.1.26a1.36,1.36,0,0,0-.89.41,2.24,2.24,0,0,0-.39,1.75l-.84,2.17v.11h0l-.43,3v.33l.6,1.78h0v.22h.22l3.33,2.2,1.14,2.13-1.86,3.23-.37,1.2L660,257h0l-.5,1.85a4.67,4.67,0,0,0-1.16,1.83,1.46,1.46,0,0,0,.37,2.1l1.58,2,.06,1.54h0l-.57.75a2.73,2.73,0,0,0-.41,2.51c.32.34.3.78-.15,1.2l-.11.11v.44l.28,1.44L658,273.94h-.11l-.11.11-.08,2.3a16.28,16.28,0,0,1-4.22,1.29l-4.81-.6h-.22l-.11-.11-.23.21-2.26,1.9-8.56,3h-.11l-2.72,2.55-1.62-.82-.15-2.2,2.79-11.11v-.33a21.9,21.9,0,0,1-1.33-6.31l-.11-3.3.33-3.28,2.25-1.57.11-.11h.11l.08-2.41a5.58,5.58,0,0,0-.9-2.78h0v-.11l-1.38-1.36-.15-2.2,1.71-1.81v-.11l1.26-1.72v-.11h0l.07-2.08v-.22l-.61-1.45.91-1.07,1.7-1.48.33-.1v-.44l-.27-1.88,1.48-1.49,2.21-.37.11-.11h.11l2.15-2h.11v-.11h0l1.26-1.5.11-.11.07-2.19.12-.22,2.19.29h.22l.22-.1,1.23-.73.12-.22h0l.37-1.2,1.44-.39,2.51.52h.22l2.66-.68h.22l.11-.11h0l1.48-1.6h0v-.11l.93-1.4.74.9.71,1.78-.46.53Zm44.4-3.69.49,1.66v.11h.22l2.71,1,.11.11-.34.21-1.68,1h-.11l-.12.22V225l-.62,2.18v.22l-.84,2.06-1.83,2.14-1.9.93-4.3.41a10.83,10.83,0,0,0-2.18-3.92l-.84-1.24a6.86,6.86,0,0,1-.68-2.77,9.53,9.53,0,0,0-.79-2.55,1.5,1.5,0,0,0-1.08-.69,3.31,3.31,0,0,0-2,1.58l-1-2.67c.13-.65.37-1.2.92-1.18a.78.78,0,0,0,.8-.85l-.19-.88-.75-.68L685.5,217,683,215.12a4.28,4.28,0,0,0-3.39-.55l-.9.63c-.58.86-.27,1.64.8,2.33l.21.23-1.64-.16a1.38,1.38,0,0,0-.58,1c-1.66.49-2.56.9-2.68,1.45l-.11.11a3.13,3.13,0,0,0,.67,3,10.72,10.72,0,0,1-2.5,2.44,1.64,1.64,0,0,0-.83,1.95,2.35,2.35,0,0,0,1.05,1.35,2.42,2.42,0,0,0,1.62.71l.88,0,1.85.5,1.5,1.15,2.29.63a1.8,1.8,0,0,0,1.56-.61,13.65,13.65,0,0,0,.59,5.29,3.62,3.62,0,0,0,2.13,2l3,.87,1.44-.28-.57.64v.22l.1.22,1.05,1.35h.11v.11l1.38,1.47.64.57a9.81,9.81,0,0,0-2.57,1.34v.11L689,246.41l-2.11.7h-.11l-6.91,6.25-6.54,8.46h-.11l.1.22,1.22,3-.24.76a6.68,6.68,0,0,0-3.86.31,9.77,9.77,0,0,1-3.87.75l-3.92-1-1-.36-.2-.67h0v-.11h0v-.44l-.1-.33h0l-.22.1-.52-.9h0l-1.06-1.24-.11-.11a.52.52,0,0,1-.09-.66,3.08,3.08,0,0,1,1.15-1.5v-.11l.12-.22.5-2,1.18-2.49h0l.48-1.08,1.88-3.78.11-.11-.11-.11v-.11l-1.35-2.46-.11-.11L660,244.9l-.5-1.56.42-2.73.85-2.39,0-1.1,2.76-.35h.22v-.33l.93-1.62v-.11h0l.67-3.71v-.22h0l-.59-2.22-2.4-.63-1.62-.93-.16-1.76,2.21-.37.23-.21.91-1.07h.11l.12-.22v-.22l-1-2.34h0L660,217.1l-.58-2.55a4.69,4.69,0,0,0,1.06-2.05l1-1.39h.11V211h0v-.11l1.18-2.49,1.38-1.71h0l.82-1.51.31.56.48,2,.24,2.64v.11l.11.11.32.23,1.73.83,1.31.26a1.47,1.47,0,0,0,.9-.74l1.39-2.15v-.11l.47-1.08,3,1.09.11.11h.22l.23-.21,1.69-1.26,1.65-.06h.11l.22-.1v-.22l1.5-2.15.11-.11.08-2.41.52-2.4,2.61.64.11-.11.12-.22,1-1.72,1.65-.06.73,1.23.25,2.43v.22l.21.23,1.6,1.37.33.12.21.34.23-.32.11-.11.91-.85.09.44-.05,1.65-1,2.28.1.33.51,1.12v.11l1.59,1.7h.22l2.84.53h0l1.64.38.43.23-.58.86-.12.22,0,1.32-.92,1.07-.11.11,1.13,2.34.56-.2.77,0,3,1,.64.68h.11l.86.47Z"/><path class="cls-2" d="M646.39,280h-.11l-8.45,3.13-2.6,2.33q-.84,5.57,1.1,6.63l2.36,1.62h.11v.11l.52,4.08c2,2.81,3.37,4.29,4.13,4.64l2.4.63.33.12v.11a5.08,5.08,0,0,0,2.48,1.4l6.57.55c4.83.16,7.56.58,8.09,1.15s.61,1.56.44,3.2a3.65,3.65,0,0,0,0,1.87l2.43-.47c1.89-.6,3-.56,3.52,0l.84,1.13c1.26,1.69,2.12,2.38,2.34,2.27a5,5,0,0,0,2.26-1.9l.23-.32,1.94,1.27,1.24-.95c.38-1.52,1.17-2.27,2.49-2.33l.56-.2-.21-.45-.21-.23.11-.11.2-2.74a3,3,0,0,0-3.13-1.64c-1.22.29-2.1.26-2.41-.19a1.48,1.48,0,0,1-.19-1,16.06,16.06,0,0,0-2.41-3.49c-1.28-1.14-1.58-2.14-1.21-3.12l.23-.32,3.06.65-.16-1.87a2.79,2.79,0,0,1,.63-2.4,1.8,1.8,0,0,1,1.34-.72l1.33-.4,0-.55c-.92-2.12-1.2-3.66-.74-4.31l.68-.53a7.28,7.28,0,0,1,2.94.76h0l.11.11v.22a25.56,25.56,0,0,0,2.11,2.6l2.2-3.33a29.14,29.14,0,0,1-3-4.71l-1.68,1-.21-.23-4.35-1.24h-.11v-.11c-1.84-.94-2.9-2-3-3L671,277.56l.08-2.52,4.92-2.69a13.39,13.39,0,0,0-1-3.77l-.72-1.56-3.3.22a11,11,0,0,1-4.42.84l-3.38-.88,0-1.21-.55-.13-1-.36-.2-.67h0v-.11h0l-.1-.33V264l-.22.1-.31,2.85-.14,1c-.24.54-.47.86-.26,1.09a2,2,0,0,1-.19,2.41l.38,1.88-.11.11-.22.1L659,274.64l-.08,2.52-.33.1a14.87,14.87,0,0,1-5.1,1.48l-4.82-.49L646.5,280Z"/><path class="cls-2" d="M738.63,374a22.41,22.41,0,0,0-8,9.29c-1.54,3.24-2.69,4.85-3.47,5.27l.57,6.06v.11h0l-.69,4.15c-.26,1.31-.07,2.19.25,2.43l4.4,3.11h.11l.1.33h0a7.76,7.76,0,0,0,1.66,3,3.51,3.51,0,0,0,1.39,1.25l.9-7.22v-.22l3.44-7.58,1.4-9.07v-.11l.11-.11,1.07-2.38-.7-2.11v-.11h-.11l-.12-2.86.11-.11.11-.11.57-.64.36-.76Z"/><path class="cls-2" d="M628.4,434.57l-.35.54v.11l-.12.22-4.54.95.2.56,1.37,1.69c-.11,0-.33.1-.44.1l-2.12,1L619,442.17c-1.14,1.28-1,3.7.52,7.38l3.28.44h.11v.11l3.24,1.65,3.53-.43c1.44-.28,3.13-1.54,5.3-4h.11l.23-.21,1.55-.39-.29-4.62v-.22l2.07-2.79V439h.11l1.58-1.16a5.34,5.34,0,0,0-.32-3.53c-.41-.89-.95-1.24-1.5-1.26l.17,1.65-2.94-.65-1.34.72h-.11Z"/><path class="cls-2" d="M681.85,215.19c-.5-.53-1.52-.28-2.06,0a.94.94,0,0,0-.18,1.37c.25.23.39.26.54.59a1.59,1.59,0,0,1,.17.81c0,.45-.23.39-.67.35a11.17,11.17,0,0,0-1.12-.07c0,.35-.5.52-.77.66a6.45,6.45,0,0,1-1.27.69c-.39.11-.74.1-1,.5a3.87,3.87,0,0,0-.18,1.65,1.13,1.13,0,0,0,.25.93.85.85,0,0,1,.2.9,9.23,9.23,0,0,1-.7,1.34,6.44,6.44,0,0,1-.84,1.44c-.18.21-.76.63-.64.9s.57.32.74.43.43.26.67.38a16.9,16.9,0,0,1,1.56,1,8.24,8.24,0,0,0,1.18.47c.34.16.51.49.83.66a4.66,4.66,0,0,0,1.29.37,5.85,5.85,0,0,0,2.47.3c.71-.2,1.15-1.08,1.69-1.53s.38-1.18.51-2c.09-.54.49-1.73,1.06-1.93s.94,0,1.35-.18a1.85,1.85,0,0,0,.71-1c.11-.24.45-.71.31-1s-.36-.21-.46-.33a1.24,1.24,0,0,1-.26-.58c-.14-.79-1-1.44-.94-2.26,0-.5.78-.78,1.25-.91.28-.08.56-.19.63-.49.27-1.12-1.31-1.11-2-1.16a4.6,4.6,0,0,1-2.57-1.18c-.5-.37-1.21-1.24-1.85-1.26"/><circle class="cls-4" cx="203.28" cy="306.77" r="149.62"/><line class="cls-5" x1="352.62" y1="297.57" x2="542.67" y2="370.92"/><line class="cls-5" x1="288.45" y1="429.79" x2="542.67" y2="370.92"/><text class="cls-6" transform="translate(544.49 392.8)">雲南省</text><path class="cls-7" d="M91.2,713.39l-1.66,5.4c2.5,0,5.82-1.66,9.15-4.16l.41-.41h.83l16.63-2.08,10.81-5.41,4.16,5.82.83.41-5,7.9,5.82,5.82v1.66L129,745.81l10.81,7.9,19.54.83-2.91,3.74c-12.47,15.38-18.29,24.53-17.87,27.43l7.48,1.66c10,.83,15.79,3.74,17.87,7.48A139.42,139.42,0,0,1,171,810.65l11.22,6.23,7.06,1.25,14.55-12.47,7.49,11.22v.42h0l.41.41,2.49,10.39,6.23,1.25h0l9.56,3.33,2.49-.83v-.42l-1.66-10.81-.41-.41L225,795.69v-.83l3.32-17,.83.41h1.25l11.22.83,14.13-10.39,1.25.83q11.22,8.73,15,13.72c2.49-.83,7.07-5.4,13.3-12.47l.42-.41.83-.83,20.78,5.4,9.15-7.48.42-.42.41-.41h.41l.41.41,8.73,1.66,28.27-24.94,8.73,2.49h0l.41.42.41.41.42.42,2.08,3.74,2.08-2.49h.42v-.42h.41l8.31-4.57,6.23-5.82L383,725l-1.25-1.66-7.9,3.33h0c-2.5.83-4.57,1.66-7.49,1.66h-9.14c-2.91-.41-4.57-1.25-5.82-2.91l-.83-13.3c-2.91-1.66-4.16-2.5-5.4-2.5l-2.08.83-2.91,1.66-5.82,1.25H332.7l-.41-.83L329,706.73l-.41-5.4h0l3.32-15.79h.42v-.41l3.74-7.9-11.64-10.39-.41-.41-.41-.42V653.95l.41-.42,6.65-19.12L326.47,624l-3.74-.83-4.57.41-4.57,7.07-5.82-4.16-5.82-3.32-4.57-11.64h0l-1.66-8.31v-.83l-.42-.41,1.25-.83,5.4-7.48,1.25-.83h.41l4.16-.83,4.57-1.25,21.62-.83h.42l2.91,1.25.83.42,3.32,1.25,5.82-2.5,5-3.74,2.5-4.16.42-2.08-.42-9.15-4.57-.83-8.73,2.91c-2.49,2.91-5.4,5-8.31,5s-5.4-2.5-7.9-7.07h-.42v-.41l-.42-5.82v-.83l.42-5.4-4.57-11.22L311.5,550l-3.74,3.32L309,565.83l-13.72-6.23,3.33,7.48.41.41v.83l-1.25,8.31v.83h-.42l-7.9,11.22h0l-12.89,7.9-1.24,7.48c-.42,1.25,1.24,4.57,3.32,8.73l.42.41v.42l.83,10.81v1.25l-.41.42-5,6.65h0l-.41.42h-.41l-3.74,2.49h-1.66l-9.56-2.08a9.92,9.92,0,0,0-5.82,2.49l-4.16,4.57-3.33,4.16c-2.08,3.74-5,4.57-9.56,3.74-2.91-.41-3.74-3.32-2.91-7.06v-2.91l-.41-2.91-1.66,2.08a4.59,4.59,0,0,1-4.16,2.08q-2.49-.62-3.74-5v-.41l-.83-9.56-2.08-9.15-4.16-4.16h0l-.41-.42-8.73-20-.42-.41-2.5-5.82v-.41h-.41v-.42l-1.66-10.81-1.24-1.66-1.66,1.25c-2.91,3.32-5,5.4-5.82,5.4-1.25,0-3.32-1.66-6.65-4.16l-6.23-2.91-.83-.41-.42-.42V570l-.41-.83-.41-8.31h0l-1.25-6.23-3.32-8.31h-3.33a17.2,17.2,0,0,1-.83,8.31c-.84,2.49-2.5,4.16-5,6.23a14.68,14.68,0,0,1-3.74,6.65c-2.5,2.5-4.57,2.5-7.07.83l-1.25-.41c-2.5-.83-2.91-3.74-2.5-9.15v-2.08l-5.4-3.32c-2.08-.83-3.33-3.32-3.74-7.07l2.08-18.7-.83-2.91-6.65,7.48-4.57,3.33-1.25,2.91q2.49,5.61,2.5,8.73c0,4.16-2.08,7.48-5.82,8.73l-7.49,2.91L116.55,560l-.41,2.91v11.64c.41,3.74.83,5.82,2.08,5.82a7,7,0,0,0,7.9-.83l2.49-1.25,7.9,18.29V597h0v.83c-2.91,32.84-5.82,51.54-9.56,56.53a8.68,8.68,0,0,1-5.4,2.91,14.12,14.12,0,0,1-7.9-2.08c-10.81,21.61-17.88,32.83-21.2,34.5h.41c-1.66.41-2.49,5.82-2.08,15.38l2.49,2.08.83.83.83.83Z"/><circle class="cls-8" cx="181.71" cy="618.27" r="2.7"/><circle class="cls-8" cx="183.1" cy="667.16" r="3.31"/><polygon class="cls-8" points="182.5 625.11 183.31 627.62 185.96 627.62 183.82 629.17 184.63 631.69 182.5 630.13 180.36 631.69 181.18 629.17 179.04 627.62 181.68 627.62 182.5 625.11"/><text class="cls-9" transform="translate(186.38 615.56)">丽江市</text><text class="cls-10" transform="translate(187.11 632.4)">鹤庆県</text><text class="cls-9" transform="translate(186.38 665.68)">大理市</text><circle class="cls-8" cx="270.12" cy="692.47" r="2.67"/><text class="cls-9" transform="translate(274.71 695.35)">昆明市</text><rect x="78.47" y="1037.21" width="101.32" height="33.2"/><text class="cls-11" transform="translate(89.67 1057.58)">麗江市空港</text><rect x="675.32" y="1037.21" width="67.33" height="33.2"/><text class="cls-11" transform="translate(686.53 1057.58)">鹤庆県</text><rect x="675.32" y="1130.3" width="67.33" height="33.2"/><text class="cls-11" transform="translate(686.53 1150.68)">鹤庆県</text><rect x="672.76" y="882.94" width="67.33" height="33.2"/><text class="cls-11" transform="translate(683.96 903.31)">鹤庆県</text><rect x="78.47" y="1130.3" width="101.32" height="33.2"/><text class="cls-11" transform="translate(89.67 1150.67)">大理市空港</text><rect x="376.89" y="882.94" width="67.33" height="33.2"/><text class="cls-11" transform="translate(388.1 903.31)">大理市</text><rect x="78.47" y="882.94" width="67.33" height="33.2"/><text class="cls-11" transform="translate(89.67 903.31)">昆明市</text><path class="cls-12" d="M183.1,667.63a71.58,71.58,0,0,1,28,9.92c14,8.64,25.55,12.69,34.86,13.46,6.11.51,23.6-1.46,24.48,1.45"/><path class="cls-12" d="M181.71,618s-8.44-.11-9.76,8.55c-1.17,7.65.16,16.41,2.47,20.57,2,3.61,10.56,4.72,8.48,19.09"/><path class="cls-12" d="M181.91,618.93c1,1.79-.14,6.11.51,8.73"/><path class="cls-7" d="M77.66,342.48l-1.44,4.67c2.16,0,5-1.44,7.91-3.59l.36-.36h.72l14.38-1.8,9.35-4.67,3.59,5,.72.36-4.31,6.83,5,5v1.44l-3.59,15.1,9.35,6.83,16.89.72-2.52,3.24c-10.78,13.3-15.81,21.21-15.45,23.72l6.47,1.44c8.62.72,13.66,3.24,15.45,6.47a120.55,120.55,0,0,1,6.11,13.66l9.7,5.39,6.11,1.08,12.58-10.78,6.47,9.7v.36h0l.36.36,2.16,9,5.39,1.08h0l8.27,2.88,2.16-.72v-.36l-1.44-9.34-.36-.36-4.67-21.21v-.72l2.87-14.73.72.36h1.08l9.7.72,12.22-9,1.08.72q9.7,7.54,12.94,11.86c2.16-.72,6.11-4.67,11.5-10.78l.36-.36.72-.72,18,4.67,7.91-6.47.36-.36.36-.36h.36l.36.36,7.55,1.44,24.44-21.56,7.55,2.16h0l.36.36.36.36.36.36,1.8,3.23,1.8-2.16h.36v-.36h.36l7.19-4,5.39-5L330,352.54l-1.08-1.44L322.06,354h0a19,19,0,0,1-6.47,1.44h-7.9c-2.52-.36-4-1.08-5-2.52l-.72-11.5c-2.52-1.44-3.59-2.16-4.67-2.16l-1.8.72-2.52,1.44-5,1.08h-1.44l-.36-.72-2.88-5-.36-4.67h0l2.87-13.66h.36V318l3.23-6.83-10.07-9-.36-.36-.36-.36V291.08l.36-.36,5.75-16.53-3.59-9-3.24-.72-4,.36-4,6.11-5-3.59-5-2.87-4-10.06h0l-1.44-7.19v-.72l-.36-.36,1.08-.72,4.67-6.47,1.08-.72h.36l3.59-.72,4-1.08,18.69-.72h.36l2.51,1.08.72.36,2.87,1.08,5-2.16,4.31-3.23,2.16-3.59.36-1.8-.36-7.91-4-.72L294,221.35c-2.16,2.52-4.67,4.31-7.19,4.31s-4.67-2.16-6.83-6.11h-.36v-.36l-.36-5v-.72l.36-4.67-4-9.7-7.55,2.16-3.24,2.87L266,214.88l-11.86-5.39L257,216l.36.36V217l-1.08,7.19v.72h-.36l-6.83,9.7h0L238,241.48l-1.07,6.47c-.36,1.08,1.07,4,2.87,7.55l.36.36v.36l.72,9.34v1.08l-.36.36-4.32,5.75h0l-.36.36h-.36l-3.24,2.16h-1.44l-8.26-1.8a8.58,8.58,0,0,0-5,2.16l-3.59,4L211,283.17c-1.8,3.23-4.31,4-8.26,3.23-2.52-.36-3.24-2.87-2.52-6.11v-2.52l-.36-2.52-1.44,1.8a4,4,0,0,1-3.59,1.8q-2.15-.54-3.23-4.31v-.36l-.72-8.27-1.8-7.91-3.59-3.59h0l-.36-.36-7.55-17.25-.36-.36-2.16-5v-.36h-.36v-.36l-1.44-9.34-1.07-1.44L170.75,221c-2.52,2.87-4.31,4.67-5,4.67-1.08,0-2.87-1.44-5.75-3.59l-5.39-2.52-.72-.36-.36-.36v-.36l-.36-.72-.36-7.19h0l-1.08-5.39L148.83,198h-2.88a14.87,14.87,0,0,1-.72,7.19c-.72,2.16-2.16,3.59-4.32,5.39a12.7,12.7,0,0,1-3.23,5.75c-2.16,2.16-4,2.16-6.11.72l-1.08-.36c-2.16-.72-2.52-3.24-2.16-7.91V207l-4.67-2.87c-1.8-.72-2.88-2.87-3.24-6.11l1.8-16.17-.72-2.52-5.75,6.47-4,2.88-1.08,2.51q2.15,4.85,2.16,7.55c0,3.59-1.8,6.47-5,7.55l-6.47,2.52-1.8,1.08-.36,2.52v10.06c.36,3.24.72,5,1.8,5a6,6,0,0,0,6.83-.72l2.16-1.08,6.83,15.81v.36h0v.72c-2.52,28.39-5,44.57-8.27,48.88A7.51,7.51,0,0,1,103.9,294a12.21,12.21,0,0,1-6.83-1.8C87.73,310.85,81.61,320.55,78.74,322h.36c-1.44.36-2.16,5-1.8,13.3l2.16,1.8.72.72.72.72Z"/><circle class="cls-13" cx="149.56" cy="260.93" r="2.11"/><circle class="cls-13" cx="150.91" cy="307.29" r="2.11"/><polygon class="cls-14" points="152.21 266.66 152.19 269.92 155.29 270.94 152.19 271.94 152.18 275.19 150.27 272.55 147.17 273.55 149.09 270.92 147.19 268.27 150.28 269.29 152.21 266.66"/><text class="cls-15" transform="translate(148.79 253.52)">丽江市</text><text class="cls-16" transform="translate(156.6 279.38)">鹤庆県</text><text class="cls-15" transform="translate(156.6 306.76)">大理市</text><circle class="cls-8" cx="230.56" cy="332.75" r="2.6"/><text class="cls-15" transform="translate(236.34 328.5)">昆明市</text><path class="cls-17" d="M150.91,308.54a63.82,63.82,0,0,1,25.88,9.67c12.92,8.42,23.62,12.38,32.23,13.13,5.65.49,21.82-1.43,22.64,1.42"/><path class="cls-17" d="M149.56,260.11s-8.23-.11-9.52,8.33c-1.14,7.46.16,16,2.41,20.06,2,3.52,10.3,4.6,8.27,18.61"/><path class="cls-17" d="M149.74,261.06c1,1.74-.14,6,.5,8.51"/><path class="cls-18" d="M199.79,700.84h0a.82.82,0,0,1-.85-.8v-4.21l2.19-3.37h12.63a.82.82,0,0,1,.85.8V700a.82.82,0,0,1-.85.8h-.44a1.7,1.7,0,0,0,0-.2,1.91,1.91,0,0,0-3.81,0,1.58,1.58,0,0,0,0,.2h-5.12a2.1,2.1,0,0,0-4.2,0h-.44m9.74-6.78h0v2.39a.41.41,0,0,0,.42.4h3a.41.41,0,0,0,.42-.4v-2.39a.41.41,0,0,0-.42-.4h-3a.41.41,0,0,0-.42.4m-4.66,0h0v2.39a.41.41,0,0,0,.42.4h3a.41.41,0,0,0,.42-.4v-2.39a.41.41,0,0,0-.42-.4h-3a.41.41,0,0,0-.42.4m-4.23,1.2h0v1.2a.41.41,0,0,0,.42.4h2.54a.41.41,0,0,0,.42-.4v-2.39a.41.41,0,0,0-.42-.4h-2.12L200.8,695c0,.07-.07.14-.16.31m10.8,4.39h0A1.4,1.4,0,1,1,210,701a1.44,1.44,0,0,1,1.48-1.4m-9.32,0h0a1.4,1.4,0,1,1-1.48,1.4,1.44,1.44,0,0,1,1.48-1.4m0,0"/><path class="cls-19" d="M81,974h0a2.44,2.44,0,0,1-2.51-2.36V959.18l6.48-10h37.41a2.44,2.44,0,0,1,2.51,2.36v20.08a2.44,2.44,0,0,1-2.51,2.36H121a5,5,0,0,0,.06-.59,5.65,5.65,0,0,0-11.29,0,4.67,4.67,0,0,0,.06.59H94.71a6.22,6.22,0,0,0-12.42,0H81m28.84-20.08h0V961a1.22,1.22,0,0,0,1.25,1.18h8.78A1.22,1.22,0,0,0,121.1,961v-7.08a1.22,1.22,0,0,0-1.25-1.18h-8.78a1.22,1.22,0,0,0-1.25,1.18m-13.8,0h0V961a1.22,1.22,0,0,0,1.25,1.18h8.78a1.22,1.22,0,0,0,1.25-1.18v-7.08a1.22,1.22,0,0,0-1.25-1.18H97.28A1.22,1.22,0,0,0,96,953.92m-12.54,3.54h0V961a1.22,1.22,0,0,0,1.25,1.18h7.53A1.22,1.22,0,0,0,93.51,961v-7.08a1.22,1.22,0,0,0-1.25-1.18H86l-2,3.82c-.13.21-.21.42-.48.91m32,13h0a4.14,4.14,0,1,1-4.39,4.13,4.27,4.27,0,0,1,4.39-4.13m-27.59,0h0a4.14,4.14,0,1,1-4.39,4.13,4.27,4.27,0,0,1,4.39-4.13m0,0"/><path class="cls-20" d="M474,712.95l-1.64,5.33c2.46,0,5.75-1.64,9-4.1l.41-.41h.82L499,711.72l10.67-5.34,4.1,5.75.82.41-4.93,7.8,5.74,5.75v1.64L511.35,745l10.67,7.8,19.29.82-2.87,3.7c-12.31,15.19-18.05,24.21-17.65,27.08l7.39,1.64c9.85.82,15.59,3.69,17.65,7.39a137.65,137.65,0,0,1,7,15.59l11.08,6.16,7,1.23,14.36-12.31,7.39,11.08v.41h0l.41.41,2.46,10.26,6.16,1.23h0l9.44,3.29,2.46-.82v-.41l-1.64-10.67-.41-.41-5.33-24.21v-.82l3.28-16.82.82.41h1.23l11.08.82,14-10.26,1.23.82q11.08,8.61,14.77,13.54c2.46-.82,7-5.33,13.13-12.31l.41-.41.82-.82,20.52,5.33,9-7.39.41-.41.41-.41h.41l.41.41,8.62,1.64L734.6,742.9l8.62,2.46h0l.41.41.41.41.41.41,2.05,3.69,2.05-2.46H749v-.41h.41l8.21-4.51,6.16-5.75-1.64-12.72-1.23-1.64-7.8,3.29h0c-2.46.82-4.52,1.64-7.39,1.64h-9c-2.88-.41-4.52-1.23-5.75-2.87l-.82-13.13c-2.87-1.64-4.1-2.46-5.33-2.46l-2.05.82-2.87,1.64-5.74,1.23h-1.64l-.41-.82-3.29-5.75-.41-5.33h0l3.28-15.59H712V685l3.69-7.8L704.23,667l-.41-.41-.41-.41v-11.9l.41-.41L710.39,635l-4.1-10.26-3.7-.82-4.52.41-4.51,7-5.75-4.1-5.74-3.28-4.52-11.49h0l-1.64-8.21v-.82l-.41-.41,1.23-.82,5.33-7.39,1.23-.82h.41l4.1-.82,4.52-1.23,21.34-.82h.41l2.87,1.23.82.41,3.28,1.23,5.75-2.46,4.92-3.69,2.46-4.1.41-2.05-.41-9-4.52-.82-8.62,2.87c-2.46,2.87-5.33,4.93-8.21,4.93s-5.33-2.46-7.79-7h-.41v-.41l-.41-5.75v-.82l.41-5.33-4.52-11.08-8.62,2.46-3.7,3.28L689,567.26,675.5,561.1l3.29,7.39.41.41v.82L678,577.93v.82h-.41l-7.79,11.08h0L657,597.62,655.81,605c-.41,1.23,1.23,4.51,3.28,8.62l.41.41v.41l.82,10.67v1.23l-.41.41L655,633.33h0l-.41.41h-.41l-3.7,2.46h-1.64l-9.43-2.05a9.79,9.79,0,0,0-5.75,2.46l-4.1,4.52-3.29,4.1c-2.05,3.69-4.92,4.51-9.43,3.69-2.88-.41-3.7-3.28-2.88-7v-2.87l-.41-2.87-1.64,2.05a4.54,4.54,0,0,1-4.1,2.05q-2.46-.61-3.69-4.93V635l-.82-9.44-2.05-9-4.1-4.1h0l-.41-.41-8.62-19.7-.41-.41-2.46-5.75v-.41h-.41v-.41l-1.64-10.67L581.94,573l-1.64,1.23c-2.87,3.28-4.93,5.33-5.75,5.33-1.23,0-3.28-1.64-6.56-4.1l-6.16-2.87-.82-.41-.41-.41v-.41l-.41-.82-.41-8.21h0l-1.23-6.16L555.26,548H552a17,17,0,0,1-.82,8.21c-.83,2.46-2.46,4.1-4.93,6.16a14.5,14.5,0,0,1-3.69,6.56c-2.46,2.46-4.52,2.46-7,.82l-1.23-.41c-2.46-.82-2.87-3.7-2.46-9v-2.05l-5.33-3.28c-2.05-.82-3.29-3.28-3.7-7l2.05-18.47-.82-2.87L517.5,534,513,537.3l-1.23,2.87q2.46,5.54,2.46,8.62c0,4.1-2.05,7.39-5.75,8.62l-7.39,2.87L499,561.51l-.41,2.87v11.49c.41,3.7.82,5.75,2.05,5.75a6.89,6.89,0,0,0,7.8-.82l2.46-1.23,7.8,18.05V598h0v.82c-2.87,32.42-5.75,50.89-9.44,55.81a8.57,8.57,0,0,1-5.33,2.87,13.94,13.94,0,0,1-7.8-2.05c-10.67,21.34-17.65,32.42-20.93,34.06h.41c-1.64.41-2.46,5.75-2.05,15.19l2.46,2.05.82.82.82.82Z"/><text class="cls-21" transform="translate(560.48 607.04)">丽江市</text><text class="cls-22" transform="translate(137 967.49)"><tspan xml:space="preserve">Time：5h30m    Distance: 445km   </tspan></text><path class="cls-19" d="M262.45,1079.37h0a2,2,0,0,1-2.11-2v-10.46l5.44-8.39h31.42a2,2,0,0,1,2.11,2v16.86a2,2,0,0,1-2.11,2H296.1a4.23,4.23,0,0,0,.05-.5,4.75,4.75,0,0,0-9.48,0,3.92,3.92,0,0,0,.05.5H274a5.22,5.22,0,0,0-10.43,0h-1.1m24.22-16.86h0v5.95a1,1,0,0,0,1.05,1h7.37a1,1,0,0,0,1.05-1v-5.95a1,1,0,0,0-1.05-1h-7.37a1,1,0,0,0-1.05,1m-11.59,0h0v5.95a1,1,0,0,0,1.05,1h7.37a1,1,0,0,0,1.05-1v-5.95a1,1,0,0,0-1.05-1h-7.37a1,1,0,0,0-1.05,1m-10.53,3h0v3a1,1,0,0,0,1.05,1h6.32a1,1,0,0,0,1.05-1v-5.95a1,1,0,0,0-1.05-1h-5.27l-1.7,3.21c-.11.18-.17.36-.41.76m26.86,10.91h0a3.48,3.48,0,1,1-3.69,3.47,3.58,3.58,0,0,1,3.69-3.47m-23.17,0h0a3.48,3.48,0,1,1-3.69,3.47,3.58,3.58,0,0,1,3.69-3.47m0,0"/><text class="cls-22" transform="translate(323.77 1078.36)"><tspan xml:space="preserve">Time：15min    Distance: 5km   </tspan></text><path class="cls-19" d="M262.45,1162.28h0a2,2,0,0,1-2.11-2v-10.46l5.44-8.39h31.42a2,2,0,0,1,2.11,2v16.86a2,2,0,0,1-2.11,2H296.1a4.23,4.23,0,0,0,.05-.5,4.75,4.75,0,0,0-9.48,0,3.92,3.92,0,0,0,.05.5H274a5.22,5.22,0,0,0-10.43,0h-1.1m24.22-16.86h0v5.95a1,1,0,0,0,1.05,1h7.37a1,1,0,0,0,1.05-1v-5.95a1,1,0,0,0-1.05-1h-7.37a1,1,0,0,0-1.05,1m-11.59,0h0v5.95a1,1,0,0,0,1.05,1h7.37a1,1,0,0,0,1.05-1v-5.95a1,1,0,0,0-1.05-1h-7.37a1,1,0,0,0-1.05,1m-10.53,3h0v3a1,1,0,0,0,1.05,1h6.32a1,1,0,0,0,1.05-1v-5.95a1,1,0,0,0-1.05-1h-5.27l-1.7,3.21c-.11.18-.17.36-.41.76m26.86,10.91h0a3.48,3.48,0,1,1-3.69,3.47,3.58,3.58,0,0,1,3.69-3.47m-23.17,0h0a3.48,3.48,0,1,1-3.69,3.47,3.58,3.58,0,0,1,3.69-3.47m0,0"/><text class="cls-22" transform="translate(323.77 1161.27)"><tspan xml:space="preserve">Time：2h    Distance: 130km   </tspan></text><text class="cls-22" transform="translate(549.57 967.49)"><tspan xml:space="preserve">Time：9h    Line: K917</tspan></text><text class="cls-23" transform="translate(561.31 626.15)">鹤庆県</text><text class="cls-21" transform="translate(560.48 663.93)">大理市</text><text class="cls-21" transform="translate(660.74 697.6)">昆明市</text><path class="cls-24" d="M556.76,666.14a81.24,81.24,0,0,1,31.77,11.26c15.85,9.8,29,14.41,39.57,15.28,6.94.57,26.78-1.66,27.79,1.65"/><path class="cls-25" d="M556.76,666.14s.82,7.6,16.67,17.4,41.83,13.18,52.4,14.05c6.94.57,29.83-4.88,30.84-1.57"/><path class="cls-24" d="M555.18,609.77s-9.58-.13-11.08,9.7c-1.32,8.68.18,18.63,2.8,23.35,2.27,4.09,12,5.36,9.63,21.67"/><path class="cls-25" d="M557.26,610.52c1.94,6.13-.07,6.1-.36,12.11-.15,3.09.58,6.54-.74,9.59-3.42,7.94-2.33,11.92.21,15.59,2.21,3.19,8.86,3.37,2.6,18.26"/><path class="cls-24" d="M554.72,612.1c1.09,2,.18,6.6.94,9.47"/><path class="cls-19" d="M471.58,964.75v1.1a7.56,7.56,0,0,0,.17,1.54h0c.9,5.48,6.76,6.85,12.09,6.85h50.77V951h-34c-4.88,0-13.16,2.74-19.7,5.48H488v2.74H476c-2.88,1.37-4.4,3.74-4.4,5.58ZM499,955.06v5.48h-4.11v-5.48Zm9.59,0v5.48h-4.11v-5.48Zm9.59,0v5.48H514v-5.48Zm9.59,0v5.48h-4.11v-5.48Z"/><polygon class="cls-19" points="534.58 975.6 481.17 975.6 481.17 976.97 534.58 976.97 534.58 975.6 534.58 975.6"/><path class="cls-26" d="M583.47,702.09v.29a2,2,0,0,0,0,.41h0c.24,1.46,1.81,1.83,3.23,1.83h13.57V698.4h-9.08a17,17,0,0,0-5.26,1.46h1.9v.73h-3.22a1.86,1.86,0,0,0-1.18,1.49Zm7.32-2.59V701h-1.1V699.5Zm2.56,0V701h-1.1V699.5Zm2.56,0V701h-1.1V699.5Zm2.56,0V701h-1.1V699.5Z"/><path class="cls-26" d="M601.59,704.62H610a.73.73,0,0,0,.73-.73v-4.76a.73.73,0,0,0-.73-.73h-8.42a.73.73,0,0,0-.73.73v4.76a.73.73,0,0,0,.73.73Zm2.2-5.12V701h-1.1V699.5Zm2.56,0V701h-1.1V699.5Zm2.56,0V701h-1.1V699.5Z"/><polygon class="cls-26" points="610.56 704.99 586.03 704.99 586.03 705.35 610.56 705.35 610.56 704.99 610.56 704.99"/><circle class="cls-27" cx="556.76" cy="665.6" r="3.76"/><circle class="cls-27" cx="655.53" cy="694.33" r="3.03"/><polygon class="cls-27" points="557.87 616.43 557.91 620.35 561.66 621.53 557.94 622.78 557.98 626.7 555.64 623.55 551.92 624.8 554.2 621.6 551.86 618.45 555.6 619.63 557.87 616.43"/><circle class="cls-27" cx="555.18" cy="610.11" r="3.07"/><path class="cls-19" d="M666.53,680.87a2,2,0,0,0-.89.21c-1.09.58-2.07,1-2.13,1h-.06l-4-.5a.64.64,0,0,0-.48.2l-.38.3a.2.2,0,0,0,0,.37l2.11,1.07c.14.09.06.21,0,.25l-1.13.53a.14.14,0,0,1-.1,0c-.46-.22-1.07-.37-1.45-.51a.54.54,0,0,0-.58.14.5.5,0,0,0-.12.27.35.35,0,0,0,.1.27l1.27,1.18a.62.62,0,0,0,.48.11l.82,0a1.41,1.41,0,0,0,.51-.15c2.35-1.24,6.74-3.67,6.74-3.67.34-.21.4-.49.25-.67a1.35,1.35,0,0,0-1-.41Z"/><path class="cls-19" d="M662.15,675.39a8,8,0,1,0,8,8,8,8,0,0,0-8-8Zm0,15.56a7.6,7.6,0,1,1,7.6-7.6,7.6,7.6,0,0,1-7.6,7.6Z"/><path class="cls-19" d="M66.95,1047.71a5,5,0,0,0-2.19.52c-2.68,1.42-5.09,2.5-5.24,2.56a.3.3,0,0,1-.15,0c-3.27-.41-6.54-.83-9.81-1.22a1.58,1.58,0,0,0-1.19.49c-.32.23-.63.49-.95.73a.5.5,0,0,0,.09.91l5.21,2.63c.35.21.14.51,0,.61L50,1056.29a.34.34,0,0,1-.24,0c-1.14-.54-2.63-.91-3.56-1.25a1.33,1.33,0,0,0-1.43.34,1.24,1.24,0,0,0-.31.67.85.85,0,0,0,.24.67l3.13,2.9a1.53,1.53,0,0,0,1.19.28c.78,0,1.26-.06,2-.12a3.47,3.47,0,0,0,1.26-.37c5.78-3,16.6-9,16.6-9,.83-.52,1-1.21.61-1.65a3.31,3.31,0,0,0-2.52-1Z"/><path class="cls-19" d="M56.16,1034.21a19.6,19.6,0,1,0,19.6,19.6,19.6,19.6,0,0,0-19.6-19.6Zm0,38.32a18.73,18.73,0,1,1,18.73-18.73,18.72,18.72,0,0,1-18.73,18.73Z"/><path class="cls-19" d="M66.95,1137.81a5,5,0,0,0-2.19.52c-2.68,1.42-5.09,2.5-5.24,2.56a.3.3,0,0,1-.15,0c-3.27-.41-6.54-.83-9.81-1.22a1.58,1.58,0,0,0-1.19.49c-.32.23-.63.49-.95.73a.5.5,0,0,0,.09.91l5.21,2.63c.35.21.14.51,0,.61L50,1146.39a.34.34,0,0,1-.24,0c-1.14-.54-2.63-.91-3.56-1.25a1.33,1.33,0,0,0-1.43.34,1.24,1.24,0,0,0-.31.67.85.85,0,0,0,.24.67l3.13,2.9A1.53,1.53,0,0,0,49,1150c.78,0,1.26-.06,2-.12a3.47,3.47,0,0,0,1.26-.37c5.78-3,16.6-9,16.6-9,.83-.52,1-1.21.61-1.65a3.31,3.31,0,0,0-2.52-1Z"/><path class="cls-19" d="M56.16,1124.31a19.6,19.6,0,1,0,19.6,19.6,19.6,19.6,0,0,0-19.6-19.6Zm0,38.32a18.73,18.73,0,1,1,18.73-18.73,18.72,18.72,0,0,1-18.73,18.73Z"/><path class="cls-19" d="M550.69,663.67a2,2,0,0,0-.89.21c-1.09.58-2.07,1-2.13,1h-.06l-4-.5a.64.64,0,0,0-.48.2l-.38.3a.2.2,0,0,0,0,.37l2.11,1.07c.14.09.06.21,0,.25l-1.13.53a.14.14,0,0,1-.1,0c-.46-.22-1.07-.37-1.45-.51a.54.54,0,0,0-.58.14.5.5,0,0,0-.12.27.35.35,0,0,0,.1.27l1.27,1.18a.62.62,0,0,0,.48.11l.82,0a1.41,1.41,0,0,0,.51-.15c2.35-1.24,6.74-3.67,6.74-3.67.34-.21.4-.49.25-.67a1.35,1.35,0,0,0-1-.41Z"/><path class="cls-19" d="M546.31,658.18a8,8,0,1,0,8,8,8,8,0,0,0-8-8Zm0,15.56a7.6,7.6,0,1,1,7.6-7.6,7.6,7.6,0,0,1-7.6,7.6Z"/><path class="cls-19" d="M556.49,596.61a2,2,0,0,0-.89.21c-1.09.58-2.07,1-2.13,1h-.06l-4-.5a.64.64,0,0,0-.48.2l-.38.3a.2.2,0,0,0,0,.37l2.11,1.07c.14.09.06.21,0,.25l-1.13.53a.14.14,0,0,1-.1,0c-.46-.22-1.07-.37-1.45-.51a.54.54,0,0,0-.58.14.5.5,0,0,0-.12.27.35.35,0,0,0,.1.27l1.27,1.18a.62.62,0,0,0,.48.11l.82,0a1.41,1.41,0,0,0,.51-.15c2.35-1.24,6.74-3.67,6.74-3.67.34-.21.4-.49.25-.67a1.35,1.35,0,0,0-1-.41Z"/><path class="cls-19" d="M552.11,591.13a8,8,0,1,0,8,8,8,8,0,0,0-8-8Zm0,15.56a7.6,7.6,0,1,1,7.6-7.6,7.6,7.6,0,0,1-7.6,7.6Z"/></svg>